<svg width="186" height="40" viewBox="0 0 186 40" fill="none" xmlns="http://www.w3.org/2000/svg">
<g clip-path="url(#clip0_1_875)">
<path d="M65.1893 35.7226L68.9548 31.957L72.8221 35.7226L68.9548 39.692L65.1893 35.7226Z" fill="white"/>
<path d="M66.7154 24.833C66.7154 26.8685 66.4101 28.904 65.5961 30.8377C64.8836 32.5678 63.866 34.1961 62.5428 35.5194C61.2198 36.8423 59.693 37.8602 58.0647 38.5724C56.3346 39.2849 54.401 39.6921 52.467 39.6921C48.7015 39.6921 45.0377 38.2674 42.3915 35.5194C41.0683 34.1961 40.0507 32.5678 39.3382 30.8377C38.5239 28.8022 38.2185 26.8685 38.2185 24.833V1.98539C38.2185 0.888888 39.1076 0 40.2042 0H43.3574C44.454 0 45.3428 0.888885 45.3428 1.98538V13.0271C45.7499 12.5183 46.2589 12.1112 46.7678 11.7041C47.2767 11.297 47.8872 10.9917 48.4979 10.7881C49.1086 10.5846 49.8211 10.381 50.4315 10.1774C51.0423 10.0757 51.7548 9.97389 52.3652 9.97389C54.2992 9.97389 56.1311 10.381 57.9629 11.0934C59.693 11.8059 61.2198 12.8236 62.441 14.1467C63.7642 15.4697 64.7818 17.0981 65.4943 18.8283C66.4101 20.762 66.7154 22.7975 66.7154 24.833ZM59.5912 24.833C59.5912 23.8152 59.3876 22.7975 58.9808 21.7797C58.6754 20.8638 58.0647 20.0496 57.454 19.3372C56.8436 18.6248 56.0293 18.1159 55.215 17.7088C54.2992 17.3017 53.3831 17.0981 52.467 17.0981C51.5512 17.0981 50.5333 17.3017 49.7193 17.7088C48.905 18.1159 48.0907 18.7265 47.4803 19.4389C46.8696 20.1514 46.3607 20.9656 45.9535 21.8815C45.5463 22.7975 45.4446 23.7135 45.4446 24.7312C45.4446 25.749 45.6481 26.7667 45.9535 27.6827C46.2589 28.5986 46.7678 29.4129 47.4803 30.1253C48.0907 30.8377 48.905 31.3465 49.7193 31.7537C51.4494 32.5678 53.4849 32.5678 55.215 31.7537C56.0293 31.3465 56.8436 30.8377 57.454 30.1253C58.0647 29.4129 58.6754 28.5986 58.9808 27.6827C59.3876 26.8685 59.5912 25.8507 59.5912 24.833Z" fill="white"/>
<path d="M99.7925 24.833C99.7925 26.8685 99.3853 28.8022 98.6728 30.6341C97.9603 32.3643 96.9427 33.9928 95.6195 35.3158C94.2966 36.6387 92.7701 37.6566 91.1414 38.3691C87.5795 39.8956 83.6101 39.8956 80.0481 38.3691C76.5876 36.8423 73.84 34.0946 72.4149 30.6341C71.7024 28.8022 71.2956 26.7667 71.2956 24.833C71.2956 22.7975 71.7024 20.8638 72.4149 18.9301C73.1275 17.1999 74.145 15.5715 75.4683 14.2484C76.7912 12.9254 78.318 11.9076 80.0481 11.1952C81.7782 10.4828 83.7119 10.0757 85.5441 10.0757C87.4777 10.0757 89.3096 10.381 91.1414 11.0934C92.8715 11.8059 94.3984 12.8236 95.6195 14.0449C96.9427 15.3679 97.9603 16.9963 98.6728 18.7265C99.3853 20.6602 99.7925 22.6957 99.7925 24.833ZM92.5665 24.833C92.5665 23.8152 92.3629 22.6957 91.9558 21.678C91.6504 20.762 91.0397 19.9478 90.4289 19.2354C89.8185 18.523 89.0042 18.0141 88.1899 17.7088C86.4598 16.9963 84.4244 16.9963 82.6943 17.7088C81.88 18.0141 81.0657 18.6248 80.4553 19.2354C79.8445 19.9478 79.3356 20.762 78.9284 21.678C78.5216 22.6957 78.318 23.7135 78.4198 24.833C78.4198 25.8507 78.6234 26.8685 78.9284 27.7845C79.2338 28.7004 79.7427 29.5146 80.4553 30.227C81.0657 30.9395 81.88 31.4483 82.6943 31.8554C83.5083 32.2625 84.5262 32.4661 85.4423 32.4661C86.358 32.4661 87.2741 32.2625 88.1899 31.9572C89.0042 31.6519 89.8185 31.0412 90.4289 30.4306C91.1414 29.7182 91.6504 28.904 91.9558 27.988C92.4647 26.8685 92.5665 25.8507 92.5665 24.833Z" fill="white"/>
<path d="M104.271 11.9076C106.001 11.3988 107.731 11.0935 109.461 10.7881C111.7 10.4828 113.939 10.2793 116.178 10.2793C118.214 10.1775 120.249 10.5846 122.081 11.1952C123.506 11.7041 124.829 12.6201 125.847 13.8414C126.763 15.0627 127.475 16.3857 127.78 17.9124C128.188 19.6425 128.391 21.3727 128.391 23.1029V36.9943C128.391 38.0909 127.502 38.9797 126.406 38.9797H122.438C121.341 38.9797 120.453 38.0909 120.453 36.9943V24.1206C120.453 21.5762 120.147 19.7443 119.435 18.7265C118.723 17.7088 117.501 17.0981 115.669 17.0981C115.059 17.0981 114.448 17.0981 113.837 17.1999C113.227 17.3017 112.718 17.3017 112.209 17.3017V36.9943C112.209 38.0909 111.32 38.9797 110.223 38.9797H106.256C105.159 38.9797 104.271 38.0909 104.271 36.9943V11.9076Z" fill="white"/>
<path d="M157.301 36.5836C157.298 37.4617 156.719 38.2386 155.865 38.4421C154.612 38.7407 153.358 38.9618 152.105 39.183C149.866 39.4883 147.627 39.6919 145.388 39.6919C143.352 39.7937 141.317 39.3865 139.485 38.7758C138.06 38.2669 136.737 37.2493 135.719 36.1296C134.803 34.9085 134.091 33.4834 133.785 31.957C133.379 30.2268 133.175 28.4966 133.175 26.6647V12.875C133.175 11.7785 134.064 10.8896 135.16 10.8896H139.128C140.224 10.8896 141.113 11.7785 141.113 12.875V25.5452C141.011 27.4789 141.317 29.3109 142.131 31.1428C142.844 32.2623 144.065 32.873 145.897 32.873C146.507 32.873 147.118 32.873 147.728 32.7712C148.339 32.6695 148.95 32.6695 149.459 32.5677V12.875C149.459 11.7785 150.348 10.8896 151.444 10.8896H155.404C156.504 10.8896 157.394 11.7831 157.39 12.8825L157.301 36.5836Z" fill="white"/>
<path d="M185.093 38.0009C185.085 38.5436 184.643 38.9794 184.101 38.9794H163.479C162.718 38.9794 162.24 38.1579 162.616 37.4962L172.735 19.7008C173.112 19.0391 172.633 18.2175 171.872 18.2175H162.867C162.319 18.2175 161.875 17.773 161.875 17.2248V12.0859C161.875 11.5377 162.319 11.0933 162.867 11.0933H183.482C184.242 11.0933 184.72 11.9117 184.347 12.5734L174.311 30.3751C173.938 31.0368 174.417 31.8552 175.176 31.8552H184.174C184.728 31.8552 185.175 32.3084 185.166 32.862L185.093 38.0009Z" fill="white"/>
<path d="M3.47441 3.47441H24.8173V36.2332H15.8831C9.26579 36.2332 3.85831 31.0535 3.49398 24.5273C2.23167 24.1305 1.03664 23.4794 0 22.5707V23.8246C0 32.5964 7.11109 39.7076 15.8831 39.7076H26.3063C27.4028 39.7076 28.2917 38.8189 28.2917 37.7223V1.98538C28.2917 0.888885 27.4028 0 26.3063 0H1.98538C0.888885 0 0 0.888885 0 1.98538V4.96345H3.47441V3.47441Z" fill="white"/>
<path d="M12.3923 19.6956L14.1225 17.9653L15.8995 19.6956L14.1225 21.5193L12.3923 19.6956Z" fill="white"/>
<path d="M13.0937 14.6917C13.0937 15.6269 12.9534 16.5622 12.5793 17.4507C12.2519 18.2457 11.7843 18.9939 11.1764 19.6018C10.5685 20.2097 9.86702 20.6774 9.1188 21.0047C8.32384 21.332 7.43535 21.5191 6.54683 21.5191C4.81662 21.5191 3.13313 20.8644 1.91729 19.6018C1.30937 18.9939 0.841737 18.2457 0.514394 17.4507C0.140289 16.5154 0 15.6269 0 14.6917V4.77051H3.47441V9.26716C3.66146 9.03334 3.69428 8.84628 3.9281 8.65922C4.16192 8.47217 4.4425 8.33187 4.72309 8.23835C5.00364 8.14485 5.33099 8.05132 5.61158 7.95779C5.89216 7.91103 6.21951 7.86426 6.50006 7.86426C7.38859 7.86426 8.23031 8.05132 9.07207 8.37864C9.86702 8.70599 10.5685 9.17363 11.1296 9.78153C11.7376 10.3895 12.2052 11.1377 12.5325 11.9327C12.9534 12.8211 13.0937 13.7564 13.0937 14.6917ZM9.82026 14.6917C9.82026 14.224 9.72673 13.7564 9.53967 13.2888C9.39938 12.8679 9.1188 12.4938 8.83824 12.1665C8.55766 11.8391 8.18354 11.6053 7.80943 11.4182C7.38859 11.2312 6.96771 11.1377 6.54683 11.1377C6.12598 11.1377 5.65834 11.2312 5.28423 11.4182C4.91015 11.6053 4.53603 11.8859 4.25545 12.2132C3.97486 12.5406 3.74104 12.9147 3.55398 13.3355C3.36696 13.7564 3.3202 14.1773 3.3202 14.6449C3.3202 15.1126 3.41372 15.5802 3.55398 16.001C3.69428 16.4219 3.9281 16.796 4.25545 17.1234C4.53603 17.4507 4.91015 17.6845 5.28423 17.8716C6.07922 18.2457 7.01447 18.2457 7.80943 17.8716C8.18354 17.6845 8.55766 17.4507 8.83824 17.1234C9.1188 16.796 9.39938 16.4219 9.53967 16.001C9.72673 15.6269 9.82026 15.1593 9.82026 14.6917Z" fill="white"/>
<path d="M28.2917 14.6918C28.2917 15.627 28.1047 16.5156 27.7773 17.3573C27.45 18.1522 26.9824 18.9005 26.3744 19.5084C25.7665 20.1163 25.0651 20.5839 24.3169 20.9113C22.6801 21.6127 20.8564 21.6127 19.2197 20.9113C17.6297 20.2098 16.3671 18.9472 15.7124 17.3573C15.3851 16.5156 15.1981 15.5803 15.1981 14.6918C15.1981 13.7565 15.3851 12.868 15.7124 11.9795C16.0398 11.1845 16.5074 10.4363 17.1153 9.8284C17.7233 9.2205 18.4247 8.75286 19.2197 8.42551C20.0146 8.09819 20.9032 7.91113 21.7449 7.91113C22.6334 7.91113 23.4751 8.05143 24.3169 8.37874C25.1118 8.70609 25.8133 9.17373 26.3744 9.73487C26.9824 10.3428 27.45 11.091 27.7773 11.886C28.1047 12.7745 28.2917 13.7098 28.2917 14.6918ZM24.9716 14.6918C24.9716 14.2241 24.878 13.7098 24.691 13.2421C24.5507 12.8212 24.2701 12.4471 23.9895 12.1198C23.709 11.7925 23.3348 11.5586 22.9607 11.4184C22.1658 11.091 21.2305 11.091 20.4355 11.4184C20.0614 11.5586 19.6873 11.8392 19.4067 12.1198C19.1262 12.4471 18.8923 12.8212 18.7053 13.2421C18.5182 13.7098 18.4247 14.1774 18.4715 14.6918C18.4715 15.1594 18.565 15.627 18.7053 16.0479C18.8456 16.4688 19.0794 16.8429 19.4067 17.1702C19.6873 17.4976 20.0614 17.7314 20.4355 17.9185C20.8096 18.1055 21.2772 18.199 21.6981 18.199C22.119 18.199 22.5398 18.1055 22.9607 17.9652C23.3348 17.8249 23.709 17.5443 23.9895 17.2638C24.3169 16.9364 24.5507 16.5623 24.691 16.1414C24.9248 15.627 24.9716 15.1594 24.9716 14.6918Z" fill="white"/>
</g>
<defs>
<clipPath id="clip0_1_875">
<rect width="185.366" height="40" fill="white"/>
</clipPath>
</defs>
</svg>
