<svg width="266" height="225" viewBox="0 0 266 225" fill="none" xmlns="http://www.w3.org/2000/svg">
<path d="M171.422 198.68L171.886 218.376C171.912 219.48 172.829 220.354 173.933 220.328L185.192 220.063" stroke="#FFCB7C" stroke-width="3" stroke-linecap="round"/>
<path d="M160.575 198.933L161.039 218.628C161.065 219.733 160.191 220.649 159.087 220.675L147.828 220.94" stroke="#FFCB7C" stroke-width="3" stroke-linecap="round"/>
<path fill-rule="evenodd" clip-rule="evenodd" d="M79.1018 66.9176C79.6899 68.6525 79.4747 69.1346 78.5541 68.1477C77.7201 67.2536 77.2851 65.9681 77.5865 65.2928C77.8879 64.6175 78.5692 65.3482 79.1018 66.9176Z" fill="#501A2C"/>
<path d="M51.0173 57.3861C61.9407 59.1586 71.4742 60.5967 72.203 60.5816C72.9311 60.5651 76.8811 71.6642 80.9815 85.2462C86.9041 104.868 90.276 113.587 97.3986 127.693C102.328 137.458 106.645 145.572 106.991 145.723C124.036 170.124 93.4919 172.544 76.0889 170.704C47.0348 163.31 27.7388 143.55 21.1 114.394C16.3515 93.5377 16.4413 67.7405 21.2863 60.5654C25.3345 54.5716 30.3637 54.0342 51.0173 57.3861Z" fill="#501A2C"/>
<path d="M227.032 204.416L222.33 4.90758C222.278 2.69906 220.445 0.950884 218.237 1.00293L82.9132 4.19202C81.1047 4.23464 79.5671 5.43375 79.1915 7.20334C75.8946 22.7387 62.3433 96.701 89.5465 152.971C116.692 209.122 204.211 209.106 223.386 208.404C225.515 208.326 227.082 206.546 227.032 204.416Z" fill="#F14F5C"/>
<circle r="30.7433" transform="matrix(-0.999722 0.0235598 0.0235598 0.999722 163.866 57.1553)" fill="white"/>
<circle r="30.7433" transform="matrix(-0.999722 0.0235598 0.0235598 0.999722 108.423 58.462)" fill="white"/>
<rect width="16.5286" height="16.5286" rx="2" transform="matrix(-0.717908 0.696137 0.696137 0.717908 136.929 81.3062)" fill="#FFCB7C"/>
<path d="M97.907 122.972C116.235 125.337 159.748 129.83 184.815 124.155C209.882 118.479 174.764 173.028 154.072 201.012C144.021 197.662 123.566 190.252 122.147 187.414C120.728 184.576 105.199 142.876 97.907 122.972Z" fill="white"/>
<path fill-rule="evenodd" clip-rule="evenodd" d="M77.8111 52.4182C77.7533 53.865 77.468 54.1593 77.0839 53.1695C76.736 52.2729 76.7793 51.2011 77.179 50.7887C77.5788 50.3764 77.8629 51.1092 77.8111 52.4182ZM151.349 93.1473C151.349 93.4044 150.401 94.383 149.242 95.3207C147.332 96.8644 147.29 96.8209 148.786 94.8512C150.36 92.7822 151.349 92.1252 151.349 93.1473Z" fill="#253187"/>
<path d="M154.588 177.194C155.378 176.134 159.667 164.648 164.12 151.67C172.301 127.827 173.739 124.512 175.43 125.59C175.944 125.918 176.078 121.461 175.729 115.686C175.044 104.364 176.301 100.487 181.607 97.5586C187.011 94.5743 216.579 97.5586 222.973 97.5586C230.873 97.5586 220.688 97.1475 225.996 102.447C230.495 106.939 229.688 104.809 240.389 146.717C244.139 161.403 232.069 156.969 233.294 161.75C235.407 169.993 244.702 169.706 242.754 173.828C242.115 175.178 242.489 176.087 243.291 176.681C241.882 176.632 240.145 176.606 238.024 176.616L226.791 199.238L227.177 204.113C227.177 207.021 226.349 208.68 224.155 210.162C221.456 211.988 218.188 212.056 203.408 210.81C184.122 209.183 168.933 206.613 157.96 203.115C150.182 200.638 148.508 199.155 151.951 197.792C152.985 197.384 153.756 195.53 153.756 193.456V189.833L154.588 177.194Z" fill="#253187"/>
<path d="M89.2128 121.107C96.2632 122.346 102.255 123.59 102.527 123.871C102.8 124.152 106.802 135.272 111.421 148.582C123.037 182.055 122.423 180.764 126.068 179.346L124.511 188.596C123.849 187.798 117.936 184.679 113.15 181.05C103.157 173.473 96.0448 164.687 89.63 154.306C87.1643 150.316 86.6294 146.634 86.0828 146.62C83.3238 138.677 77.9241 122.453 78.397 121.107C78.87 119.761 85.8046 120.546 89.2128 121.107Z" fill="#253187"/>
<path fill-rule="evenodd" clip-rule="evenodd" d="M165.277 39.4572C180.327 47.0051 177.847 69.5618 161.589 73.0105C152.506 74.937 142.623 68.9146 140.417 60.1077C138.839 53.8064 139.718 51.8055 143.079 54.0441C146.718 56.468 151.945 56.0662 154.727 53.1498C157.568 50.1717 157.68 43.8474 154.955 40.1479C153.068 37.5827 153.123 37.5102 157.02 37.4184C159.222 37.3665 162.938 38.2835 165.277 39.4572ZM109.834 40.7638C124.884 48.3117 122.404 70.8684 106.146 74.3171C97.0625 76.2436 87.1801 70.2212 84.9743 61.4143C83.3955 55.113 84.2745 53.1121 87.6364 55.3507C91.2752 57.7746 96.502 57.3728 99.2841 54.4564C102.125 51.4783 102.237 45.154 99.512 41.4545C97.6245 38.8892 97.6795 38.8168 101.577 38.7249C103.779 38.673 107.495 39.5901 109.834 40.7638ZM227.056 86.9594C232.115 88.6298 235.45 91.1259 239.054 95.9371C241.346 98.9969 264.98 177.183 265.096 182.086C265.128 183.466 263.687 186.132 261.894 188.012C259.08 190.962 257.074 191.663 247.241 193.13C233.206 195.222 224.886 195.263 214.834 193.284C193.323 189.051 178.779 174.578 171.53 150.194C168.087 138.61 164.762 120.296 164.555 111.776C164.287 100.704 165.634 99.7295 191.822 92.0443C215.327 85.1471 219.673 84.5201 227.056 86.9594Z" fill="#501A2C"/>
<path d="M142.585 128.261C139.514 125.027 134.391 124.928 131.198 128.042L124.149 134.917C121.277 137.719 121.144 142.294 123.85 145.258C126.403 148.054 126.448 152.322 123.955 155.172L122.467 156.871C121.23 158.285 120.53 160.089 120.49 161.967L119.96 186.511C119.913 188.712 120.774 190.834 122.341 192.38L130.424 200.35C133.479 203.363 138.367 203.429 141.502 200.5L150.247 192.33C151.866 190.817 152.785 188.701 152.785 186.484V162.254C152.785 160.203 151.998 158.231 150.585 156.744L149.107 155.188C146.42 152.36 146.377 147.935 149.007 145.054C151.637 142.174 151.594 137.751 148.909 134.922L142.585 128.261Z" fill="#DE5B60"/>
<path fill-rule="evenodd" clip-rule="evenodd" d="M147.354 133.909C152.835 138.502 153.079 143.418 147.799 142.838C145.194 142.552 145.017 142.8 146.191 145.097C147.418 147.5 147.365 147.54 145.418 145.688C143.558 143.917 142.708 143.885 137.683 145.396C134.578 146.33 131.707 147.628 131.302 148.283C130.864 148.994 129.418 148.671 127.722 147.484C125.009 145.585 124.983 145.433 127.17 144.196C128.431 143.481 130.849 142.786 132.545 142.65C137.693 142.238 149.742 138.379 149.104 137.348C148.365 136.151 143.779 136.605 138.275 138.42C135.984 139.175 132.337 140.017 130.169 140.291C128.001 140.565 125.512 141.382 124.639 142.106C123.477 143.07 122.639 142.927 121.513 141.572C119.468 139.109 121.888 136.06 125.203 136.927C126.514 137.269 128.561 137.125 129.75 136.606C130.939 136.087 132.284 135.736 132.739 135.825C133.193 135.916 136.224 135.183 139.475 134.198C142.726 133.212 145.417 132.4 145.457 132.393C145.496 132.386 146.35 133.068 147.354 133.909ZM143.96 149.292C143.468 151.171 141.915 151.954 137.466 152.565C134.251 153.007 130.168 154.122 128.394 155.041L125.168 156.713L127.29 153.904C128.456 152.358 131.902 150.401 134.948 149.555C137.993 148.709 141.413 147.747 142.546 147.419C144.118 146.964 144.453 147.408 143.96 149.292ZM147.103 154.875C148.926 157.07 147.125 158.028 138.036 159.703C127.021 161.732 121.501 163.514 121.501 165.04C121.501 165.922 121.695 166.644 121.932 166.644C123.947 166.644 148.139 160.015 149.172 159.181C150.847 157.826 152.121 159.024 152.121 161.954C152.121 163.446 151.2 164.216 149.365 164.255C147.849 164.287 140.684 165.827 133.443 167.674L120.276 171.034V165.741C120.276 160.344 120.709 159.854 126.4 158.812C128.084 158.503 132.174 157.411 135.49 156.386C138.804 155.36 141.974 154.803 142.532 155.148C143.091 155.492 143.547 155.191 143.547 154.479C143.547 152.657 145.435 152.867 147.103 154.875Z" fill="#EB6D72"/>
<path d="M123.953 173.723C127.319 172.454 149.662 166.644 151.174 166.644C151.695 166.644 152.121 167.383 152.121 168.286C152.121 170.086 148.11 171.442 132.831 174.802C127.274 176.024 122.717 177.579 122.708 178.259C122.697 178.938 122.154 178.667 121.501 177.658C120.55 176.187 120.311 176.395 120.295 178.707C120.284 180.529 120.845 181.373 121.82 180.999C122.668 180.673 129.696 178.853 137.436 176.955C145.176 175.056 152.165 172.648 152.967 171.603C155.849 176.019 132.782 181.264 120.889 183.335C122.122 184.775 134.042 182.516 146.916 178.401C150.911 177.124 152.121 177.084 152.121 178.228C152.121 179.047 149.779 180.458 146.916 181.362C140.647 183.342 141.585 183.107 135.49 184.227C123.091 186.504 117.348 190.468 126.323 190.552C128.963 190.578 130.854 190.164 130.525 189.635C130.198 189.105 130.964 188.671 132.229 188.671C133.493 188.671 138.485 187.632 143.325 186.363L152.785 182.623V187.514C153.23 189.635 152.07 190.552 150.562 191.959C143.894 198.184 137.447 205.297 136.113 204.408C131.223 203.963 129.889 198.851 123.22 193.516C120.997 191.515 120.458 190.5 119.886 189.07C119.477 182.574 119.75 178.178 120.276 174.802L123.953 173.723Z" fill="#EB6D72"/>
<path d="M134.476 126.453C134.041 126.757 133.576 127.393 133.295 128.124C132.718 129.628 133.031 129.747 134.921 128.736C138.373 126.891 141.8 127.21 143.704 129.555C144.758 130.852 144.829 131.292 143.895 130.732C143.077 130.242 139.219 130.789 135.322 131.95C124.513 135.171 124.399 135.088 130.768 128.626C131.276 128.186 132.678 127.185 134.476 126.453Z" fill="#EB6D72"/>
</svg>
