<svg width="126" height="100" viewBox="0 0 126 100" fill="none" xmlns="http://www.w3.org/2000/svg">
<path d="M10.6896 14.325C19.5257 4.81875 32.8964 0 50.4238 0H56.7218V17.6187L51.6582 18.625C43.0299 20.3375 37.0279 23.7062 33.8159 28.65C32.1399 31.3133 31.1894 34.3628 31.0574 37.5H50.4238C52.0941 37.5 53.696 38.1585 54.8771 39.3306C56.0582 40.5027 56.7218 42.0924 56.7218 43.75V87.5C56.7218 94.3938 51.0725 100 44.1257 100H6.33762C4.66728 100 3.06536 99.3415 1.88425 98.1694C0.70314 96.9973 0.0396009 95.4076 0.0396009 93.75V62.5L0.0584951 44.2563C0.00181291 43.5625 -1.19481 27.125 10.6896 14.325ZM113.404 100H75.6158C73.9455 100 72.3436 99.3415 71.1625 98.1694C69.9814 96.9973 69.3178 95.4076 69.3178 93.75V62.5L69.3367 44.2563C69.28 43.5625 68.0834 27.125 79.9678 14.325C88.8039 4.81875 102.175 0 119.702 0H126V17.6187L120.936 18.625C112.308 20.3375 106.306 23.7062 103.094 28.65C101.418 31.3133 100.468 34.3628 100.336 37.5H119.702C121.372 37.5 122.974 38.1585 124.155 39.3306C125.336 40.5027 126 42.0924 126 43.75V87.5C126 94.3938 120.351 100 113.404 100Z" fill="#F1747E"/>
</svg>
