<svg width="27" height="28" viewBox="0 0 27 28" fill="none" xmlns="http://www.w3.org/2000/svg">
<path fill-rule="evenodd" clip-rule="evenodd" d="M0.651625 0.197739C0.498959 0.306435 0.289867 0.527478 0.187048 0.68887L0 0.982261V14V27.0177L0.187048 27.3111C0.289867 27.4725 0.498959 27.6936 0.651625 27.8023L0.929153 28H9.7061H18.483L18.7606 27.8023C18.9132 27.6936 19.1223 27.4725 19.2252 27.3111C19.4063 27.027 19.4122 26.9543 19.4122 25.0103V23.0027L18.4367 24.0313L17.4612 25.0598L15.6195 25.62C13.4646 26.2755 13.3229 26.2797 12.7805 25.7064C12.2396 25.1346 12.2438 24.9842 12.8635 22.7037L13.3931 20.7553L16.4027 17.5729L19.4122 14.3904V9.55183V4.71322L17.7054 4.6827C15.8006 4.64861 15.6166 4.598 15.238 4.00417C15.0601 3.72504 15.0527 3.63904 15.0527 1.8567V0H7.99092H0.929153L0.651625 0.197739ZM15.8752 1.82609C15.8752 3.89087 15.7301 3.73913 17.7047 3.73913H19.205L17.5615 2C16.6575 1.04348 15.9083 0.26087 15.8965 0.26087C15.8849 0.26087 15.8752 0.965217 15.8752 1.82609ZM13.1138 3.87574C13.2742 4.04539 13.2788 4.26296 13.1263 4.48339C13.0145 4.64522 12.8635 4.6533 9.48656 4.67878C7.13629 4.69661 5.86248 4.67426 5.65997 4.61165C5.29682 4.49948 5.19449 4.256 5.38277 3.95226L5.51487 3.73913H9.24975C12.5353 3.73913 13.0001 3.75557 13.1138 3.87574ZM13.0926 6.66565C13.2972 6.8613 13.282 7.1787 13.0602 7.34287C12.8997 7.46174 12.2754 7.47826 7.93762 7.47826C3.59981 7.47826 2.9755 7.46174 2.81502 7.34287C2.59852 7.18261 2.5787 6.90217 2.7683 6.68078C2.89735 6.53 3.16559 6.52174 7.9233 6.52174C12.478 6.52174 12.9562 6.53504 13.0926 6.66565ZM16.6296 6.66565C16.8342 6.8613 16.8189 7.1787 16.5972 7.34287C16.4574 7.44643 16.1911 7.47826 15.464 7.47826C14.4185 7.47826 14.1479 7.38017 14.1479 7.0013C14.1479 6.58522 14.3192 6.52174 15.4428 6.52174C16.2918 6.52174 16.5064 6.54774 16.6296 6.66565ZM16.5972 9.43974C16.8137 9.6 16.8335 9.88043 16.6439 10.1018C16.5141 10.2535 16.1914 10.2609 9.72041 10.2609C3.52011 10.2609 2.91997 10.2484 2.78261 10.117C2.57804 9.9213 2.59326 9.60391 2.81502 9.43974C2.97681 9.31991 3.76769 9.30435 9.7061 9.30435C15.6445 9.30435 16.4354 9.31991 16.5972 9.43974ZM24.7262 11.2207C24.5953 11.2622 24.3884 11.397 24.2665 11.5204L24.045 11.7448L24.9873 12.7317C25.5055 13.2745 25.9489 13.733 25.9725 13.7506C25.9962 13.7683 26.1295 13.6339 26.2687 13.4521C26.4846 13.1701 26.5221 13.0482 26.5245 12.62C26.5267 12.2253 26.4834 12.0497 26.3216 11.797C25.9738 11.2534 25.343 11.0257 24.7262 11.2207ZM5.16562 12.2783C5.21991 12.3357 5.26433 12.4843 5.26433 12.6087C5.26433 13.004 5.14761 13.0435 3.97876 13.0435C3.09929 13.0435 2.86593 13.0173 2.76139 12.9069C2.61119 12.748 2.59786 12.578 2.7173 12.3421C2.79519 12.1883 2.89949 12.1739 3.93467 12.1739C4.70565 12.1739 5.09842 12.2072 5.16562 12.2783ZM16.6949 12.3421C16.8143 12.578 16.801 12.748 16.6508 12.9069C16.5361 13.0281 15.953 13.0435 11.4746 13.0435C6.99612 13.0435 6.4131 13.0281 6.29835 12.9069C6.14816 12.748 6.13483 12.578 6.25427 12.3421C6.3371 12.1786 6.48178 12.1739 11.4746 12.1739C16.4674 12.1739 16.6121 12.1786 16.6949 12.3421ZM22.4968 12.5345C22.4063 12.5865 21.2866 13.7296 20.0087 15.0746L17.6852 17.5203L19.1032 19.0212L20.5212 20.5221L22.8099 18.1089C24.0687 16.7816 25.1517 15.59 25.2166 15.4609C25.3921 15.1117 25.3652 14.5883 25.1567 14.2943C24.8661 13.8843 24.1701 13.1349 23.7438 12.7729C23.4221 12.4997 23.28 12.4353 23.0035 12.4374C22.8153 12.4389 22.5872 12.4826 22.4968 12.5345ZM16.6508 15.0931C16.8113 15.2629 16.8157 15.4803 16.6633 15.7008C16.5493 15.8655 16.3824 15.8696 9.7061 15.8696C3.02978 15.8696 2.86289 15.8655 2.74888 15.7008C2.59646 15.4803 2.60091 15.2629 2.76139 15.0931C2.87687 14.9711 3.61996 14.9565 9.7061 14.9565C15.7922 14.9565 16.5353 14.9711 16.6508 15.0931ZM25.3676 16.744C25.1458 17.0097 24.4185 17.8232 23.7512 18.5518C22.5159 19.9006 22.3978 20.1003 22.6671 20.3851C22.9446 20.6784 23.1271 20.5534 24.402 19.1957C25.0869 18.4663 25.7041 17.7493 25.7734 17.6023C25.9515 17.2251 25.9997 16.2609 25.8405 16.2609C25.8021 16.2609 25.5892 16.4783 25.3676 16.744ZM9.55566 17.883C9.76022 18.0787 9.74501 18.3961 9.52325 18.5603C9.36548 18.6771 8.90633 18.6957 6.16913 18.6957C3.43193 18.6957 2.97278 18.6771 2.81502 18.5603C2.59852 18.4 2.5787 18.1196 2.7683 17.8982C2.89579 17.7492 3.11039 17.7391 6.15482 17.7391C9.06394 17.7391 9.42109 17.7543 9.55566 17.883ZM13.0926 17.883C13.2972 18.0787 13.282 18.3961 13.0602 18.5603C12.9204 18.6638 12.6541 18.6957 11.927 18.6957C10.8815 18.6957 10.6109 18.5976 10.6109 18.2187C10.6109 17.8026 10.7822 17.7391 11.9058 17.7391C12.7548 17.7391 12.9694 17.7651 13.0926 17.883ZM15.7714 19.5444L14.5592 20.8281L15.979 22.3271L17.3988 23.8263L18.6308 22.5217L19.8626 21.2173L18.4662 19.739C17.6982 18.9261 17.0503 18.2609 17.0267 18.2609C17.003 18.2609 16.4381 18.8385 15.7714 19.5444ZM13.9133 22.226C13.3025 24.4252 13.2161 24.8049 13.2954 24.9378C13.4901 25.2641 13.6029 25.2571 15.0227 24.831C15.7857 24.6021 16.4555 24.3887 16.5112 24.357C16.5765 24.3197 16.1607 23.8223 15.3463 22.9625L14.08 21.6259L13.9133 22.226ZM10.5305 23.6179C11.2663 24.0409 11.6868 24.894 11.2744 25.1274C11.0061 25.2792 10.8765 25.2313 10.5525 24.8608C10.3811 24.6646 10.1408 24.4494 10.0187 24.3825C9.55919 24.1309 8.76206 24.2713 8.0851 24.723C7.2725 25.2653 6.19883 25.3998 5.49431 25.0476C4.98614 24.7936 4.44177 24.1717 4.44177 23.8454C4.44177 23.283 4.94106 23.2187 5.33054 23.731C5.70217 24.22 6.19241 24.4018 6.79419 24.2741C7.0472 24.2203 7.4635 24.045 7.71931 23.8845C8.49925 23.395 8.8036 23.3045 9.54982 23.3403C9.96117 23.3599 10.1986 23.4271 10.5305 23.6179Z" fill="#F14F5C"/>
<path fill-rule="evenodd" clip-rule="evenodd" d="M24.7557 11.2688C24.6247 11.3103 24.4179 11.4452 24.296 11.5685L24.0745 11.7929L25.0168 12.7799C25.535 13.3226 25.9784 13.7812 26.002 13.7987C26.0257 13.8164 26.159 13.682 26.2981 13.5002C26.5141 13.2182 26.5516 13.0963 26.554 12.6681C26.5562 12.2734 26.5129 12.0979 26.3511 11.8451C26.0033 11.3015 25.3725 11.0738 24.7557 11.2688ZM22.5263 12.5826C22.4358 12.6346 21.3161 13.7777 20.0382 15.1227L17.7147 17.5684L19.1327 19.0693L20.5507 20.5702L22.8394 18.157C24.0982 16.8297 25.1812 15.6381 25.2461 15.509C25.4216 15.1598 25.3947 14.6365 25.1862 14.3425C24.8956 13.9325 24.1996 13.183 23.7732 12.821C23.4515 12.5478 23.3095 12.4834 23.0329 12.4855C22.8447 12.487 22.6167 12.5307 22.5263 12.5826ZM25.397 16.7921C25.1753 17.0578 24.448 17.8713 23.7806 18.5999C22.5453 19.9487 22.4273 20.1485 22.6966 20.4332C22.9741 20.7266 23.1566 20.6015 24.4315 19.2438C25.1164 18.5145 25.7335 17.7974 25.8029 17.6504C25.981 17.2732 26.0292 16.309 25.87 16.309C25.8316 16.309 25.6187 16.5264 25.397 16.7921ZM15.8009 19.5926L14.5887 20.8762L16.0085 22.3752L17.4283 23.8744L18.6603 22.5699L19.8921 21.2654L18.4957 19.7872C17.7277 18.9742 17.0798 18.309 17.0562 18.309C17.0325 18.309 16.4676 18.8866 15.8009 19.5926ZM13.9428 22.2741C13.332 24.4733 13.2456 24.853 13.3249 24.9859C13.5196 25.3122 13.6323 25.3052 15.0521 24.8792C15.8151 24.6502 16.485 24.4368 16.5407 24.4051C16.6059 24.3679 16.1902 23.8704 15.3758 23.0106L14.1095 21.674L13.9428 22.2741Z" fill="#F1747E"/>
</svg>
