<svg width="29" height="28" viewBox="0 0 29 28" fill="none" xmlns="http://www.w3.org/2000/svg">
<path fill-rule="evenodd" clip-rule="evenodd" d="M22.7136 0.181151C22.475 0.419691 22.4669 0.864699 22.6973 1.07317C22.9532 1.30484 23.4346 1.27639 23.6149 1.01895C23.8244 0.71999 23.8001 0.495386 23.5292 0.224583C23.2453 -0.0594892 22.9689 -0.0741891 22.7136 0.181151ZM9.50814 1.42731C9.33948 1.55999 9.25452 1.71806 9.25452 1.89933C9.25452 2.24029 9.66688 2.59824 9.96155 2.51319C10.2165 2.4395 10.4954 2.11887 10.4954 1.89933C10.4954 1.67978 10.2165 1.35915 9.96155 1.28546C9.83402 1.24871 9.67003 1.29997 9.50814 1.42731ZM0.954638 9.64286C0.364826 9.87806 0 10.45 0 11.1395C0 12.2832 1.17905 13.0123 2.21282 12.5078C3.38605 11.9353 3.4123 10.2925 2.25721 9.73335C1.8206 9.52202 1.34123 9.4887 0.954638 9.64286ZM25.988 3.04058C25.4005 3.39882 25.2072 4.00476 25.4745 4.65003C25.8513 5.55971 27.3464 5.54033 27.7306 4.62073C27.913 4.1846 27.904 3.92 27.6937 3.52797C27.3619 2.90933 26.5731 2.68387 25.988 3.04058ZM25.1531 7.83878C25.0714 7.95542 25.0045 8.12915 25.0045 8.22489C25.0045 8.45932 25.4261 8.86749 25.6684 8.86749C26.1527 8.86749 26.4332 8.11254 26.0708 7.78456C25.8149 7.55289 25.3334 7.58134 25.1531 7.83878ZM1.72515 17.0417C1.4763 17.3579 1.47429 17.5963 1.71818 17.8402C2.12892 18.2509 2.76817 17.9735 2.76817 17.3847C2.76817 16.8177 2.07947 16.5913 1.72515 17.0417ZM21.8545 18.8499C19.7358 19.8112 19.0561 19.99 17.559 19.9803C16.297 19.9721 15.7698 19.8548 14.197 19.2328C13.6025 18.9977 12.9023 18.7541 12.641 18.6915C11.9299 18.5213 10.3654 18.5436 9.63634 18.7343C8.24557 19.0981 6.90596 19.9341 6.04898 20.973C5.56894 21.5551 4.57726 23.3801 4.57726 23.6815C4.57726 23.7818 8.68857 25.7629 8.89666 25.7629C8.9231 25.7629 9.03803 25.5458 9.15219 25.2806C9.56704 24.3161 10.3608 23.6926 11.2969 23.596C11.6976 23.5546 11.9676 23.6079 12.7702 23.8867C14.4426 24.4679 15.7112 24.5398 17.225 24.1395C18.1242 23.9017 24.5772 20.9823 25.0254 20.6106C25.8446 19.9311 25.6827 18.673 24.7115 18.1708C24.176 17.8939 23.7255 18.001 21.8545 18.8499ZM27.1045 23.5674C26.9995 23.6724 26.9136 23.8657 26.9136 23.997C26.9136 24.1282 26.9995 24.3215 27.1045 24.4265C27.2095 24.5315 27.4028 24.6174 27.534 24.6174C27.6653 24.6174 27.8586 24.5315 27.9636 24.4265C28.0686 24.3215 28.1545 24.1282 28.1545 23.997C28.1545 23.8657 28.0686 23.6724 27.9636 23.5674C27.8586 23.4624 27.6653 23.3765 27.534 23.3765C27.4028 23.3765 27.2095 23.4624 27.1045 23.5674ZM22.5228 24.4383C21.7238 24.7569 21.3494 25.7228 21.6998 26.5613C21.952 27.1652 22.7506 27.567 23.441 27.4374C23.9939 27.3338 24.585 26.6992 24.6726 26.1155C24.8464 24.9564 23.621 24.0004 22.5228 24.4383ZM3.86126 25.232C3.66071 25.682 3.51858 26.0723 3.5455 26.0993C3.66711 26.221 7.86194 28.0465 7.91091 27.9991C7.96856 27.9432 8.6692 26.3928 8.64696 26.3704C8.58968 26.3132 4.58519 24.5037 4.42874 24.4644C4.25167 24.4199 4.1796 24.5175 3.86126 25.232ZM17.0029 26.7474C16.7441 27.0231 16.7379 27.3281 16.9863 27.5765C17.3971 27.9873 18.0363 27.7099 18.0363 27.121C18.0363 26.5716 17.3883 26.3373 17.0029 26.7474Z" fill="#F1747E"/>
<path fill-rule="evenodd" clip-rule="evenodd" d="M11.1683 2.13587L7.33653 4.2697L11.2127 4.30577C13.3446 4.32557 16.8001 4.32557 18.8916 4.30577L22.6943 4.2697L18.8976 2.13383C16.8094 0.959038 15.0782 -0.00108397 15.0505 9.18489e-07C15.0227 0.0010858 13.2757 0.962157 11.1683 2.13587ZM8.56604 10.6434V16H10.434H12.3019V14.3262C12.3019 12.8357 12.3372 12.587 12.6239 12.0547C12.8008 11.726 13.2109 11.274 13.5351 11.0502C14.0586 10.6888 14.2364 10.6434 15.1258 10.6434C16.4119 10.6434 17.0744 11.0274 17.6119 12.0848C17.9419 12.734 17.9748 12.9437 17.9748 14.3993V16H19.7044H21.434V10.6434V5.28677H15H8.56604V10.6434ZM14.4396 11.58C14.2076 11.679 13.8496 11.956 13.644 12.1953C13.2821 12.6171 13.2704 12.6827 13.2704 14.3153V16H15.1493H17.0283L16.9826 14.2475C16.9397 12.5974 16.9169 12.4737 16.5912 12.1282C16.222 11.7364 15.5132 11.3859 15.1082 11.3945C14.9726 11.3975 14.6718 11.4809 14.4396 11.58ZM4 13.7585V16H5.87138H7.74277L7.70472 13.7963L7.66667 11.5927L5.83333 11.5548L4 11.517V13.7585ZM22.3564 11.6153C22.3057 11.6649 22.2642 12.6718 22.2642 13.8529V16H24.1321H26V13.7624V11.5249H24.2244C23.2476 11.5249 22.4071 11.5655 22.3564 11.6153Z" fill="#F14F5C"/>
</svg>
