<svg width="39" height="29" viewBox="0 0 39 29" fill="none" xmlns="http://www.w3.org/2000/svg">
<path fill-rule="evenodd" clip-rule="evenodd" d="M13.7421 3.72428C10.6112 5.54548 8.04869 7.06751 8.04767 7.10649C8.04665 7.14547 8.42832 7.4417 8.89577 7.76489L9.74569 8.35247V18.3747V28.3969H11.2755H12.8054V21.0876V13.7783H13.9953H15.1851V21.0876V28.3969H16.715H18.2448V21.0876V13.7783H19.4914H20.7379V21.0876V28.3969H22.2678H23.7976V21.0876V13.7783H24.9875H26.1774V21.0876V28.3969H27.7072H29.2371V18.3713V8.34578L30.087 7.77226C30.5544 7.45677 30.9369 7.16009 30.9369 7.11272C30.9369 7.06547 30.3123 6.66839 29.5487 6.2304C28.7851 5.79229 26.2561 4.32478 23.9286 2.9691C21.601 1.61343 19.6377 0.483728 19.5657 0.45857C19.4936 0.433413 16.8731 1.90297 13.7421 3.72428ZM20.2086 5.43374C21.3729 5.92024 21.6567 7.44668 20.7513 8.35224C20.0162 9.08724 18.9666 9.08724 18.2315 8.35224C16.8301 6.95078 18.3764 4.66825 20.2086 5.43374ZM4.81618 10.0433C3.19568 10.2815 1.44916 10.5363 0.934906 10.6093L0 10.7421V11.9768V13.2117H0.623271H1.24654V20.8043V28.3969H4.87284H8.49915V18.9911V9.58541L8.13085 9.59776C7.92834 9.60467 6.43669 9.80514 4.81618 10.0433ZM30.4836 18.9911V28.3969H34.1099H37.7362V20.8043V13.2117H38.3595H38.9828V11.9652C38.9828 11.2796 38.9405 10.7186 38.8888 10.7186C38.8371 10.7186 37.0181 10.4637 34.8465 10.152C32.6749 9.84038 30.8049 9.58541 30.6909 9.58541C30.4918 9.58541 30.4836 9.95359 30.4836 18.9911ZM6.09491 14.9965L6.06272 16.2147H4.87284H3.68296L3.65078 14.9965L3.6186 13.7783H4.87284H6.12709L6.09491 14.9965ZM35.332 14.9965L35.2998 16.2147H34.1099H32.92L32.8878 14.9965L32.8557 13.7783H34.1099H35.3642L35.332 14.9965ZM6.09491 19.8694L6.06272 21.0876H4.87284H3.68296L3.65078 19.8694L3.6186 18.6512H4.87284H6.12709L6.09491 19.8694ZM35.332 19.8694L35.2998 21.0876H34.1099H32.92L32.8878 19.8694L32.8557 18.6512H34.1099H35.3642L35.332 19.8694ZM6.09491 24.7422L6.06272 25.9604H4.87284H3.68296L3.65078 24.7422L3.6186 23.524H4.87284H6.12709L6.09491 24.7422ZM35.332 24.7422L35.2998 25.9604H34.1099H32.92L32.8878 24.7422L32.8557 23.524H34.1099H35.3642L35.332 24.7422Z" fill="#F1747E"/>
<path fill-rule="evenodd" clip-rule="evenodd" d="M13.7403 3.78568C10.6095 5.60688 8.04692 7.12891 8.0459 7.16789C8.04488 7.20687 8.42655 7.5031 8.894 7.82629L9.74392 8.41387V18.4361V28.4583H11.2738H12.8036V21.149V13.8397H13.9935H15.1834V21.149V28.4583H16.7132H18.2431V21.149V13.8397H19.4896H20.7361V21.149V28.4583H22.266H23.7958V21.149V13.8397H24.9857H26.1756V21.149V28.4583H27.7054H29.2353V18.4327V8.40718L30.0852 7.83366C30.5527 7.51817 30.9351 7.22149 30.9351 7.17412C30.9351 7.12687 30.3105 6.72979 29.5469 6.2918C28.7834 5.8537 26.2544 4.38618 23.9268 3.03051C21.5992 1.67484 19.6359 0.545129 19.5639 0.519972C19.4919 0.494814 16.8713 1.96437 13.7403 3.78568ZM20.2068 5.49515C21.3711 5.98164 21.655 7.50808 20.7495 8.41364C20.0144 9.14865 18.9648 9.14865 18.2297 8.41364C16.8284 7.01219 18.3746 4.72966 20.2068 5.49515Z" fill="#F14F5C"/>
</svg>
