<svg width="27" height="28" viewBox="0 0 27 28" fill="none" xmlns="http://www.w3.org/2000/svg">
<path fill-rule="evenodd" clip-rule="evenodd" d="M1.35366 6.03635C0.949521 6.15879 0.612305 6.42122 0.380846 6.79353L0.163385 7.14321L0.135867 12.9085C0.113623 17.5794 0.133183 18.7442 0.238844 19.0449C0.31996 19.2757 1.37322 20.6208 3.02297 22.6004L5.67659 25.7848V26.8924V28L8.96055 27.9748L12.2445 27.9496L12.2713 25.8881C12.3011 23.5948 12.2089 22.7334 11.863 22.0697C11.7345 21.8231 10.6675 20.176 9.49193 18.4093C7.09171 14.8023 7.02086 14.727 6.09099 14.7931C5.27801 14.8509 4.53704 15.6103 4.52726 16.3958C4.52448 16.612 4.50214 16.5979 4.29896 16.252C4.08754 15.892 4.05485 15.6097 3.76528 11.6497C3.5623 8.87474 3.40764 7.29231 3.3133 7.02605C3.03591 6.24327 2.14891 5.79531 1.35366 6.03635ZM24.3405 6.08017C23.8474 6.26187 23.5445 6.56274 23.3765 7.03784C23.2879 7.28847 23.1258 8.95893 22.929 11.6497C22.6452 15.531 22.6034 15.8978 22.4064 16.2354L22.1923 16.6022L22.1242 16.2387C21.9626 15.3776 21.4077 14.8503 20.6033 14.7931C19.6739 14.727 19.6028 14.8026 17.1992 18.4093C16.0219 20.176 14.9218 21.9018 14.7546 22.2446L14.4506 22.8678L14.4502 25.4087L14.4498 27.9496L17.7337 27.9748L21.0177 28V26.8924V25.7848L23.6713 22.6004C25.3211 20.6208 26.3743 19.2757 26.4554 19.0449C26.5611 18.7442 26.5807 17.5794 26.5584 12.9085L26.5309 7.14321L26.3104 6.78845C25.893 6.11728 25.0565 5.8165 24.3405 6.08017Z" fill="#F1747E"/>
<path d="M13.3471 0C12.0386 0 10.7595 0.388013 9.67148 1.11497C8.58351 1.84193 7.73554 2.87518 7.23481 4.08407C6.73407 5.29296 6.60305 6.62319 6.85833 7.90654C7.1136 9.18988 7.7437 10.3687 8.66894 11.294C9.59418 12.2192 10.773 12.8493 12.0564 13.1046C13.3397 13.3598 14.6699 13.2288 15.8788 12.7281C17.0877 12.2274 18.121 11.3794 18.8479 10.2914C19.5749 9.20345 19.9629 7.92434 19.9629 6.61585C19.9629 4.86122 19.2659 3.17845 18.0252 1.93774C16.7845 0.697025 15.1017 0 13.3471 0ZM13.3471 11.9085C12.3003 11.9085 11.277 11.5981 10.4066 11.0165C9.53622 10.435 8.85785 9.60838 8.45726 8.64127C8.05666 7.67416 7.95185 6.60998 8.15607 5.5833C8.36029 4.55662 8.86437 3.61355 9.60456 2.87336C10.3448 2.13316 11.2878 1.62909 12.3145 1.42487C13.3412 1.22065 14.4054 1.32546 15.3725 1.72605C16.3396 2.12664 17.1662 2.80502 17.7478 3.67539C18.3293 4.54577 18.6397 5.56906 18.6397 6.61585C18.6397 8.01955 18.0821 9.36577 17.0895 10.3583C16.097 11.3509 14.7508 11.9085 13.3471 11.9085Z" fill="#F14F5C"/>
<path d="M15.9934 5.29268C15.9934 4.76629 15.7843 4.26146 15.4121 3.88925C15.0399 3.51703 14.535 3.30792 14.0086 3.30792H10.7007V9.92377H12.0239V7.27743H12.9898L14.7562 9.92377H16.344L14.5247 7.19804C14.9443 7.08505 15.3153 6.83745 15.5806 6.49325C15.8459 6.14904 15.991 5.72727 15.9934 5.29268ZM14.0086 5.95426H12.0239V4.63109H14.0086C14.1841 4.63109 14.3524 4.7008 14.4764 4.82487C14.6005 4.94894 14.6702 5.11722 14.6702 5.29268C14.6702 5.46814 14.6005 5.63642 14.4764 5.76049C14.3524 5.88456 14.1841 5.95426 14.0086 5.95426Z" fill="#F14F5C"/>
</svg>
