<svg width="35" height="29" viewBox="0 0 35 29" fill="none" xmlns="http://www.w3.org/2000/svg">
<path fill-rule="evenodd" clip-rule="evenodd" d="M6.23332 1.14139C5.59064 1.78407 6.03122 2.83899 6.9423 2.83899C7.29212 2.83899 7.41479 2.78163 7.69065 2.48917L8.02058 2.13925L10.2373 2.16609L12.454 2.19283L12.482 3.36089C12.5136 4.67616 12.5545 4.62188 11.7191 4.37376C10.8585 4.11818 10.8825 4.03398 10.9407 7.11018C10.9948 9.96142 11.1333 10.8917 11.744 12.5065L11.9977 13.1775H10.9087H9.81968V12.399C9.81968 11.68 9.83777 11.6108 10.0573 11.4934C10.5548 11.2271 10.6615 10.4833 10.269 10.0169C9.96581 9.65653 9.52285 9.55404 9.0759 9.74073C8.66734 9.91142 8.52737 10.1551 8.52737 10.6956C8.52737 11.0274 8.58662 11.1649 8.82559 11.3881C9.11656 11.66 9.12382 11.6896 9.12382 12.6138C9.12382 13.908 9.07561 13.8733 10.8752 13.8733H12.3141L12.4835 14.184C12.5766 14.3548 12.8644 14.8245 13.123 15.2278L13.5932 15.9609H12.8695C12.4392 15.9609 12.0975 16.0092 12.0266 16.0802C11.9461 16.1606 11.9073 16.6162 11.9073 17.4784V18.7572L11.6219 18.9974C11.2687 19.2946 11.1679 19.74 11.3534 20.184C11.5222 20.5881 11.7675 20.7325 12.2849 20.7325C12.7927 20.7325 13.1715 20.4365 13.2587 19.9716C13.3392 19.5421 13.1081 18.9907 12.8076 18.8953C12.6176 18.835 12.6031 18.7531 12.6031 17.7436V16.6568H13.3766H14.1502L14.7435 17.2611C15.4758 18.0069 17.6405 19.8379 17.7899 19.8379C17.9085 19.8379 18.8952 19.0508 19.886 18.166L20.5061 17.6122L20.5355 18.3972C20.5516 18.8291 20.6131 19.2403 20.6719 19.3113C20.7523 19.4081 21.2207 19.4402 22.5538 19.4402C24.3277 19.4402 24.3289 19.4404 24.4883 19.6837C24.7246 20.0443 25.2255 20.1813 25.6539 20.0024C26.2765 19.7422 26.4882 19.1563 26.1771 18.5546C25.8693 17.9593 24.9202 17.9001 24.5131 18.4507L24.296 18.7444H22.7738H21.2517V17.8089V16.8735L21.9335 15.9656C23.0449 14.4855 24.0002 12.4515 24.3285 10.8662L24.4469 10.2946H25.2848H26.1227V11.5306C26.1227 12.6814 26.109 12.7708 25.9228 12.8299C25.8128 12.8648 25.6563 13.0221 25.5749 13.1796C25.0993 14.0993 25.9978 14.993 26.9582 14.5554C27.1918 14.449 27.5144 13.9381 27.5144 13.6745C27.5144 13.4278 27.1896 12.8842 27.0078 12.8265C26.8329 12.771 26.8186 12.6541 26.8186 11.2855C26.8186 9.5273 26.8724 9.59878 25.5465 9.59878H24.6591L24.6701 6.9893L24.6813 4.37982L24.3333 4.38827C24.142 4.39295 23.7953 4.43221 23.5629 4.47555L23.1404 4.55439V3.39846V2.24254H24.7821H26.4237L26.6957 2.53738C27.0975 2.97309 27.7335 2.99039 28.1471 2.57695C28.6898 2.03408 28.393 1.03085 27.6481 0.891078C27.2199 0.810755 26.6673 1.04138 26.5725 1.34021C26.511 1.53375 26.4208 1.54379 24.5012 1.56944L22.4943 1.59638L22.4667 3.12131L22.4393 4.64624L21.92 4.57576C20.5788 4.39354 19.4371 3.8121 18.4163 2.79147C18.1144 2.48957 17.8469 2.24254 17.8219 2.24254C17.7968 2.24254 17.4287 2.55965 17.0039 2.94715C16.1256 3.74848 14.9934 4.35239 14.0511 4.52208C13.7267 4.58053 13.4024 4.62835 13.3304 4.62835C13.2284 4.62835 13.1993 4.3161 13.1981 3.21177C13.1972 2.43261 13.1541 1.7281 13.1024 1.64609C13.0235 1.52123 12.596 1.4922 10.4725 1.46735L7.93668 1.43773L7.64323 1.14427C7.23108 0.732123 6.64377 0.73093 6.23332 1.14139ZM19.9248 5.81966C20.7408 6.12683 21.6893 6.31452 22.4351 6.3166L23.0719 6.31829L23.0057 7.77383C22.863 10.9157 22.0711 13.1657 20.357 15.2991C19.7605 16.0415 18.0373 17.6463 17.8331 17.6495C17.7846 17.6503 17.4395 17.4011 17.0664 17.0958C14.1231 14.6879 12.6031 11.3654 12.6031 7.33982V6.31829H13.1813C14.4869 6.31829 15.9653 5.84143 17.1199 5.04795L17.8095 4.57407L18.5764 5.08751C18.9983 5.36983 19.605 5.69928 19.9248 5.81966ZM5.29659 6.80838C4.90442 6.90331 4.64506 7.0738 4.40191 7.39648C4.20717 7.65494 4.2026 7.83577 4.17665 16.284L4.15021 24.9077H17.8205H31.4908V16.479V8.05039L31.2671 7.61418C30.8753 6.85023 30.7279 6.81534 27.8888 6.81534H25.4268L25.4261 7.18812C25.4257 7.3932 25.3969 7.8628 25.362 8.23191L25.2987 8.90292H27.3509H29.4032V15.8615V22.8201H17.8221H6.24097V15.8615V8.90292H8.22914H10.2173V7.80942V6.71593L7.90606 6.72607C6.63483 6.73173 5.46061 6.76871 5.29659 6.80838ZM17.1262 8.24851C16.9622 8.32177 16.7078 8.51015 16.561 8.66712C15.8602 9.41616 15.9269 10.4721 16.7185 11.1672L17.0862 11.4899L16.8825 12.6273C16.7705 13.2528 16.6789 13.8338 16.6789 13.9184C16.6789 14.0485 16.8599 14.0722 17.8545 14.0722H19.0302L18.7916 12.8047L18.553 11.5372L19.0008 11.0705C19.3461 10.7106 19.4638 10.502 19.5153 10.1584C19.7212 8.78512 18.3607 7.69749 17.1262 8.24851ZM2.90661 25.8091C2.71007 26.1272 3.19708 27.5249 3.64561 27.9302C3.94751 28.203 3.90835 28.2723 3.43268 28.3068C3.05641 28.3339 3.01019 28.3645 3.01019 28.5858V28.8344H18.6173H34.2245L34.2559 28.561L34.2874 28.2876H32.9807H31.6741L32.0264 27.876C32.4413 27.3913 32.7088 26.6603 32.6651 26.1305L32.634 25.7527L17.8033 25.7275C7.31458 25.7097 2.95333 25.7336 2.90661 25.8091ZM0.890797 28.5568L0.922608 28.8344H1.71788C2.49992 28.8344 2.51315 28.8302 2.51315 28.5858C2.51315 28.343 2.49426 28.3366 1.68607 28.3083L0.858887 28.2794L0.890797 28.5568Z" fill="#F1747E"/>
<path fill-rule="evenodd" clip-rule="evenodd" d="M19.9387 5.83614C20.7548 6.14331 21.7032 6.33099 22.4491 6.33308L23.0859 6.33477L23.0197 7.79031C22.8769 10.9322 22.0851 13.1821 20.371 15.3155C19.7745 16.0579 18.0512 17.6628 17.8471 17.666C17.7986 17.6668 17.4534 17.4175 17.0803 17.1123C14.137 14.7044 12.6171 11.3818 12.6171 7.3563V6.33477H13.1952C14.5009 6.33477 15.9793 5.85791 17.1338 5.06443L17.8234 4.59055L18.5903 5.10399C19.0122 5.38631 19.6189 5.71575 19.9387 5.83614ZM16.5749 8.6836C16.7218 8.52663 16.9761 8.33825 17.1402 8.26499C18.3746 7.71397 19.7351 8.8016 19.5293 10.1749C19.4778 10.5185 19.3601 10.727 19.0147 11.087L18.567 11.5537L18.8056 12.8212L19.0441 14.0886H17.8684C16.8739 14.0886 16.6928 14.065 16.6928 13.9349C16.6928 13.8503 16.7845 13.2693 16.8964 12.6437L17.1001 11.5064L16.7325 11.1837C15.9408 10.4886 15.8742 9.43264 16.5749 8.6836Z" fill="#F14F5C"/>
<path fill-rule="evenodd" clip-rule="evenodd" d="M6.95625 2.85547C6.04517 2.85547 5.60459 1.80054 6.24727 1.15787C6.65773 0.74741 7.24503 0.748603 7.65718 1.16075L7.95063 1.45421L10.4865 1.48383C12.6099 1.50868 13.0375 1.53771 13.1163 1.66257C13.1681 1.74458 13.2111 2.44909 13.212 3.22825C13.2132 4.33258 13.2424 4.64482 13.3443 4.64482C13.4163 4.64482 13.7407 4.59701 14.0651 4.53856C15.0074 4.36887 16.1395 3.76496 17.0179 2.96363C17.4427 2.57613 17.8108 2.25902 17.8358 2.25902C17.8609 2.25902 18.1284 2.50605 18.4303 2.80795C19.451 3.82858 20.5927 4.41002 21.934 4.59224L22.4533 4.66272L22.4807 3.13779L22.5082 1.61286L24.5152 1.58592C26.4348 1.56027 26.5249 1.55023 26.5865 1.35669C26.6812 1.05786 27.2338 0.827235 27.6621 0.907557C28.4069 1.04733 28.7038 2.05056 28.161 2.59343C27.7475 3.00687 27.1115 2.98957 26.7096 2.55386L26.4377 2.25902H24.796H23.1544V3.41494V4.57086L23.5769 4.49203C23.8093 4.44869 24.1559 4.40943 24.3473 4.40475L24.6952 4.3963L24.6841 7.00578L24.6731 9.61526H25.5605C26.1662 9.61526 26.484 9.60034 26.6504 9.75176C26.8484 9.93179 26.8325 10.347 26.8325 11.302C26.8325 12.6706 26.8468 12.7875 27.0218 12.843C27.2036 12.9007 27.5284 13.4443 27.5284 13.691C27.5284 13.9545 27.2058 14.4655 26.9722 14.5719C26.0118 15.0095 25.1132 14.1158 25.5888 13.1961C25.6702 13.0386 25.8268 12.8813 25.9367 12.8463C26.1229 12.7873 26.1367 12.6979 26.1367 11.5471V10.3111H25.2987H24.4608L24.3424 10.8827C24.0142 12.468 23.0589 14.502 21.9475 15.9821L21.2656 16.89V17.8254V18.7609H22.7878H24.3099L24.527 18.4672C24.9341 17.9166 25.8833 17.9758 26.191 18.5711C26.5022 19.1728 26.2904 19.7587 25.6678 20.0189C25.2395 20.1978 24.7386 20.0608 24.5023 19.7002C24.3428 19.4569 24.3416 19.4567 22.5678 19.4567C21.2346 19.4567 20.7663 19.4246 20.6859 19.3278C20.627 19.2568 20.5656 18.8455 20.5495 18.4137L20.5201 17.6287L19.9 18.1825C18.9091 19.0673 17.9224 19.8543 17.8038 19.8543C17.6544 19.8543 15.4898 18.0233 14.7574 17.2776L14.1642 16.6733H13.3906H12.6171V17.7601C12.6171 18.7696 12.6316 18.8515 12.8216 18.9118C13.1221 19.0072 13.3532 19.5586 13.2727 19.9881C13.1855 20.453 12.8066 20.749 12.2989 20.749C11.7814 20.749 11.5361 20.6046 11.3673 20.2005C11.1818 19.7565 11.2826 19.3111 11.6358 19.0138L11.9212 18.7737V17.4949C11.9212 16.6327 11.9601 16.1771 12.0405 16.0967C12.1115 16.0257 12.4532 15.9774 12.8835 15.9774H13.6072L13.137 15.2443C12.8783 14.841 12.5905 14.3713 12.4975 14.2005L12.3281 13.8898H10.8892C9.89606 13.8898 9.46568 13.9004 9.27938 13.6924C9.12809 13.5234 9.13777 13.2103 9.13777 12.6303C9.13777 11.7061 9.13052 11.6765 8.83955 11.4046C8.60057 11.1813 8.54132 11.0439 8.54132 10.712C8.54132 10.1715 8.68129 9.9279 9.08986 9.75721C9.5368 9.57052 9.97976 9.67301 10.283 10.0334C10.6754 10.4998 10.5688 11.2436 10.0712 11.5099C9.85173 11.6273 9.83363 11.6965 9.83363 12.4155V13.194H10.9227H12.0117L11.758 12.523C11.1472 10.9082 11.0087 9.9779 10.9547 7.12666C10.9158 5.07361 10.8922 4.42827 11.1366 4.30207C11.2584 4.23919 11.4468 4.30523 11.733 4.39024C12.1042 4.50047 12.3024 4.57244 12.4052 4.50307C12.5339 4.4163 12.5135 4.10833 12.496 3.37736L12.468 2.20931L10.2512 2.18257L8.03454 2.15573L7.7046 2.50565C7.42874 2.79811 7.30607 2.85547 6.95625 2.85547ZM22.4491 6.33308C21.7032 6.33099 20.7548 6.14331 19.9387 5.83614C19.6189 5.71575 19.0122 5.38631 18.5903 5.10399L17.8234 4.59055L17.1338 5.06443C15.9793 5.85791 14.5009 6.33477 13.1952 6.33477H12.6171V7.3563C12.6171 11.3818 14.137 14.7044 17.0803 17.1123C17.4534 17.4175 17.7986 17.6668 17.8471 17.666C18.0512 17.6628 19.7745 16.0579 20.371 15.3155C22.0851 13.1821 22.8769 10.9322 23.0197 7.79031L23.0859 6.33477L22.4491 6.33308Z" fill="#F14F5C"/>
<path d="M17.1402 8.26499C16.9761 8.33825 16.7218 8.52663 16.5749 8.6836C15.8742 9.43264 15.9408 10.4886 16.7325 11.1837L17.1001 11.5064L16.8964 12.6437C16.7845 13.2693 16.6928 13.8503 16.6928 13.9349C16.6928 14.065 16.8739 14.0886 17.8684 14.0886H19.0441L18.8056 12.8212L18.567 11.5537L19.0147 11.087C19.3601 10.727 19.4778 10.5185 19.5293 10.1749C19.7351 8.8016 18.3746 7.71397 17.1402 8.26499Z" fill="white"/>
</svg>
