<svg width="25" height="29" viewBox="0 0 25 29" fill="none" xmlns="http://www.w3.org/2000/svg">
<path fill-rule="evenodd" clip-rule="evenodd" d="M6.59329 0.11689C6.16456 0.331131 6.10514 0.623108 6.10506 2.51839C6.1049 4.44583 6.15756 4.71209 6.58287 4.93203C6.7963 5.0424 7.33874 5.0595 10.6238 5.0595C13.2581 5.0595 14.4726 5.03166 14.5961 4.96858C15.0452 4.73887 15.055 4.68759 15.057 2.55112C15.058 1.34568 15.0259 0.510615 14.9749 0.415298C14.7639 0.0210025 14.6736 0.0126999 10.6062 0.0140023C7.72489 0.0148976 6.74721 0.0399684 6.59329 0.11689ZM0.936084 1.30621C0.542034 1.48805 0.294012 1.74576 0.126005 2.14803C0.0144076 2.4151 0 3.70852 0 13.4849C0 24.1721 0.0048839 24.5298 0.154902 24.8223C0.334386 25.1722 0.584687 25.4174 0.952364 25.6031C1.17694 25.7166 1.5902 25.7348 3.94376 25.7348H6.67469V24.351V22.9672H4.72112H2.76755V13.4436V3.91992H3.90714H5.04672V2.53614V1.15236L3.1542 1.15415C1.48854 1.1557 1.22269 1.17393 0.936084 1.30621ZM16.1983 2.53207V3.91992H17.3379H18.4775V5.58859V7.25726H19.8646H21.2518L21.228 4.79495C21.2011 1.99288 21.1829 1.90668 20.5188 1.43726L20.1733 1.19306L18.1858 1.16864L16.1983 1.1443V2.53207Z" fill="#F1747E"/>
<path fill-rule="evenodd" clip-rule="evenodd" d="M8.02876 8.56558L7.81427 8.73424V18.1971V27.6599L8.00263 27.837L8.19106 28.0139H16.2239C24.1483 28.0139 24.259 28.0117 24.4196 27.8511C24.5805 27.6902 24.5824 27.5806 24.5812 18.2257C24.5804 13.0213 24.553 8.72285 24.5201 8.6736C24.3394 8.40295 24.1542 8.39684 16.174 8.39684C8.27393 8.39684 8.24243 8.39749 8.02876 8.56558ZM17.3851 17.31L16.8173 15.8245C16.505 15.0075 16.2288 14.3395 16.2035 14.3402C16.1783 14.341 15.923 14.9728 15.6363 15.7444C15.3495 16.516 15.0748 17.1905 15.0258 17.2435C14.9677 17.3063 14.4276 17.3594 13.4715 17.3962C12.6656 17.4272 11.9623 17.4759 11.9085 17.5044C11.8502 17.5353 12.3162 17.9592 13.0645 18.556C13.754 19.106 14.3026 19.6 14.2835 19.6539C14.186 19.9296 13.4362 22.6742 13.4536 22.6916C13.4648 22.7027 14.0707 22.3298 14.8001 21.8628C15.5294 21.3957 16.1661 21.0136 16.2149 21.0136C16.2638 21.0136 16.9028 21.3968 17.6349 21.8651C18.3669 22.3333 18.9659 22.6886 18.9659 22.6544C18.9659 22.6202 18.7827 21.9368 18.5589 21.1357C18.335 20.3347 18.154 19.6407 18.1567 19.5935C18.1593 19.5463 18.7084 19.0709 19.3769 18.537C20.0454 18.0031 20.5715 17.5452 20.5459 17.5195C20.5203 17.4938 19.7987 17.4362 18.9423 17.3914L17.3851 17.31Z" fill="#F14F5C"/>
</svg>
