<svg width="24" height="28" viewBox="0 0 24 28" fill="none" xmlns="http://www.w3.org/2000/svg">
<path d="M12 14C13.8565 14 15.637 13.2625 16.9497 11.9497C18.2625 10.637 19 8.85652 19 7C19 5.14348 18.2625 3.36301 16.9497 2.05025C15.637 0.737498 13.8565 0 12 0C10.1435 0 8.36301 0.737498 7.05025 2.05025C5.7375 3.36301 5 5.14348 5 7C5 8.85652 5.7375 10.637 7.05025 11.9497C8.36301 13.2625 10.1435 14 12 14Z" fill="#F14F5C"/>
<path d="M1.02513 17.0251C1.6815 16.3687 2.57174 16 3.5 16H20.5C21.4283 16 22.3185 16.3687 22.9749 17.0251C23.6313 17.6815 24 18.5717 24 19.5V20C24 22.393 22.477 24.417 20.315 25.793C18.14 27.177 15.198 28 12 28C8.802 28 5.859 27.177 3.685 25.793C1.523 24.417 0 22.393 0 20V19.5C0 18.5717 0.368749 17.6815 1.02513 17.0251Z" fill="#F1747E"/>
</svg>
