<svg width="28" height="28" viewBox="0 0 28 28" fill="none" xmlns="http://www.w3.org/2000/svg">
<path fill-rule="evenodd" clip-rule="evenodd" d="M13.0322 0.384174C13.0322 0.913043 12.9713 1.03026 12.6201 1.17713C12.1739 1.36374 12.0265 1.33722 11.6579 1.004L11.3258 0.703652L10.6873 1.34687L10.049 1.99L10.3677 2.34313C10.7334 2.74826 10.7335 2.74835 10.5456 3.21817C10.3766 3.64113 10.2161 3.73913 9.69299 3.73913C9.32774 3.73913 9.29629 3.75635 9.29629 3.95652V4.17391H6.00654C2.90861 4.17391 2.7047 4.18348 2.50956 4.3387C2.39558 4.4293 1.97099 5.17278 1.56595 5.99087L0.829455 7.47826H0.414771C0.0130322 7.47826 0 7.48635 0 7.73583C0 8.20887 0.342051 8.93939 0.766814 9.37374C1.38028 10.001 1.88089 10.2085 2.7802 10.2085C3.67951 10.2085 4.18012 10.001 4.79359 9.37374C5.21835 8.93939 5.5604 8.20887 5.5604 7.73583C5.5604 7.48635 5.54737 7.47826 5.14624 7.47826H4.73207L4.14754 6.30435L3.56291 5.13043H6.42965H9.29629V5.34783C9.29629 5.548 9.32774 5.56522 9.69299 5.56522C10.2161 5.56522 10.3766 5.66322 10.5456 6.08617C10.7335 6.556 10.7334 6.55609 10.3677 6.96122L10.049 7.31435L10.6873 7.95748L11.3258 8.6007L11.6579 8.30035C12.0265 7.96713 12.1739 7.94061 12.6201 8.12722C12.9705 8.27374 13.0322 8.39165 13.0322 8.91435C13.0322 9.26252 13.0513 9.29496 13.2711 9.32035L13.51 9.34783V10.7391V12.1304L12.7281 12.1742C11.9089 12.22 11.5751 12.3399 11.2396 12.7091C10.9463 13.0318 10.781 13.425 10.7199 13.9456L10.6633 14.4279L10.0015 14.453L9.33973 14.4783L9.31749 21.2391L9.29525 28H10.9465H12.5978V26.6087V25.2174H13.9879H15.378V26.6087V28H17.0292H18.6805L18.6583 21.2391L18.636 14.4783L17.9743 14.453L17.3125 14.4279L17.2558 13.9456C17.1948 13.425 17.0295 13.0318 16.7362 12.7091C16.4007 12.3399 16.0669 12.22 15.2477 12.1742L14.4657 12.1304V10.7391V9.34783L14.7005 9.3207C14.9212 9.29522 14.9368 9.26417 14.9611 8.79939C14.9857 8.33061 15.0027 8.29757 15.2911 8.15678C15.7404 7.93748 15.9488 7.9667 16.3179 8.30035L16.65 8.6007L17.2884 7.95748L17.9267 7.31435L17.608 6.96122C17.2424 6.55609 17.2423 6.556 17.4301 6.08617C17.5992 5.66322 17.7597 5.56522 18.2828 5.56522C18.648 5.56522 18.6795 5.548 18.6795 5.34783V5.13043H21.5471H24.4147L23.7186 6.52174L23.0225 7.91304H22.7068H22.3911L22.4419 8.34191C22.5388 9.16096 23.143 10.0043 23.9303 10.4194C24.3175 10.6235 24.4692 10.6513 25.1956 10.6513C25.9219 10.6513 26.0737 10.6235 26.4608 10.4194C27.2481 10.0043 27.8523 9.16096 27.9493 8.34191L28 7.91304H27.6842H27.3685L26.5023 6.18104C26.0141 5.20452 25.5506 4.38904 25.44 4.31148C25.2695 4.19191 24.8142 4.17391 21.9616 4.17391H18.6795V3.95652C18.6795 3.75635 18.648 3.73913 18.2828 3.73913C17.7597 3.73913 17.5992 3.64113 17.4301 3.21817C17.2423 2.74835 17.2424 2.74826 17.608 2.34313L17.9267 1.99L17.2884 1.34687L16.65 0.703652L16.3179 1.004C15.9488 1.33765 15.7404 1.36687 15.2911 1.14757C15.002 1.00652 14.9857 0.974435 14.9609 0.499565L14.9349 0H13.9835H13.0322V0.384174ZM14.7272 2.94478C15.101 3.11478 15.5994 3.62452 15.7313 3.97183C15.8702 4.33756 15.8263 5.11044 15.6466 5.46C15.0232 6.67296 13.4968 6.88104 12.6129 5.87357C12.2465 5.45591 12.1634 5.22991 12.1634 4.65217C12.1634 4.07443 12.2465 3.84843 12.6129 3.43078C13.1535 2.81461 14.0086 2.61809 14.7272 2.94478ZM3.23789 6.65217L3.64788 7.47826H2.7802H1.91252L2.32251 6.65217C2.54805 6.19783 2.75396 5.82609 2.7802 5.82609C2.80644 5.82609 3.01235 6.19783 3.23789 6.65217ZM25.7403 6.82704C26.0142 7.37757 26.2381 7.84713 26.2381 7.87052C26.2381 7.89391 25.769 7.91304 25.1956 7.91304C24.6221 7.91304 24.153 7.89391 24.153 7.87052C24.153 7.78252 25.1506 5.82609 25.1956 5.82609C25.2214 5.82609 25.4665 6.27652 25.7403 6.82704ZM17.2894 16.3478V16.7826H13.9879H10.6864V16.3478V15.913H13.9879H17.2894V16.3478ZM17.2722 18.6739L17.2985 19.1304H13.9924H10.6864V18.7102C10.6864 18.479 10.7129 18.2633 10.7454 18.2309C10.7778 18.1983 12.2536 18.1821 14.0252 18.1946L17.2459 18.2174L17.2722 18.6739ZM2.7802 23.3478V28H5.60384H8.42748V23.3478V18.6957H5.60384H2.7802V23.3478ZM19.5483 23.3478V28H22.3719H25.1956V23.3478V18.6957H22.3719H19.5483V23.3478ZM6.51609 21V21.4783H5.60384H4.69159V21V20.5217H5.60384H6.51609V21ZM17.2722 21.0217L17.2985 21.4783H13.9924H10.6864V21.058C10.6864 20.8268 10.7129 20.6111 10.7454 20.5787C10.7778 20.5462 12.2536 20.5299 14.0252 20.5424L17.2459 20.5652L17.2722 21.0217ZM23.2842 21V21.4783H22.3719H21.4597V21V20.5217H22.3719H23.2842V21ZM6.51609 23.3478V23.8261H5.60384H4.69159V23.3478V22.8696H5.60384H6.51609V23.3478ZM17.2894 23.3478V23.8261H13.9879H10.6864V23.3478V22.8696H13.9879H17.2894V23.3478ZM23.2842 23.3478V23.8261H22.3719H21.4597V23.3478V22.8696H22.3719H23.2842V23.3478ZM6.51609 25.6957V26.1739H5.60384H4.69159V25.6957V25.2174H5.60384H6.51609V25.6957ZM23.2842 25.6957V26.1739H22.3719H21.4597V25.6957V25.2174H22.3719H23.2842V25.6957Z" fill="#F14F5C"/>
<path fill-rule="evenodd" clip-rule="evenodd" d="M13.0322 0.384174C13.0322 0.913043 12.9713 1.03026 12.6201 1.17713C12.1739 1.36374 12.0265 1.33722 11.6579 1.004L11.3258 0.703652L10.6873 1.34687L10.049 1.99L10.3677 2.34313C10.7334 2.74826 10.7335 2.74835 10.5456 3.21817C10.3766 3.64113 10.2161 3.73913 9.69299 3.73913C9.32774 3.73913 9.29629 3.75635 9.29629 3.95652V4.17391H6.00653C2.90861 4.17391 2.7047 4.18348 2.50956 4.3387C2.39558 4.4293 1.97099 5.17278 1.56595 5.99087L0.829455 7.47826H0.414771C0.0130322 7.47826 0 7.48635 0 7.73583C0 8.20887 0.342051 8.93939 0.766814 9.37374C1.38028 10.001 1.88089 10.2085 2.7802 10.2085C3.67951 10.2085 4.18012 10.001 4.79359 9.37374C5.21835 8.93939 5.5604 8.20887 5.5604 7.73583C5.5604 7.48635 5.54737 7.47826 5.14624 7.47826H4.73207L4.14754 6.30435L3.56291 5.13043H6.42965H9.29629V5.34783C9.29629 5.548 9.32774 5.56522 9.69299 5.56522C10.2161 5.56522 10.3766 5.66322 10.5456 6.08617C10.7335 6.556 10.7334 6.55609 10.3677 6.96122L10.049 7.31435L10.6873 7.95748L11.3258 8.6007L11.6579 8.30035C12.0265 7.96713 12.1739 7.94061 12.6201 8.12722C12.9705 8.27374 13.0322 8.39165 13.0322 8.91435C13.0322 9.26252 13.0513 9.29496 13.2711 9.32035L13.51 9.34783V10.7391H14.4657V9.34783L14.7005 9.3207C14.9212 9.29522 14.9368 9.26417 14.9611 8.79939C14.9857 8.33061 15.0027 8.29757 15.2911 8.15678C15.7404 7.93748 15.9488 7.9667 16.3179 8.30035L16.65 8.6007L17.2884 7.95748L17.9267 7.31435L17.608 6.96122C17.2424 6.55609 17.2423 6.556 17.4301 6.08617C17.5992 5.66322 17.7597 5.56522 18.2828 5.56522C18.648 5.56522 18.6795 5.548 18.6795 5.34783V5.13043H21.5471H24.4147L23.7186 6.52174L23.0225 7.91304H22.7068H22.3911L22.4419 8.34191C22.5388 9.16096 23.143 10.0043 23.9303 10.4194C24.3175 10.6235 24.4692 10.6513 25.1956 10.6513C25.9219 10.6513 26.0737 10.6235 26.4608 10.4194C27.2481 10.0043 27.8523 9.16096 27.9493 8.34191L28 7.91304H27.6842H27.3685L26.5023 6.18104C26.0141 5.20452 25.5506 4.38904 25.44 4.31148C25.2695 4.19191 24.8142 4.17391 21.9616 4.17391H18.6795V3.95652C18.6795 3.75635 18.648 3.73913 18.2828 3.73913C17.7597 3.73913 17.5992 3.64113 17.4301 3.21817C17.2423 2.74835 17.2424 2.74826 17.608 2.34313L17.9267 1.99L17.2884 1.34687L16.65 0.703652L16.3179 1.004C15.9488 1.33765 15.7404 1.36687 15.2911 1.14757C15.002 1.00652 14.9857 0.974435 14.9609 0.499565L14.9349 0H13.9835H13.0322V0.384174ZM15.7313 3.97183C15.5994 3.62452 15.101 3.11478 14.7272 2.94478C14.0086 2.61809 13.1535 2.81461 12.6129 3.43078C12.2465 3.84843 12.1634 4.07443 12.1634 4.65217C12.1634 5.22991 12.2465 5.45591 12.6129 5.87356C13.4968 6.88104 15.0232 6.67296 15.6466 5.46C15.8263 5.11044 15.8702 4.33756 15.7313 3.97183ZM3.64788 7.47826L3.23789 6.65217C3.01235 6.19783 2.80644 5.82609 2.7802 5.82609C2.75396 5.82609 2.54805 6.19783 2.32251 6.65217L1.91252 7.47826H2.7802H3.64788ZM26.2381 7.87052C26.2381 7.84713 26.0142 7.37756 25.7403 6.82704C25.4665 6.27652 25.2214 5.82609 25.1956 5.82609C25.1506 5.82609 24.153 7.78252 24.153 7.87052C24.153 7.89391 24.6221 7.91304 25.1956 7.91304C25.769 7.91304 26.2381 7.89391 26.2381 7.87052Z" fill="#F1747E"/>
</svg>
