<svg width="27" height="25" viewBox="0 0 27 25" fill="none" xmlns="http://www.w3.org/2000/svg">
<path d="M17.9 1.89474H15.7V0.947368C15.7 0.421579 15.2105 0 14.6 0H12.4C11.7895 0 11.3 0.421579 11.3 0.947368V1.89474H9.1C8.4895 1.89474 8.0055 2.31632 8.0055 2.84211L8 8.05263C8 8.57842 8.4895 9 9.1 9H17.9C18.5105 9 19 8.57842 19 8.05263V2.84211C19 2.31632 18.5105 1.89474 17.9 1.89474ZM14.6 1.89474H12.4V0.947368H14.6V1.89474Z" fill="#F14F5C"/>
<path fill-rule="evenodd" clip-rule="evenodd" d="M1.22598 3.03635C0.821836 3.15879 0.484619 3.42122 0.25316 3.79353L0.0356999 4.14321L0.00818195 9.9085C-0.0140626 14.5794 0.00549702 15.7442 0.111159 16.0449C0.192275 16.2757 1.24554 17.6208 2.89528 19.6004L5.54891 22.7848V23.8924V25L8.83286 24.9748L12.1168 24.9496L12.1436 22.8881C12.1734 20.5948 12.0812 19.7334 11.7353 19.0697C11.6068 18.8231 10.5398 17.176 9.36424 15.4093C6.96403 11.8023 6.89317 11.727 5.96331 11.7931C5.15033 11.8509 4.40935 12.6103 4.39957 13.3958C4.39679 13.612 4.37445 13.5979 4.17128 13.252C3.95986 12.892 3.92716 12.6097 3.6376 8.64966C3.43462 5.87474 3.27996 4.29231 3.18561 4.02605C2.90823 3.24327 2.02122 2.79531 1.22598 3.03635ZM24.2128 3.08017C23.7197 3.26187 23.4168 3.56274 23.2488 4.03784C23.1602 4.28847 22.9982 5.95893 22.8013 8.64966C22.5175 12.531 22.4757 12.8978 22.2788 13.2354L22.0647 13.6022L21.9965 13.2387C21.8349 12.3776 21.2801 11.8503 20.4756 11.7931C19.5462 11.727 19.4751 11.8026 17.0715 15.4093C15.8942 17.176 14.7941 18.9018 14.6269 19.2446L14.323 19.8678L14.3225 22.4087L14.3221 24.9496L17.6061 24.9748L20.89 25V23.8924V22.7848L23.5436 19.6004C25.1934 17.6208 26.2466 16.2757 26.3278 16.0449C26.4334 15.7442 26.453 14.5794 26.4307 9.9085L26.4032 4.14321L26.1827 3.78845C25.7653 3.11728 24.9288 2.8165 24.2128 3.08017Z" fill="#F1747E"/>
</svg>
