<svg width="30" height="28" viewBox="0 0 30 28" fill="none" xmlns="http://www.w3.org/2000/svg">
<path fill-rule="evenodd" clip-rule="evenodd" d="M19.6 0.174589C18.891 0.427751 18.4461 0.76191 17.4649 1.77824C16.5152 2.76202 16.1892 3.33539 16.1113 4.1596C16.0624 4.67726 16.0306 4.72919 15.3231 5.44983L14.5859 6.20069L13.8938 5.51319C13.218 4.84197 13.2005 4.81212 13.1493 4.24825C13.0651 3.3196 12.7345 2.78334 11.5057 1.58263C10.1501 0.258104 9.72346 0.0551285 8.42906 0.118879C7.45585 0.166838 6.87133 0.420485 6.22375 1.07601C5.40691 1.90274 5.0897 3.02478 5.36147 4.12617C5.57897 5.00754 5.94191 5.53712 7.07121 6.62108C8.10527 7.61358 8.71885 7.94464 9.52397 7.94464C9.9213 7.94464 9.97333 7.98465 11.2872 9.30104L12.641 10.6574H6.32054H0V19.3287V28H14.6298H29.2595V19.3287V10.6574H24.146H19.0324L18.4081 10.0275L17.7838 9.39754L18.4941 8.68242C19.1779 7.99405 19.2256 7.96488 19.7677 7.90356C20.6966 7.79844 21.3509 7.39772 22.4675 6.25001C23.7147 4.96811 23.9738 4.46818 23.9738 3.34256C23.9738 2.41488 23.7006 1.72486 23.057 1.02651C22.2204 0.118976 20.7622 -0.240373 19.6 0.174589ZM21.5148 1.52595C22.2303 1.88869 22.5965 2.42292 22.6515 3.18376C22.7088 3.97522 22.517 4.33186 21.4664 5.38811C20.4246 6.43545 20.1317 6.60412 19.3033 6.63358L18.6837 6.65567L17.7704 7.56513L16.8571 8.4747L16.2092 7.82673L15.5612 7.17875L16.4519 6.25815L17.3426 5.33744L17.3447 4.77599C17.3478 3.96583 17.5781 3.56898 18.6717 2.48919C19.9798 1.1977 20.512 1.0174 21.5148 1.52595ZM9.46448 1.60162C9.77345 1.75567 10.2775 2.17935 10.8186 2.74003C11.7473 3.70259 11.917 4.03636 11.917 4.90194V5.373L17.0364 10.5101C22.8317 16.3252 22.5258 15.9365 22.6363 17.6245C22.6733 18.1893 22.6634 18.6021 22.6129 18.6021C22.5647 18.6021 20.0185 16.0909 16.9547 13.0216C13.8909 9.9525 11.177 7.27428 10.924 7.07014C10.5177 6.74248 10.4024 6.69898 9.94058 6.69898C9.60661 6.69898 9.28243 6.62893 9.04429 6.5054C8.59648 6.27307 6.96212 4.63192 6.74345 4.19516C6.53088 3.77051 6.54502 2.98282 6.77309 2.53938C7.32176 1.47276 8.43061 1.08648 9.46448 1.60162ZM8.5836 2.85678C8.18511 3.07021 8.04811 3.28763 8.04462 3.71237C8.04104 4.14555 8.37103 4.63376 8.95225 5.05492C9.72869 5.61754 10.6574 5.20432 10.6574 4.29621C10.6574 4.1223 10.4761 3.86264 10.0519 3.42889C9.37961 2.74158 9.04332 2.61059 8.5836 2.85678ZM19.9585 2.78024C19.8785 2.80891 19.5624 3.07661 19.2561 3.37511C18.7387 3.87911 18.699 3.94926 18.699 4.35947C18.699 4.89419 18.8824 5.18145 19.3151 5.32417C19.7682 5.47376 20.0656 5.33783 20.6947 4.69334C21.1623 4.21444 21.218 4.11348 21.218 3.74406C21.218 3.06072 20.5664 2.56215 19.9585 2.78024ZM14.2907 8.73862C14.0186 8.89286 13.9548 9.013 13.953 9.3737C13.9512 9.77161 14.2445 10.0761 14.6298 10.0761C15.015 10.0761 15.3083 9.77161 15.3065 9.3737C15.3048 9.00457 15.2386 8.88559 14.951 8.73426C14.6892 8.59648 14.5397 8.59745 14.2907 8.73862ZM3.48789 12.0163C3.48789 12.1737 2.83972 13.4187 2.69672 13.5357C2.58782 13.625 1.38799 14.1453 1.29129 14.1453C1.2289 14.1453 1.26077 12.0448 1.32414 11.9816C1.43265 11.8731 3.48789 11.906 3.48789 12.0163ZM27.979 13.0554C27.994 13.6549 27.9835 14.1453 27.9557 14.1453C27.8456 14.1453 26.5869 13.6241 26.4614 13.5264C26.3517 13.4412 25.6747 12.0847 25.6747 11.9502C25.6747 11.9286 26.1871 11.9231 26.8131 11.9381L27.9516 11.9654L27.979 13.0554ZM13.9516 15.0173V15.9862H14.6298H15.308V15.0173C15.308 14.4844 15.3282 14.0484 15.353 14.0484C15.3778 14.0484 15.6067 14.1175 15.8617 14.202C16.2361 14.326 16.5634 14.5915 17.5634 15.5826C18.7201 16.729 18.8146 16.8511 19.0022 17.4394C19.6428 19.4491 19.1243 21.8288 17.7393 23.2354C17.156 23.8279 15.9758 24.5121 15.5372 24.5121C15.3122 24.5121 15.308 24.495 15.308 23.5917V22.6713H14.6298H13.9516V23.5917C13.9516 24.495 13.9473 24.5121 13.7223 24.5121C13.3111 24.5121 12.1144 23.8333 11.5755 23.2945C10.2519 21.9708 9.688 19.9208 10.117 17.9921C10.5044 16.251 11.7227 14.7706 13.2083 14.2358C13.9792 13.9583 13.9516 13.9293 13.9516 15.0173ZM13.9516 19.3287V21.3149H14.6298H15.308V19.3287V17.3426H14.6298H13.9516V19.3287ZM2.16549 24.7384C2.86152 25.06 2.86675 25.0653 3.22484 25.8093C3.42278 26.2205 3.58477 26.5765 3.58477 26.6003C3.58477 26.6241 3.06159 26.6436 2.42214 26.6436H1.25952V25.5294C1.25952 24.8055 1.29565 24.4152 1.3628 24.4152C1.41957 24.4152 1.78076 24.5606 2.16549 24.7384ZM28 25.5294V26.6436H26.804H25.6081L25.9882 25.8927C26.1971 25.4798 26.4021 25.1068 26.4433 25.064C26.519 24.9855 27.7922 24.4348 27.9273 24.422C27.9673 24.4183 28 24.9166 28 25.5294Z" fill="#F1747E"/>
<path fill-rule="evenodd" clip-rule="evenodd" d="M19.5656 0.171415C18.8566 0.424578 18.4117 0.758737 17.4306 1.77507C16.4808 2.75885 16.1549 3.33222 16.077 4.15642C16.0281 4.67409 15.9963 4.72602 15.2887 5.44665L14.5515 6.19752L13.8595 5.51002C13.1837 4.83879 13.1661 4.80895 13.115 4.24508C13.0308 3.31642 12.7001 2.78016 11.4713 1.57946C10.1158 0.25493 9.6891 0.0519546 8.39471 0.115705C7.42149 0.163664 6.83698 0.417311 6.18939 1.07284C5.37255 1.89957 5.05534 3.0216 5.32711 4.123C5.54462 5.00437 5.90755 5.53395 7.03685 6.61791C8.07092 7.6104 8.68449 7.94146 9.48961 7.94146C9.88694 7.94146 9.93897 7.98148 11.2528 9.29786L12.6066 10.6543L23.8426 21.218C23.5966 17.227 21.8571 13.4497 18.9981 10.6543L18.3738 10.0243L17.7494 9.39436L18.4598 8.67925C19.1435 7.99087 19.1913 7.96171 19.7333 7.90038C20.6622 7.79526 21.3166 7.39454 22.4332 6.24683C23.6804 4.96494 23.9395 4.46501 23.9395 3.33939C23.9395 2.41171 23.6662 1.72168 23.0226 1.02333C22.186 0.115802 20.7279 -0.243547 19.5656 0.171415ZM22.6172 3.18059C22.5621 2.41975 22.1959 1.88552 21.4805 1.52278C20.4776 1.01422 19.9454 1.19453 18.6374 2.48602C17.5437 3.56581 17.3134 3.96265 17.3103 4.77281L17.3082 5.33427L16.4175 6.25497L15.5269 7.17558L16.1748 7.82355L16.8227 8.47152L17.736 7.56196L18.6494 6.65249L19.269 6.6304C20.0974 6.60095 20.3902 6.43227 21.432 5.38494C22.4827 4.32869 22.6744 3.97205 22.6172 3.18059ZM10.7842 2.73685C10.2431 2.17618 9.7391 1.75249 9.43013 1.59845C8.39626 1.0833 7.2874 1.46959 6.73874 2.5362C6.51067 2.97965 6.49652 3.76733 6.70909 4.19198C6.92776 4.62874 8.56213 6.26989 9.00993 6.50222C9.24808 6.62575 9.57226 6.6958 9.90622 6.6958C10.3681 6.6958 10.4834 6.7393 10.8896 7.06697C11.1427 7.27111 13.8565 9.94932 16.9204 13.0185C19.9842 16.0877 22.5303 18.5989 22.5785 18.5989C22.6291 18.5989 22.639 18.1862 22.6019 17.6213C22.4914 15.9333 22.7974 16.322 17.002 10.5069L11.8826 5.36982V4.89876C11.8826 4.03319 11.7129 3.69941 10.7842 2.73685Z" fill="#F14F5C"/>
<path d="M14.2563 8.73544C13.9842 8.88968 13.9204 9.00982 13.9187 9.37053C13.9168 9.76844 14.2102 10.073 14.5954 10.073C14.9806 10.073 15.274 9.76844 15.2721 9.37053C15.2704 9.00139 15.2042 8.88242 14.9167 8.73108C14.6549 8.59331 14.5053 8.59428 14.2563 8.73544Z" fill="#F14F5C"/>
<path d="M8.54924 2.8536C8.15075 3.06704 8.01375 3.28445 8.01026 3.7092C8.00668 4.14238 8.33667 4.63058 8.91789 5.05175C9.69433 5.61436 10.6231 5.20114 10.6231 4.29303C10.6231 4.11912 10.4417 3.85947 10.0175 3.42571C9.34525 2.7384 9.00896 2.60741 8.54924 2.8536Z" fill="#F14F5C"/>
<path d="M19.9241 2.77706C19.8442 2.80574 19.528 3.07344 19.2217 3.37194C18.7043 3.87594 18.6646 3.94609 18.6646 4.3563C18.6646 4.89101 18.848 5.17828 19.2807 5.32099C19.7338 5.47058 20.0313 5.33465 20.6604 4.69017C21.1279 4.21126 21.1836 4.11031 21.1836 3.74088C21.1836 3.05755 20.5321 2.55897 19.9241 2.77706Z" fill="#F14F5C"/>
</svg>
