<svg width="174" height="62" viewBox="0 0 174 62" fill="none" xmlns="http://www.w3.org/2000/svg">
<g filter="url(#filter0_d_333_13)">
<path d="M153 45.1051C109.461 54.2983 64.401 54.2983 21 45.1051V6H153V45.1051Z" fill="url(#paint0_linear_333_13)"/>
</g>
<path d="M67.3273 27.2625C68.6953 26.5425 69.5593 25.2465 69.5593 23.5665C69.5593 20.9505 67.3993 19.1985 63.1993 19.1985H54.9913V35.9985H63.6793C68.0953 35.9985 70.3993 34.3185 70.3993 31.4145C70.3993 29.3025 69.1993 27.8625 67.3273 27.2625ZM62.7193 22.1265C64.6153 22.1265 65.6473 22.7745 65.6473 24.0945C65.6473 25.4145 64.6153 26.0865 62.7193 26.0865H58.8553V22.1265H62.7193ZM63.3913 33.0705H58.8553V28.9185H63.3913C65.4073 28.9185 66.4873 29.5905 66.4873 31.0065C66.4873 32.4465 65.4073 33.0705 63.3913 33.0705ZM78.0468 22.8945C75.9828 22.8945 73.8948 23.4465 72.4788 24.4545L73.8228 27.0705C74.7588 26.3265 76.1748 25.8705 77.5428 25.8705C79.5588 25.8705 80.5188 26.8065 80.5188 28.4145H77.5428C73.6068 28.4145 71.9988 29.9985 71.9988 32.2785C71.9988 34.5105 73.7988 36.1905 76.8228 36.1905C78.7188 36.1905 80.0628 35.5665 80.7588 34.3905V35.9985H84.2628V28.6305C84.2628 24.7185 81.9828 22.8945 78.0468 22.8945ZM77.7588 33.6705C76.4388 33.6705 75.6468 33.0465 75.6468 32.1105C75.6468 31.2465 76.1988 30.5985 77.9508 30.5985H80.5188V31.9185C80.0868 33.0945 79.0068 33.6705 77.7588 33.6705ZM91.7553 36.1905C95.6193 36.1905 97.8513 34.4865 97.8513 32.0865C97.8513 26.9985 90.0513 29.1345 90.0513 26.9265C90.0513 26.2545 90.7713 25.7265 92.4513 25.7265C93.6273 25.7265 94.8993 25.9665 96.1713 26.6865L97.4193 24.0225C96.1953 23.3025 94.2273 22.8945 92.4513 22.8945C88.6833 22.8945 86.4753 24.6225 86.4753 27.0705C86.4753 32.2305 94.2753 30.0705 94.2753 32.1825C94.2753 32.9025 93.6273 33.3585 91.8993 33.3585C90.3153 33.3585 88.5633 32.8545 87.4113 32.1105L86.1633 34.7985C87.3633 35.5905 89.5713 36.1905 91.7553 36.1905ZM101.793 21.2865C103.185 21.2865 104.121 20.3745 104.121 19.1265C104.121 17.9745 103.185 17.1105 101.793 17.1105C100.401 17.1105 99.4653 18.0225 99.4653 19.1985C99.4653 20.3745 100.401 21.2865 101.793 21.2865ZM99.9213 35.9985H103.665V23.0865H99.9213V35.9985ZM113.14 36.1905C115.852 36.1905 117.988 34.9905 118.924 32.9265L116.02 31.3425C115.324 32.5905 114.292 33.1185 113.116 33.1185C111.22 33.1185 109.732 31.7985 109.732 29.5425C109.732 27.2865 111.22 25.9665 113.116 25.9665C114.292 25.9665 115.324 26.5185 116.02 27.7425L118.924 26.1825C117.988 24.0705 115.852 22.8945 113.14 22.8945C108.94 22.8945 105.94 25.6545 105.94 29.5425C105.94 33.4305 108.94 36.1905 113.14 36.1905Z" fill="#FAFAFA"/>
<defs>
<filter id="filter0_d_333_13" x="13" y="0" width="148" height="62" filterUnits="userSpaceOnUse" color-interpolation-filters="sRGB">
<feFlood flood-opacity="0" result="BackgroundImageFix"/>
<feColorMatrix in="SourceAlpha" type="matrix" values="0 0 0 0 0 0 0 0 0 0 0 0 0 0 0 0 0 0 127 0" result="hardAlpha"/>
<feOffset dy="2"/>
<feGaussianBlur stdDeviation="4"/>
<feComposite in2="hardAlpha" operator="out"/>
<feColorMatrix type="matrix" values="0 0 0 0 0 0 0 0 0 0 0 0 0 0 0 0 0 0 0.16 0"/>
<feBlend mode="normal" in2="BackgroundImageFix" result="effect1_dropShadow_333_13"/>
<feBlend mode="normal" in="SourceGraphic" in2="effect1_dropShadow_333_13" result="shape"/>
</filter>
<linearGradient id="paint0_linear_333_13" x1="4.39067" y1="-37.2724" x2="194.213" y2="109.448" gradientUnits="userSpaceOnUse">
<stop stop-color="#749DF1"/>
<stop offset="1" stop-color="#407BFF"/>
</linearGradient>
</defs>
</svg>
