<svg width="352" height="248" viewBox="0 0 352 248" fill="none" xmlns="http://www.w3.org/2000/svg">
<path d="M35.888 239.435L13.1405 121.68C12.8661 120.054 12.9277 118.388 13.3214 116.787C13.7153 115.185 14.4327 113.681 15.4301 112.368L88.1248 16.7499C89.2513 15.2676 90.7052 14.0661 92.3733 13.2388C94.0411 12.4118 95.8776 11.9814 97.7393 11.9817H237.208C238.89 11.9814 240.553 12.3321 242.09 13.0115C243.629 13.6908 245.008 14.6836 246.14 15.9264L330.396 108.415C331.5 109.629 332.348 111.056 332.883 112.609C333.42 114.161 333.633 115.806 333.512 117.444L315.902 239.4L35.888 239.435Z" fill="#F4F4F4"/>
<path d="M330.007 239.862H22.7793C22.6716 239.854 22.5711 239.805 22.498 239.724C22.4248 239.646 22.384 239.54 22.384 239.435C22.384 239.327 22.4248 239.222 22.498 239.144C22.5711 239.063 22.6716 239.014 22.7793 239.006H330.007C330.115 239.014 330.215 239.063 330.288 239.144C330.361 239.222 330.401 239.327 330.401 239.435C330.401 239.54 330.361 239.646 330.288 239.724C330.215 239.805 330.115 239.854 330.007 239.862Z" fill="#B2B6BB"/>
<path d="M111.59 211.401H53.5996V238.933H111.59V211.401Z" fill="#DADDDF"/>
<path d="M56.4294 232.504H67.7667V228.095H56.4294V232.504Z" fill="white"/>
<path d="M69.3164 217.171H76.1663V211.234H69.3164V217.171Z" fill="#F14F5C"/>
<path d="M99.3623 217.171H104.619V211.328H99.3623V217.171Z" fill="#F14F5C"/>
<path opacity="0.15" d="M111.701 235.053H53.5V238.849H111.701V235.053Z" fill="black"/>
<path opacity="0.15" d="M111.701 211.401H91.0354V238.933H111.701V211.401Z" fill="black"/>
<path d="M102.845 187.29H64.467V211.274H102.845V187.29Z" fill="#DADDDF"/>
<path d="M102.845 187.29H64.467V211.274H102.845V187.29Z" fill="#DADDDF"/>
<path d="M75.2837 206.722H85.3196V203.42H75.2837V206.722Z" fill="white"/>
<path d="M73.7449 191.842H78.8047V187.29H73.7449V191.842Z" fill="#F14F5C"/>
<path d="M94.3237 191.842H98.7355V187.29H94.3237V191.842Z" fill="#F14F5C"/>
<path opacity="0.15" d="M102.756 187.29H88.6294V211.274H102.756V187.29Z" fill="black"/>
<path opacity="0.15" d="M102.842 208.663H64.467V211.274H102.842V208.663Z" fill="black"/>
<path d="M151.68 125.26L151.972 126.232L152.86 129.24L153.741 132.21L154.856 135.96L159.88 152.924L161.198 157.371L161.249 157.549L161.506 158.389L161.776 159.294L161.843 159.526L165.45 171.676L166.031 173.625L166.485 175.164L166.782 176.163L169.117 184.02L170.076 187.26L170.213 187.719L170.513 188.737L170.826 189.801L171.412 191.761L172.411 195.131L173.037 197.237L175.276 204.783L185.401 238.9H230.245C230.469 238.9 230.69 238.857 230.898 238.771C231.103 238.687 231.292 238.56 231.452 238.401C231.608 238.244 231.735 238.055 231.819 237.85C231.905 237.642 231.948 237.421 231.948 237.197V176.161L231.63 175.094L230.35 170.717L227.027 159.526L226.757 158.627L226.686 158.389L225.066 152.924L220.379 137.124L211.572 107.47L192.402 113.164L187.863 114.514L172.454 119.088L170.227 119.752L164.64 121.41L154.283 124.488L151.68 125.26Z" fill="#DADDDF"/>
<path d="M194.934 161.213C199.338 159.909 201.863 155.349 200.583 151.032C199.303 146.714 194.694 144.282 190.293 145.58C185.892 146.879 183.37 151.439 184.647 155.762C185.925 160.085 190.531 162.52 194.934 161.213Z" fill="#F14F5C"/>
<path d="M157.72 130.031L164.516 152.924L165.499 156.224L166.06 158.133L166.141 158.403L166.43 159.369L168.86 167.607L169.524 169.851L170.099 171.778L174.093 185.233L174.808 187.663L175.394 189.628L176.037 191.788V191.807L176.474 193.265L176.509 193.376L177.7 197.331L178.405 199.699L178.899 201.368L188.079 232.294L188.416 233.43L190.036 238.895H196.767L188.786 211.992L185.187 199.899L184.15 196.405L181.21 186.502L180.624 184.536L179.954 182.276L176.204 169.651L175.645 167.761L173.196 159.518L172.867 158.4L172.597 157.495L172.03 155.524L171.258 152.924L167.597 140.634C167.705 140.599 167.804 140.572 167.915 140.531C169.318 140.07 170.588 139.275 171.617 138.215C173.577 136.198 174.436 133.374 173.642 130.684L173.92 130.59L188.589 126.238L195.22 124.267L196.09 123.997C197.145 127.547 200.766 129.718 204.662 129.397C205.312 129.344 205.954 129.224 206.579 129.037L208.01 133.83L211.607 145.942L213.68 152.932L216.85 163.616L227.593 199.796L231.241 212.092L231.951 214.484V191.723L227.979 178.337L222.736 160.657L220.441 152.924L219.145 148.553L209.123 114.803C208.819 114.632 208.504 114.481 208.18 114.352L196.03 117.962L191.492 119.312L184.86 121.278L169.2 125.919L158.241 129.175C158.044 129.445 157.869 129.732 157.72 130.031Z" fill="#F14F5C"/>
<path d="M130.755 135.231L141.318 149.201L144.131 152.924L151.421 162.555L152.642 164.175L160.42 174.468L161.635 176.088L170.089 187.268L170.432 187.725L171.674 189.366L172.646 190.654L172.892 190.981L174.471 193.071V193.087L174.517 193.144L175.176 194.013L177.687 197.337L179.971 200.358L188.778 212.006L204.438 232.723L204.978 233.444L209.109 238.909H230.245C230.469 238.909 230.69 238.865 230.898 238.779C231.103 238.695 231.292 238.568 231.452 238.412C231.608 238.252 231.735 238.063 231.819 237.858C231.905 237.65 231.948 237.429 231.948 237.205V165.498L230.944 164.167L230.92 164.146L227.434 159.526L226.754 158.627L226.57 158.4L223.122 153.81L222.447 152.914L219.145 148.553L208.01 133.83L204.679 129.421L199.244 122.22L196.02 117.959L192.396 113.164L180.584 97.5447L157.88 114.719L146.11 123.613L139.09 128.935L132.34 134.049L130.755 135.231Z" fill="#DADDDF"/>
<path d="M183.878 153.71C187.544 150.94 188.308 145.786 185.592 142.192C182.876 138.598 177.705 137.929 174.044 140.699C170.383 143.469 169.616 148.618 172.332 152.217C175.049 155.816 180.214 156.48 183.878 153.71Z" fill="#F14F5C"/>
<path d="M138.08 137.583L144.49 146.048L149.685 152.916L153.808 158.4L154.669 159.537L155.112 160.123L155.714 160.933L156.335 161.743L164.3 172.273L165.11 173.353L165.515 173.893L166.479 175.17L174.088 185.233L175.6 187.231L176.825 188.851L183.214 197.28L185.187 199.888L205.953 227.353L209.69 232.296L210.13 232.869L210.281 233.074L214.674 238.879H230.248C230.472 238.879 230.693 238.836 230.901 238.749C231.106 238.666 231.295 238.539 231.452 238.379C231.611 238.223 231.738 238.034 231.822 237.829C231.908 237.621 231.951 237.399 231.951 237.175V236.886C229.197 234.211 224.578 234.068 221.105 236.687L218.635 233.414L218.203 232.847L217.771 232.277L208.413 219.898L197.613 205.62L187.925 192.806L185.8 190.014L182.584 185.762L181.356 184.142L179.949 182.279L171.579 171.193L170.329 169.54L168.868 167.607L162.761 159.529L162.421 159.08L161.902 158.4L161.26 157.56L161.146 157.406L157.766 152.935L151.051 144.036C153.613 142.106 154.885 139.152 154.653 136.379C154.548 135.008 154.051 133.696 153.222 132.599L153.743 132.205L154.704 131.473L166.106 122.86L170.221 119.752L171.919 118.467C172.085 118.686 172.266 118.893 172.459 119.088C175.186 121.95 179.963 122.188 183.529 119.501L184.879 121.275L188.635 126.246L208.801 152.922L216.85 163.616L227.98 178.337L231.97 183.594V172.856L230.35 170.717L222.736 160.657L221.554 159.094L221.014 158.389L216.885 152.924L211.601 145.934L195.25 124.277L191.47 119.312L187.847 114.517L180.856 105.272C180.512 105.218 180.165 105.186 179.817 105.175L161.919 118.71L154.283 124.488L151.972 126.232L150.762 127.145L141.936 133.83L138.888 136.141L138.28 136.589C138.189 136.915 138.122 137.247 138.08 137.583Z" fill="#F14F5C"/>
<path opacity="0.15" d="M192.396 113.132L196.022 117.927L199.243 122.188L204.681 129.38L208.01 133.79L219.145 148.521L226.672 158.551L225.066 152.892L216.31 138.976L201.959 116.164L198.844 111.215L192.396 113.132Z" fill="black"/>
<path opacity="0.15" d="M160.139 112.962L215.122 152.892H217.817L165.264 109.082L160.139 112.962Z" fill="black"/>
<path d="M183.602 198.09L116.235 147.951C115.894 147.697 115.668 147.317 115.607 146.897C115.546 146.476 115.654 146.048 115.908 145.707L147.02 103.911C147.274 103.57 147.653 103.344 148.074 103.282C148.494 103.22 148.922 103.328 149.264 103.582L216.629 153.726C216.966 153.983 217.19 154.361 217.252 154.781C217.313 155.2 217.208 155.627 216.958 155.97L185.843 197.766C185.717 197.934 185.56 198.076 185.379 198.184C185.198 198.291 184.998 198.362 184.79 198.392C184.582 198.422 184.37 198.411 184.166 198.359C183.962 198.307 183.771 198.216 183.602 198.09Z" fill="#F14F5C"/>
<path opacity="0.3" d="M183.602 198.09L116.235 147.951C115.894 147.697 115.668 147.317 115.607 146.897C115.546 146.476 115.654 146.048 115.908 145.707L147.02 103.911C147.274 103.57 147.653 103.344 148.074 103.282C148.494 103.22 148.922 103.328 149.264 103.582L216.629 153.726C216.966 153.983 217.19 154.361 217.252 154.781C217.313 155.2 217.208 155.627 216.958 155.97L185.843 197.766C185.717 197.934 185.56 198.076 185.379 198.184C185.198 198.291 184.998 198.362 184.79 198.392C184.582 198.422 184.37 198.411 184.166 198.359C183.962 198.307 183.771 198.216 183.602 198.09Z" fill="black"/>
<path d="M216.553 153.67L149.35 103.636C148.989 103.368 148.536 103.254 148.091 103.319C147.646 103.385 147.245 103.624 146.976 103.984L137.661 116.501C137.625 116.549 137.601 116.605 137.592 116.665C137.582 116.724 137.588 116.785 137.607 116.842C139.64 122.703 144.878 127.358 150.629 130.02C157.477 133.193 165.099 134.159 172.47 135.785C179.841 137.41 187.39 139.932 192.598 145.397C197.51 150.554 199.699 157.636 202.858 164.027C203.819 165.986 204.945 167.859 206.225 169.627C206.259 169.673 206.303 169.711 206.354 169.736C206.405 169.762 206.461 169.776 206.518 169.776C206.575 169.776 206.632 169.762 206.683 169.736C206.734 169.711 206.778 169.673 206.811 169.627L216.917 156.051C217.05 155.871 217.147 155.666 217.2 155.449C217.254 155.232 217.264 155.006 217.23 154.784C217.196 154.563 217.119 154.351 217.003 154.159C216.887 153.968 216.734 153.801 216.553 153.67Z" fill="#F14F5C"/>
<path d="M154.648 145.786V144.303L153.219 144.714L152.874 144.457L154.634 143.96L154.602 142.224L154.947 142.481L154.966 143.874L156.316 143.493L156.651 143.744L154.977 144.212L155.018 146.048L154.648 145.786Z" fill="white"/>
<path d="M156.945 147.497V146.015L155.517 146.426L155.171 146.169L156.934 145.672L156.902 143.936L157.245 144.206L157.267 145.599L158.617 145.219L158.954 145.467L157.28 145.937L157.318 147.77L156.945 147.497Z" fill="white"/>
<path d="M159.243 149.22V147.738L157.801 148.14L157.45 147.87L159.21 147.376L159.178 145.64L159.524 145.91L159.542 147.3L160.892 146.922L161.23 147.171L159.556 147.638L159.596 149.474L159.243 149.22Z" fill="white"/>
<path d="M161.543 150.921V149.439L160.115 149.846L159.769 149.576L161.53 149.082L161.497 147.344L161.843 147.6L161.862 148.993L163.212 148.612L163.547 148.864L161.875 149.331L161.913 151.167L161.543 150.921Z" fill="white"/>
<path d="M169.197 156.618V155.136L167.769 155.543L167.424 155.287L169.184 154.793L169.152 153.057L169.497 153.313L169.519 154.706L170.869 154.326L171.204 154.574L169.532 155.041L169.57 156.877L169.197 156.618Z" fill="white"/>
<path d="M171.49 158.33V156.848L170.061 157.255L169.719 156.985L171.479 156.491L171.446 154.752L171.789 155.022L171.811 156.416L173.161 156.035L173.499 156.286L171.825 156.753L171.865 158.589L171.49 158.33Z" fill="white"/>
<path d="M173.796 160.039V158.557L172.368 158.967L172.022 158.697L173.783 158.2L173.75 156.464L174.096 156.734L174.115 158.127L175.465 157.747L175.8 157.998L174.126 158.465L174.166 160.301L173.796 160.039Z" fill="white"/>
<path d="M176.093 161.751V160.268L174.665 160.679L174.32 160.409L176.08 159.912L176.048 158.176L176.393 158.432L176.415 159.826L177.765 159.445L178.1 159.693L176.428 160.163L176.466 161.996L176.093 161.751Z" fill="white"/>
<path d="M184.914 155.762C187.9 155.762 190.32 153.342 190.32 150.357C190.32 147.372 187.9 144.951 184.914 144.951C181.929 144.951 179.509 147.372 179.509 150.357C179.509 153.342 181.929 155.762 184.914 155.762Z" fill="#F14F5C"/>
<path opacity="0.3" d="M163.996 123.854L151.14 114.284C150.809 114.039 150.342 114.107 150.097 114.437L147.871 117.428C147.625 117.759 147.693 118.225 148.023 118.471L160.88 128.04C161.21 128.286 161.677 128.218 161.923 127.888L164.149 124.897C164.395 124.566 164.327 124.099 163.996 123.854Z" fill="black"/>
<path opacity="0.5" d="M151.174 162.17L128.28 145.131C127.914 144.858 127.396 144.934 127.124 145.3L125.886 146.964C125.613 147.33 125.689 147.847 126.055 148.12L148.949 165.159C149.315 165.432 149.832 165.356 150.105 164.99L151.343 163.326C151.616 162.96 151.54 162.443 151.174 162.17Z" fill="white"/>
<path opacity="0.5" d="M144.141 149.501L131.674 140.221C131.401 140.018 131.016 140.075 130.813 140.348L129.323 142.349C129.12 142.622 129.177 143.007 129.45 143.21L141.917 152.489C142.189 152.692 142.575 152.636 142.778 152.363L144.268 150.362C144.471 150.089 144.414 149.704 144.141 149.501Z" fill="white"/>
<path d="M148.988 137.773L140.317 131.32C140.152 131.197 139.919 131.231 139.796 131.396L138.461 133.19C138.339 133.354 138.373 133.588 138.538 133.711L147.208 140.164C147.373 140.287 147.607 140.253 147.729 140.088L149.064 138.294C149.187 138.129 149.153 137.896 148.988 137.773Z" fill="white"/>
<path d="M192.642 170.267L183.972 163.814C183.807 163.691 183.573 163.725 183.45 163.89L182.115 165.684C181.993 165.848 182.027 166.082 182.192 166.205L190.862 172.658C191.027 172.781 191.261 172.747 191.383 172.581L192.718 170.788C192.841 170.623 192.807 170.39 192.642 170.267Z" fill="white"/>
<path d="M33.5063 89.172L67.1726 44.3088H119.833V119.509L33.6278 118.213L33.5063 89.172Z" fill="white"/>
<path d="M33.5063 89.172L65.9495 45.9396L69.581 45.9207L33.5306 91.4184L33.5063 89.172Z" fill="#F4F4F4"/>
<path d="M118.203 91.7262L96.7701 117.878L79.1067 117.765L118.208 73.7415L118.203 91.7262Z" fill="#F4F4F4"/>
<path d="M118.202 50.9589L58.6486 117.765L33.7897 118.024L33.5305 114.139L92.8306 45.9207L118.208 46.0341L118.202 50.9589Z" fill="#F4F4F4"/>
<path d="M78.0701 117.765H79.1069V46.0341H78.0701V117.765Z" fill="#B2B6BB"/>
<path opacity="0.15" d="M78.0701 117.765H79.1069V46.0341H78.0701V117.765Z" fill="black"/>
<path d="M30.261 121.14H121.491V42.678H68.3958L65.9496 45.9396H74.6976V117.878H33.7305L33.5199 89.172L30.2799 93.492L30.261 121.14ZM77.9592 45.9396H118.203V117.878H77.9727L77.9592 45.9396Z" fill="#B2B6BB"/>
<path d="M64.416 48.0375H118.203V46.8468H65.2449L64.416 48.0375Z" fill="#B2B6BB"/>
<path d="M62.7856 50.13H118.203V48.9393H63.6415L62.7856 50.13Z" fill="#B2B6BB"/>
<path d="M61.1812 52.2333H118.202V51.0426H62.0425L61.1812 52.2333Z" fill="#B2B6BB"/>
<path d="M59.6589 54.3312H118.203V53.1378H60.5661L59.6589 54.3312Z" fill="#B2B6BB"/>
<path d="M58.2034 56.4291H118.203V55.2357H59.0566L58.2034 56.4291Z" fill="#B2B6BB"/>
<path d="M56.5972 58.5243H118.203V57.3093H57.4531L56.5972 58.5243Z" fill="#B2B6BB"/>
<path d="M116.68 79.371H116.732V45.9666H117.015V79.371H117.069C117.127 79.3707 117.184 79.3818 117.238 79.4037C117.292 79.4258 117.34 79.4582 117.381 79.4993C117.422 79.54 117.454 79.5886 117.476 79.6424C117.498 79.6958 117.509 79.7533 117.509 79.8111V84.4713C117.509 84.5294 117.498 84.5866 117.476 84.6401C117.454 84.6938 117.422 84.7424 117.381 84.7834C117.34 84.8242 117.292 84.8566 117.238 84.8787C117.184 84.9006 117.127 84.9117 117.069 84.9114H116.68C116.622 84.9122 116.565 84.9011 116.511 84.8793C116.457 84.8577 116.408 84.8253 116.367 84.7842C116.326 84.7432 116.294 84.6943 116.272 84.6406C116.25 84.5869 116.239 84.5294 116.24 84.4713V79.8111C116.237 79.7525 116.247 79.6942 116.268 79.6397C116.289 79.5849 116.322 79.5354 116.363 79.4939C116.404 79.4526 116.454 79.4202 116.509 79.3991C116.563 79.3778 116.622 79.3683 116.68 79.371Z" fill="#B2B6BB"/>
<path opacity="0.2" d="M117.555 46.8468H118.203V48.0375H117.555V46.8468Z" fill="black"/>
<path opacity="0.2" d="M117.555 48.9447H118.203V50.13H117.555V48.9447Z" fill="black"/>
<path opacity="0.2" d="M117.555 51.0426H118.203V52.2333H117.555V51.0426Z" fill="black"/>
<path opacity="0.2" d="M117.555 53.1378H118.203V54.3312H117.555V53.1378Z" fill="black"/>
<path opacity="0.2" d="M117.555 55.2114H118.203V56.4021H117.555V55.2114Z" fill="black"/>
<path opacity="0.2" d="M117.555 57.3093H118.203V58.5H117.555V57.3093Z" fill="black"/>
<path opacity="0.2" d="M74.6978 48.0375H77.9594V48.5559H74.6978V48.0375Z" fill="black"/>
<path opacity="0.2" d="M74.6978 50.13H77.9594V50.6484H74.6978V50.13Z" fill="black"/>
<path opacity="0.2" d="M74.6978 52.2333H77.9594V52.7517H74.6978V52.2333Z" fill="black"/>
<path opacity="0.2" d="M74.6978 54.3312H77.9594V54.8469H74.6978V54.3312Z" fill="black"/>
<path opacity="0.2" d="M74.6978 56.4291H77.9594V56.9448H74.6978V56.4291Z" fill="black"/>
<path opacity="0.2" d="M74.6978 58.5243H77.9594V59.04H74.6978V58.5243Z" fill="black"/>
<path d="M121.313 121.132H122.35V42.6699H121.313V121.132Z" fill="#B2B6BB"/>
<path opacity="0.15" d="M121.313 121.132H122.35V42.6699H121.313V121.132Z" fill="black"/>
<path d="M114.534 154.62V237.191C114.534 237.642 114.714 238.077 115.034 238.396C115.354 238.717 115.788 238.895 116.24 238.895H230.253C230.477 238.895 230.698 238.852 230.906 238.765C231.111 238.682 231.3 238.555 231.46 238.398C231.616 238.239 231.743 238.05 231.827 237.845C231.913 237.637 231.956 237.415 231.956 237.191V154.62C231.956 154.396 231.913 154.174 231.827 153.968C231.743 153.761 231.616 153.573 231.46 153.415C231.3 153.256 231.111 153.131 230.906 153.045C230.698 152.96 230.477 152.916 230.253 152.916H116.24C115.788 152.916 115.354 153.096 115.034 153.415C114.714 153.735 114.534 154.168 114.534 154.62Z" fill="#61656D"/>
<path opacity="0.2" d="M114.101 209.525H150.511C151.134 209.525 151.731 209.277 152.172 208.837C152.613 208.396 152.86 207.798 152.86 207.176V188.618C152.859 187.996 152.611 187.399 152.171 186.958C151.731 186.518 151.134 186.27 150.511 186.269H114.101V209.525Z" fill="black"/>
<path opacity="0.2" d="M116.68 237.199V154.62C116.681 154.169 116.861 153.735 117.18 153.416C117.499 153.097 117.932 152.917 118.384 152.916H116.224C115.772 152.916 115.338 153.096 115.018 153.415C114.698 153.735 114.518 154.168 114.517 154.62V237.191C114.518 237.642 114.698 238.077 115.018 238.396C115.338 238.717 115.772 238.895 116.224 238.895H118.384C117.934 238.895 117.502 238.717 117.183 238.398C116.864 238.08 116.683 237.65 116.68 237.199Z" fill="black"/>
<path opacity="0.5" d="M227.174 158.956C227.174 159.031 227.188 159.106 227.217 159.175C227.246 159.244 227.288 159.307 227.341 159.36C227.393 159.413 227.457 159.455 227.526 159.483C227.595 159.512 227.669 159.526 227.744 159.526H232.334C232.478 159.516 232.613 159.452 232.712 159.346C232.81 159.241 232.864 159.102 232.864 158.958C232.864 158.813 232.81 158.674 232.712 158.569C232.613 158.463 232.478 158.399 232.334 158.389H227.744C227.67 158.389 227.595 158.403 227.526 158.432C227.457 158.46 227.394 158.502 227.342 158.554C227.289 158.607 227.247 158.67 227.218 158.739C227.189 158.808 227.174 158.882 227.174 158.956ZM218.011 158.956C218.011 159.107 218.072 159.252 218.178 159.358C218.285 159.465 218.429 159.525 218.58 159.526H223.17C223.296 159.525 223.417 159.481 223.515 159.403C223.613 159.325 223.681 159.216 223.71 159.094C223.721 159.049 223.727 159.003 223.727 158.956C223.727 158.81 223.672 158.67 223.571 158.564C223.47 158.458 223.332 158.396 223.187 158.389H218.597C218.521 158.387 218.445 158.4 218.374 158.428C218.303 158.455 218.239 158.497 218.184 158.549C218.13 158.602 218.086 158.665 218.056 158.735C218.027 158.805 218.011 158.88 218.011 158.956ZM208.847 158.956C208.847 159.107 208.907 159.251 209.013 159.358C209.119 159.465 209.263 159.525 209.414 159.526H214.004C214.148 159.516 214.283 159.452 214.381 159.346C214.48 159.241 214.534 159.102 214.534 158.958C214.534 158.813 214.48 158.674 214.381 158.569C214.283 158.463 214.148 158.399 214.004 158.389H209.414C209.264 158.39 209.12 158.45 209.014 158.556C208.908 158.662 208.848 158.806 208.847 158.956ZM199.683 158.956C199.683 159.098 199.735 159.235 199.831 159.339C199.926 159.444 200.058 159.508 200.199 159.52C200.216 159.523 200.233 159.523 200.25 159.52H204.84C204.99 159.518 205.134 159.457 205.24 159.351C205.346 159.245 205.407 159.101 205.41 158.951C205.409 158.8 205.349 158.656 205.242 158.55C205.135 158.443 204.991 158.384 204.84 158.384H200.25C200.175 158.384 200.101 158.399 200.032 158.428C199.963 158.457 199.901 158.5 199.848 158.553C199.795 158.606 199.754 158.669 199.725 158.738C199.697 158.807 199.683 158.881 199.683 158.956ZM190.525 158.956C190.522 158.994 190.522 159.032 190.525 159.07C190.524 159.085 190.524 159.1 190.525 159.115C190.558 159.233 190.629 159.337 190.726 159.411C190.824 159.485 190.942 159.525 191.065 159.526H195.655C195.698 159.526 195.742 159.521 195.784 159.51C195.909 159.481 196.02 159.41 196.1 159.309C196.179 159.209 196.222 159.084 196.222 158.956C196.221 158.814 196.169 158.677 196.076 158.57L196.041 158.538C195.935 158.442 195.797 158.389 195.655 158.389H191.065C190.919 158.397 190.782 158.46 190.682 158.565C190.581 158.671 190.525 158.811 190.525 158.956ZM181.345 158.956C181.345 159.062 181.376 159.166 181.432 159.255C181.488 159.345 181.568 159.417 181.663 159.464C181.741 159.505 181.827 159.526 181.914 159.526H186.504C186.648 159.516 186.783 159.452 186.882 159.346C186.98 159.241 187.035 159.102 187.035 158.958C187.035 158.813 186.98 158.674 186.882 158.569C186.783 158.463 186.648 158.399 186.504 158.389H181.914C181.766 158.393 181.625 158.454 181.521 158.56C181.417 158.666 181.359 158.808 181.358 158.956H181.345ZM172.181 158.956C172.181 159.107 172.241 159.251 172.347 159.358C172.453 159.465 172.597 159.525 172.748 159.526H177.338C177.482 159.516 177.617 159.452 177.715 159.346C177.814 159.241 177.868 159.102 177.868 158.958C177.868 158.813 177.814 158.674 177.715 158.569C177.617 158.463 177.482 158.399 177.338 158.389H172.748C172.6 158.394 172.46 158.455 172.356 158.561C172.253 158.667 172.195 158.808 172.194 158.956H172.181ZM163.017 158.956C163.015 159.072 163.048 159.185 163.111 159.282C163.175 159.378 163.266 159.453 163.373 159.496C163.441 159.522 163.512 159.536 163.584 159.537H168.174C168.323 159.536 168.465 159.479 168.574 159.377C168.681 159.268 168.742 159.121 168.744 158.967C168.742 158.836 168.696 158.709 168.612 158.608C168.529 158.507 168.413 158.437 168.285 158.411C168.248 158.408 168.211 158.408 168.174 158.411H163.584C163.44 158.415 163.303 158.473 163.2 158.575C163.097 158.676 163.037 158.812 163.031 158.956H163.017ZM153.856 158.956C153.856 159.031 153.87 159.106 153.899 159.175C153.927 159.244 153.969 159.307 154.022 159.36C154.075 159.413 154.138 159.455 154.207 159.483C154.277 159.512 154.351 159.526 154.426 159.526H159.016C159.167 159.525 159.311 159.465 159.418 159.358C159.524 159.252 159.585 159.107 159.585 158.956C159.589 158.939 159.589 158.922 159.585 158.905C159.574 158.764 159.509 158.633 159.406 158.537C159.301 158.442 159.165 158.389 159.024 158.389H154.434C154.284 158.39 154.14 158.45 154.035 158.556C153.929 158.663 153.869 158.806 153.869 158.956H153.856ZM144.692 158.956C144.693 159.107 144.753 159.252 144.86 159.358C144.966 159.465 145.111 159.525 145.262 159.526H149.852C149.996 159.516 150.131 159.452 150.229 159.346C150.328 159.241 150.382 159.102 150.382 158.958C150.382 158.813 150.328 158.674 150.229 158.569C150.131 158.463 149.996 158.399 149.852 158.389H145.262C145.114 158.393 144.973 158.454 144.869 158.56C144.765 158.666 144.706 158.808 144.706 158.956H144.692ZM135.528 158.956C135.529 159.107 135.589 159.252 135.696 159.358C135.803 159.465 135.947 159.525 136.098 159.526H140.688C140.832 159.516 140.967 159.452 141.065 159.346C141.164 159.241 141.219 159.102 141.219 158.958C141.219 158.813 141.164 158.674 141.065 158.569C140.967 158.463 140.832 158.399 140.688 158.389H136.12C136.049 158.387 135.979 158.401 135.914 158.43C135.806 158.469 135.712 158.541 135.646 158.635C135.579 158.729 135.543 158.841 135.542 158.956H135.528ZM126.365 158.956C126.365 159.107 126.424 159.251 126.531 159.358C126.637 159.465 126.781 159.525 126.932 159.526H131.522C131.6 159.531 131.678 159.521 131.751 159.495C131.825 159.468 131.893 159.427 131.949 159.374C132.007 159.321 132.052 159.256 132.083 159.185C132.114 159.113 132.13 159.036 132.13 158.958C132.13 158.88 132.114 158.802 132.083 158.731C132.052 158.659 132.007 158.594 131.949 158.541C131.893 158.488 131.825 158.447 131.751 158.421C131.678 158.395 131.6 158.384 131.522 158.389H126.94C126.79 158.391 126.648 158.452 126.543 158.558C126.438 158.664 126.379 158.807 126.378 158.956H126.365ZM122.552 160.406V164.996C122.547 165.074 122.558 165.152 122.584 165.226C122.61 165.3 122.651 165.367 122.704 165.424C122.757 165.481 122.822 165.527 122.893 165.558C122.965 165.589 123.042 165.605 123.12 165.605C123.199 165.605 123.276 165.589 123.348 165.558C123.419 165.527 123.484 165.481 123.537 165.424C123.59 165.367 123.631 165.3 123.658 165.226C123.683 165.152 123.694 165.074 123.689 164.996V160.406C123.688 160.255 123.628 160.109 123.522 160.001C123.415 159.893 123.271 159.831 123.119 159.828C123.045 159.829 122.971 159.844 122.902 159.873C122.833 159.903 122.771 159.946 122.72 160C122.668 160.054 122.628 160.117 122.602 160.187C122.575 160.257 122.563 160.332 122.566 160.406H122.552ZM122.552 169.586V174.176C122.562 174.32 122.626 174.455 122.732 174.554C122.837 174.652 122.976 174.707 123.12 174.707C123.265 174.707 123.404 174.652 123.509 174.554C123.615 174.455 123.679 174.32 123.689 174.176V169.586C123.694 169.508 123.683 169.43 123.658 169.356C123.631 169.283 123.59 169.215 123.537 169.158C123.484 169.101 123.419 169.056 123.348 169.024C123.276 168.993 123.199 168.977 123.12 168.977C123.042 168.977 122.965 168.993 122.893 169.024C122.822 169.056 122.757 169.101 122.704 169.158C122.651 169.215 122.61 169.283 122.584 169.356C122.558 169.43 122.547 169.508 122.552 169.586ZM122.552 178.744V183.334C122.562 183.479 122.626 183.613 122.732 183.712C122.837 183.81 122.976 183.865 123.12 183.865C123.265 183.865 123.404 183.81 123.509 183.712C123.615 183.613 123.679 183.479 123.689 183.334V178.744C123.694 178.667 123.683 178.588 123.658 178.515C123.631 178.441 123.59 178.374 123.537 178.317C123.484 178.26 123.419 178.214 123.348 178.183C123.276 178.152 123.199 178.136 123.12 178.136C123.042 178.136 122.965 178.152 122.893 178.183C122.822 178.214 122.757 178.26 122.704 178.317C122.651 178.374 122.61 178.441 122.584 178.515C122.558 178.588 122.547 178.667 122.552 178.744ZM122.552 187.908V192.498C122.547 192.576 122.558 192.655 122.584 192.728C122.61 192.802 122.651 192.869 122.704 192.926C122.757 192.983 122.822 193.029 122.893 193.06C122.965 193.091 123.042 193.107 123.12 193.107C123.199 193.107 123.276 193.091 123.348 193.06C123.419 193.029 123.484 192.983 123.537 192.926C123.59 192.869 123.631 192.802 123.658 192.728C123.683 192.655 123.694 192.576 123.689 192.498V187.908C123.679 187.764 123.615 187.63 123.509 187.531C123.404 187.433 123.265 187.378 123.12 187.378C122.976 187.378 122.837 187.433 122.732 187.531C122.626 187.63 122.562 187.764 122.552 187.908ZM122.552 197.072V201.662C122.547 201.74 122.558 201.818 122.584 201.892C122.61 201.966 122.651 202.033 122.704 202.09C122.757 202.147 122.822 202.193 122.893 202.224C122.965 202.255 123.042 202.271 123.12 202.271C123.199 202.271 123.276 202.255 123.348 202.224C123.419 202.193 123.484 202.147 123.537 202.09C123.59 202.033 123.631 201.966 123.658 201.892C123.683 201.818 123.694 201.74 123.689 201.662V197.072C123.679 196.928 123.615 196.793 123.509 196.695C123.404 196.596 123.265 196.542 123.12 196.542C122.976 196.542 122.837 196.596 122.732 196.695C122.626 196.793 122.562 196.928 122.552 197.072ZM122.552 206.236V210.826C122.562 210.97 122.626 211.105 122.732 211.203C122.837 211.302 122.976 211.356 123.12 211.356C123.265 211.356 123.404 211.302 123.509 211.203C123.615 211.105 123.679 210.97 123.689 210.826V206.236C123.679 206.092 123.615 205.957 123.509 205.859C123.404 205.76 123.265 205.706 123.12 205.706C122.976 205.706 122.837 205.76 122.732 205.859C122.626 205.957 122.562 206.092 122.552 206.236ZM122.552 215.397V219.987C122.562 220.131 122.626 220.266 122.732 220.364C122.837 220.463 122.976 220.518 123.12 220.518C123.265 220.518 123.404 220.463 123.509 220.364C123.615 220.266 123.679 220.131 123.689 219.987V215.397C123.694 215.319 123.683 215.241 123.658 215.167C123.631 215.094 123.59 215.026 123.537 214.969C123.484 214.912 123.419 214.866 123.348 214.835C123.276 214.804 123.199 214.788 123.12 214.788C123.042 214.788 122.965 214.804 122.893 214.835C122.822 214.866 122.757 214.912 122.704 214.969C122.651 215.026 122.61 215.094 122.584 215.167C122.558 215.241 122.547 215.319 122.552 215.397ZM122.552 224.561V229.151C122.562 229.295 122.626 229.43 122.732 229.528C122.837 229.627 122.976 229.681 123.12 229.681C123.265 229.681 123.404 229.627 123.509 229.528C123.615 229.43 123.679 229.295 123.689 229.151V224.561C123.694 224.483 123.683 224.405 123.658 224.331C123.631 224.258 123.59 224.19 123.537 224.133C123.484 224.076 123.419 224.03 123.348 223.999C123.276 223.968 123.199 223.952 123.12 223.952C123.042 223.952 122.965 223.968 122.893 223.999C122.822 224.03 122.757 224.076 122.704 224.133C122.651 224.19 122.61 224.258 122.584 224.331C122.558 224.405 122.547 224.483 122.552 224.561ZM234.062 232.869C234.062 232.949 234.079 233.029 234.114 233.101V232.65C234.081 232.719 234.062 232.795 234.062 232.871V232.869ZM224.898 232.869C224.899 233.019 224.959 233.163 225.065 233.269C225.171 233.375 225.315 233.435 225.465 233.436H230.056C230.134 233.441 230.212 233.431 230.285 233.404C230.358 233.378 230.426 233.337 230.482 233.284C230.542 233.23 230.585 233.166 230.617 233.094C230.647 233.023 230.663 232.946 230.663 232.867C230.663 232.789 230.647 232.712 230.617 232.641C230.585 232.569 230.542 232.504 230.482 232.451C230.426 232.398 230.358 232.357 230.285 232.331C230.212 232.304 230.134 232.294 230.056 232.299H225.465C225.391 232.3 225.317 232.315 225.247 232.344C225.179 232.372 225.116 232.415 225.063 232.468C225.011 232.521 224.969 232.584 224.941 232.653C224.912 232.723 224.898 232.797 224.898 232.871V232.869ZM215.732 232.869C215.733 233.019 215.793 233.164 215.9 233.27C216.006 233.376 216.151 233.436 216.302 233.436H220.892C220.966 233.436 221.04 233.422 221.109 233.393C221.178 233.365 221.241 233.323 221.293 233.27C221.346 233.218 221.388 233.155 221.416 233.086C221.445 233.017 221.459 232.943 221.459 232.869C221.46 232.766 221.433 232.664 221.38 232.575C221.327 232.487 221.25 232.415 221.159 232.366C221.076 232.321 220.983 232.298 220.889 232.299H216.31C216.234 232.298 216.159 232.313 216.089 232.341C216.019 232.369 215.955 232.412 215.901 232.465C215.848 232.518 215.805 232.581 215.776 232.651C215.747 232.721 215.732 232.796 215.732 232.871V232.869ZM206.568 232.869C206.569 233.019 206.629 233.164 206.736 233.27C206.843 233.376 206.987 233.436 207.138 233.436H211.728C211.852 233.433 211.972 233.39 212.07 233.313C212.167 233.236 212.237 233.13 212.268 233.009C212.279 232.972 212.284 232.934 212.284 232.896V232.874C212.282 232.748 212.238 232.626 212.159 232.528C212.08 232.43 211.969 232.362 211.847 232.334C211.805 232.321 211.761 232.315 211.717 232.315H207.13C207.007 232.317 206.888 232.359 206.791 232.433C206.693 232.509 206.623 232.613 206.59 232.731C206.576 232.777 206.568 232.824 206.568 232.871V232.869ZM197.41 232.869C197.41 233.019 197.469 233.164 197.576 233.27C197.682 233.376 197.826 233.436 197.977 233.436H202.567C202.645 233.441 202.723 233.431 202.796 233.404C202.87 233.378 202.938 233.337 202.995 233.284C203.052 233.23 203.097 233.166 203.129 233.094C203.16 233.023 203.175 232.946 203.175 232.867C203.175 232.789 203.16 232.712 203.129 232.641C203.097 232.569 203.052 232.504 202.995 232.451C202.938 232.398 202.87 232.357 202.796 232.331C202.723 232.304 202.645 232.294 202.567 232.299H197.977C197.902 232.299 197.828 232.314 197.758 232.343C197.689 232.372 197.626 232.414 197.574 232.467C197.521 232.52 197.48 232.584 197.451 232.653C197.423 232.722 197.409 232.797 197.41 232.871V232.869ZM188.246 232.869C188.247 233.019 188.307 233.163 188.413 233.269C188.519 233.375 188.663 233.435 188.813 233.436H193.403C193.481 233.441 193.559 233.431 193.633 233.404C193.706 233.378 193.774 233.337 193.831 233.284C193.888 233.23 193.933 233.166 193.965 233.094C193.996 233.023 194.012 232.946 194.012 232.867C194.012 232.789 193.996 232.712 193.965 232.641C193.933 232.569 193.888 232.504 193.831 232.451C193.774 232.398 193.706 232.357 193.633 232.331C193.559 232.304 193.481 232.294 193.403 232.299H188.813C188.738 232.3 188.664 232.315 188.595 232.344C188.526 232.372 188.463 232.415 188.411 232.468C188.358 232.521 188.317 232.584 188.288 232.653C188.26 232.723 188.246 232.797 188.246 232.871V232.869ZM179.079 232.869C179.08 233.019 179.14 233.164 179.247 233.27C179.354 233.376 179.498 233.436 179.649 233.436H184.239C184.383 233.426 184.518 233.362 184.616 233.256C184.715 233.151 184.77 233.012 184.77 232.867C184.77 232.723 184.715 232.584 184.616 232.479C184.518 232.373 184.383 232.309 184.239 232.299H179.649C179.498 232.3 179.353 232.361 179.246 232.468C179.139 232.575 179.079 232.72 179.079 232.871V232.869ZM169.916 232.869C169.916 233.019 169.977 233.164 170.083 233.27C170.19 233.376 170.335 233.436 170.485 233.436H175.075C175.219 233.426 175.354 233.362 175.452 233.256C175.551 233.151 175.606 233.012 175.606 232.867C175.606 232.723 175.551 232.584 175.452 232.479C175.354 232.373 175.219 232.309 175.075 232.299H170.485C170.334 232.3 170.189 232.361 170.082 232.468C169.975 232.575 169.916 232.72 169.916 232.871V232.869ZM160.757 232.869C160.757 233.019 160.817 233.164 160.923 233.27C161.03 233.376 161.174 233.436 161.324 233.436H165.914C166.058 233.426 166.193 233.362 166.291 233.256C166.39 233.151 166.445 233.012 166.445 232.867C166.445 232.723 166.39 232.584 166.291 232.479C166.193 232.373 166.058 232.309 165.914 232.299H161.324C161.249 232.299 161.175 232.314 161.106 232.343C161.037 232.372 160.974 232.414 160.921 232.467C160.869 232.52 160.827 232.584 160.799 232.653C160.771 232.722 160.757 232.797 160.757 232.871V232.869ZM151.593 232.869C151.594 233.019 151.654 233.163 151.76 233.269C151.866 233.375 152.01 233.435 152.16 233.436H156.75C156.828 233.441 156.906 233.431 156.98 233.404C157.054 233.378 157.121 233.337 157.178 233.284C157.236 233.23 157.281 233.166 157.312 233.094C157.343 233.023 157.359 232.946 157.359 232.867C157.359 232.789 157.343 232.712 157.312 232.641C157.281 232.569 157.236 232.504 157.178 232.451C157.121 232.398 157.054 232.357 156.98 232.331C156.906 232.304 156.828 232.294 156.75 232.299H152.16C152.086 232.3 152.012 232.315 151.942 232.344C151.874 232.372 151.811 232.415 151.758 232.468C151.706 232.521 151.664 232.584 151.636 232.653C151.607 232.723 151.593 232.797 151.593 232.871V232.869ZM142.43 232.869C142.43 233.019 142.49 233.163 142.596 233.269C142.703 233.375 142.846 233.435 142.997 233.436H147.587C147.665 233.441 147.743 233.431 147.816 233.404C147.89 233.378 147.958 233.337 148.014 233.284C148.072 233.23 148.117 233.166 148.148 233.094C148.179 233.023 148.195 232.946 148.195 232.867C148.195 232.789 148.179 232.712 148.148 232.641C148.117 232.569 148.072 232.504 148.014 232.451C147.958 232.398 147.89 232.357 147.816 232.331C147.743 232.304 147.665 232.294 147.587 232.299H142.997C142.922 232.3 142.848 232.315 142.779 232.344C142.71 232.372 142.647 232.415 142.594 232.468C142.542 232.521 142.5 232.584 142.472 232.653C142.444 232.723 142.429 232.797 142.43 232.871V232.869ZM133.25 232.869C133.25 233.019 133.311 233.164 133.417 233.27C133.524 233.376 133.669 233.436 133.819 233.436H138.409C138.553 233.426 138.688 233.362 138.786 233.256C138.885 233.151 138.94 233.012 138.94 232.867C138.94 232.723 138.885 232.584 138.786 232.479C138.688 232.373 138.553 232.309 138.409 232.299H133.819C133.67 232.303 133.529 232.365 133.425 232.472C133.321 232.579 133.263 232.722 133.263 232.871L133.25 232.869ZM124.091 232.804C124.078 232.954 124.124 233.103 124.22 233.218C124.315 233.334 124.452 233.409 124.601 233.425C124.688 233.425 124.774 233.425 124.871 233.425H129.254C129.397 233.415 129.532 233.351 129.631 233.245C129.729 233.14 129.784 233.001 129.784 232.857C129.784 232.712 129.729 232.573 129.631 232.468C129.532 232.362 129.397 232.298 129.254 232.288H124.871C124.822 232.291 124.772 232.291 124.723 232.288C124.648 232.281 124.573 232.289 124.501 232.311C124.429 232.334 124.363 232.37 124.306 232.418C124.248 232.467 124.2 232.526 124.166 232.592C124.132 232.659 124.111 232.732 124.105 232.807L124.091 232.804Z" fill="white"/>
<path d="M149.102 184.39H113.397C112.1 184.39 111.048 185.442 111.048 186.739V205.296C111.048 206.594 112.1 207.645 113.397 207.645H149.102C150.399 207.645 151.451 206.594 151.451 205.296V186.739C151.451 185.442 150.399 184.39 149.102 184.39Z" fill="#B2B6BB"/>
<path opacity="0.2" d="M113.867 205.296V186.75C113.867 186.127 114.115 185.53 114.556 185.09C114.996 184.649 115.593 184.402 116.216 184.401H113.397C112.774 184.402 112.177 184.649 111.737 185.09C111.297 185.53 111.049 186.127 111.048 186.75V205.307C111.048 205.615 111.109 205.921 111.227 206.206C111.345 206.491 111.518 206.75 111.736 206.968C111.954 207.186 112.213 207.359 112.498 207.477C112.783 207.595 113.088 207.656 113.397 207.656H116.216C115.906 207.656 115.6 207.595 115.314 207.476C115.029 207.357 114.769 207.184 114.551 206.964C114.333 206.745 114.16 206.485 114.042 206.198C113.925 205.912 113.865 205.606 113.867 205.296Z" fill="black"/>
<path opacity="0.2" d="M134.23 202.178C134.951 203.068 135.852 203.796 136.873 204.315C137.894 204.835 139.013 205.133 140.158 205.192C141.302 205.251 142.446 205.069 143.514 204.657C144.583 204.245 145.554 203.613 146.363 202.801C147.172 201.99 147.801 201.017 148.21 199.947C148.618 198.877 148.797 197.733 148.735 196.589C148.673 195.445 148.37 194.326 147.848 193.307C147.326 192.287 146.594 191.389 145.702 190.67C146.973 192.237 147.618 194.22 147.515 196.235C147.411 198.249 146.566 200.155 145.142 201.584C143.717 203.012 141.814 203.863 139.8 203.973C137.785 204.083 135.801 203.443 134.23 202.178Z" fill="black"/>
<path d="M131.152 195.782C131.152 197.398 131.631 198.979 132.528 200.323C133.426 201.668 134.703 202.716 136.196 203.334C137.69 203.954 139.333 204.116 140.919 203.8C142.504 203.485 143.961 202.707 145.104 201.564C146.247 200.42 147.026 198.964 147.341 197.378C147.656 195.793 147.494 194.149 146.875 192.655C146.256 191.162 145.208 189.886 143.864 188.988C142.519 188.09 140.939 187.611 139.322 187.611C137.155 187.611 135.077 188.472 133.545 190.004C132.013 191.537 131.152 193.615 131.152 195.782Z" fill="#61656D"/>
<path opacity="0.2" d="M131.152 195.39L139.719 203.957C141.184 203.884 142.603 203.418 143.825 202.608C145.047 201.797 146.029 200.672 146.666 199.351L135.758 188.443C134.437 189.08 133.312 190.062 132.501 191.284C131.691 192.506 131.225 193.925 131.152 195.39Z" fill="white"/>
<path d="M220.33 235.682L206.185 236.038L211.828 232.021C212.284 231.7 212.659 231.276 212.922 230.783C213.184 230.291 213.328 229.744 213.34 229.186L213.588 224.701L221.265 224.728L220.33 235.682Z" fill="#C68D8D"/>
<path opacity="0.15" d="M218.762 230.509V230.425C218.788 230.192 218.722 229.958 218.578 229.773C218.435 229.588 218.224 229.467 217.992 229.434L213.402 228.775L213.456 227.893H221.078L220.39 235.38L214.226 234.691L216.261 233.881C216.944 233.597 217.536 233.133 217.976 232.539C218.416 231.946 218.688 231.244 218.762 230.509Z" fill="black"/>
<path d="M245.783 235.407H239.427L238.245 224.647L245.756 224.674L245.783 235.407Z" fill="#C68D8D"/>
<path opacity="0.15" d="M244.188 233.59L244.023 230.288C244.007 230.08 243.923 229.884 243.785 229.729C243.645 229.574 243.459 229.471 243.253 229.434L238.685 228.746L238.574 227.839L245.729 227.866L245.756 235.488L244.188 233.59Z" fill="black"/>
<path d="M244.792 144.163L246.196 228.37H237.942L230.76 156.655C230.733 156.433 230.625 156.228 230.458 156.078C230.291 155.929 230.075 155.847 229.851 155.845C229.629 155.844 229.413 155.926 229.251 156.077C229.086 156.227 228.987 156.434 228.97 156.655L221.321 228.37H213.07L214.96 144.163H244.792Z" fill="#F14F5C"/>
<path d="M246.418 228.37H237.61L237.446 226.58H246.391L246.418 228.37Z" fill="#F14F5C"/>
<path opacity="0.2" d="M246.418 228.37H237.61L237.446 226.58H246.391L246.418 228.37Z" fill="black"/>
<path opacity="0.2" d="M246.418 228.37H242.729L242.648 226.58H246.391L246.418 228.37Z" fill="black"/>
<path opacity="0.2" d="M218.119 227.868L224.512 159.656C224.638 158.604 225.144 157.635 225.935 156.931C226.725 156.227 227.747 155.836 228.805 155.832H229.823C229.602 155.83 229.386 155.913 229.224 156.063C229.059 156.214 228.959 156.421 228.943 156.642L221.348 227.984L218.119 227.868Z" fill="black"/>
<path d="M221.513 228.37H212.735L212.873 226.58H221.707L221.513 228.37Z" fill="#F14F5C"/>
<path opacity="0.2" d="M221.513 228.37H212.735L212.873 226.58H221.707L221.513 228.37Z" fill="black"/>
<path opacity="0.2" d="M221.577 228.37H218.119L218.246 226.58H221.707L221.577 228.37Z" fill="black"/>
<path opacity="0.2" d="M244.792 144.163L246.223 226.526L242.675 226.553L240.969 140.423L244.792 144.163Z" fill="black"/>
<path d="M201.095 238.02V237.718C201.095 237.48 201.142 237.243 201.233 237.024C201.324 236.803 201.458 236.603 201.626 236.433C201.794 236.265 201.995 236.13 202.215 236.038C202.435 235.947 202.671 235.901 202.91 235.901H205.442C205.707 235.903 205.97 235.852 206.215 235.755C206.461 235.655 206.685 235.509 206.873 235.323L213.353 229.186L215.362 231.829C215.52 232.035 215.722 232.204 215.953 232.321C216.185 232.439 216.44 232.502 216.699 232.507C216.959 232.513 217.216 232.459 217.452 232.351C217.688 232.243 217.897 232.083 218.062 231.883C218.226 231.691 218.428 231.535 218.655 231.426C218.883 231.317 219.13 231.258 219.383 231.251H220.733V237.91L201.095 238.02Z" fill="#21252B"/>
<path d="M201.095 238.02V239.011H220.77V237.91L201.095 238.02Z" fill="black"/>
<path d="M214.633 230.838L210.259 234.389C210.025 234.575 209.731 234.67 209.433 234.653C209.135 234.637 208.853 234.513 208.639 234.305L208.31 233.976L213.34 229.186C213.47 229.149 213.609 229.153 213.737 229.197C213.865 229.242 213.976 229.324 214.055 229.434L214.579 230.177C214.646 230.261 214.69 230.362 214.704 230.469C214.718 230.576 214.703 230.685 214.66 230.784L214.633 230.838Z" fill="black"/>
<path d="M240.254 230.536H239.73C239.492 230.533 239.26 230.619 239.082 230.777C238.906 230.934 238.793 231.153 238.766 231.389L238.658 233.371C238.625 233.984 238.463 234.583 238.188 235.131L237.996 235.488C237.645 236.179 237.467 236.943 237.473 237.718V238.074H247.546C247.544 237.092 247.247 236.136 246.693 235.323C246.28 234.716 246.026 234.016 245.951 233.288L245.74 231.3C245.691 231.081 245.57 230.884 245.394 230.744C245.219 230.604 245 230.529 244.776 230.531H244.42" fill="#21252B"/>
<path d="M247.49 238.047H237.446V239.011H247.49V238.047Z" fill="black"/>
<path d="M241.574 229.626H243.059C243.237 229.625 243.413 229.662 243.575 229.735C243.737 229.808 243.88 229.914 243.996 230.047C244.115 230.18 244.201 230.336 244.255 230.506C244.306 230.675 244.32 230.854 244.298 231.03L243.969 233.73C243.915 234.13 243.718 234.499 243.415 234.767C243.11 235.034 242.721 235.183 242.316 235.188C241.906 235.191 241.509 235.042 241.204 234.767C240.896 234.491 240.707 234.111 240.667 233.703L240.364 231.003C240.34 230.83 240.351 230.654 240.402 230.487C240.451 230.32 240.534 230.165 240.65 230.034C240.767 229.903 240.907 229.799 241.066 229.728C241.226 229.658 241.398 229.623 241.574 229.626Z" fill="black"/>
<path d="M239.649 231.416H244.987" stroke="white" stroke-width="1.34" stroke-linecap="round" stroke-linejoin="round"/>
<path d="M239.813 232.682H244.822" stroke="white" stroke-width="1.34" stroke-linecap="round" stroke-linejoin="round"/>
<path d="M239.951 233.919H244.684" stroke="white" stroke-width="1.34" stroke-linecap="round" stroke-linejoin="round"/>
<path d="M209.625 232.105L211.58 233.949" stroke="white" stroke-width="1.34" stroke-linecap="round" stroke-linejoin="round"/>
<path d="M210.672 231.141L212.681 233.039" stroke="white" stroke-width="1.34" stroke-linecap="round" stroke-linejoin="round"/>
<path d="M211.744 230.234L213.726 232.105" stroke="white" stroke-width="1.34" stroke-linecap="round" stroke-linejoin="round"/>
<path d="M211.38 114.66L213.71 111.868L214.607 143.82C214.618 143.901 214.657 143.975 214.717 144.03C214.777 144.086 214.854 144.118 214.936 144.122H244.547C244.733 144.125 244.911 144.055 245.046 143.926C245.178 143.798 245.257 143.622 245.262 143.437L246.196 115.176L251.464 103.274C251.464 100.255 248.813 99.108 246.693 98.5572L235.523 95.5872L234.665 96.5592C234.119 97.1786 233.431 97.6559 232.659 97.9502C231.886 98.2445 231.055 98.3471 230.234 98.2488C229.416 98.1506 228.631 97.8544 227.951 97.3859C227.271 96.9177 226.714 96.2911 226.33 95.5602H227.237L215.573 97.6932H215.541C213.934 97.8176 212.439 98.5647 211.375 99.7749L204.919 109.187L211.38 114.66Z" fill="#21252B"/>
<path opacity="0.3" d="M236.452 101.651C236.452 101.651 235.701 99.3942 234.446 99.1431L229.697 102.41C229.697 102.41 227.669 99.8964 225.161 99.1431C224.241 99.6863 223.483 100.464 222.963 101.398L223.152 97.8876L235.472 97.6176C235.472 97.6176 236.954 100.647 236.452 101.651Z" fill="black"/>
<path d="M204.919 109.171L200.869 114.112L181.291 123.902L184.302 127.166C184.302 127.166 201.636 122.46 206.004 120.368C206.492 120.136 206.924 119.802 207.273 119.39L211.38 114.66L204.919 109.171Z" fill="#B88989"/>
<path d="M181.793 123.902L177.127 121.842L173.11 120.276C173.003 120.233 172.887 120.218 172.773 120.235C172.659 120.252 172.552 120.298 172.462 120.371C172.316 120.497 172.246 120.673 172.548 120.873L177.387 124.474C177.427 124.505 177.456 124.547 177.471 124.595C177.486 124.643 177.486 124.694 177.47 124.742C177.454 124.79 177.424 124.831 177.383 124.861C177.343 124.89 177.294 124.906 177.244 124.906H174.814C174.814 124.906 174.017 125.808 175.432 126.089L179.965 127.223C179.965 127.223 183.081 128.074 184.498 126.953L181.793 123.902Z" fill="#B88989"/>
<path d="M235.496 94.7394L236.006 95.1903C236.006 95.1903 237.959 98.1387 236.816 101.471L236.441 101.651L236.411 101.365C236.344 100.763 236.123 100.188 235.769 99.6958C235.415 99.2036 234.943 98.8108 234.392 98.5545C232.696 99.6772 231.119 100.969 229.686 102.41C229.686 102.41 227.545 99.3321 225.218 98.6112C225.218 98.6112 223.514 98.8812 222.952 101.398L222.609 101.336C222.609 101.336 221.799 97.6149 223.606 95.4927L224.707 94.5315C225.009 94.3528 225.353 94.2596 225.704 94.2615H234.203C234.678 94.2578 235.137 94.4279 235.496 94.7394Z" fill="#21252B"/>
<path d="M235.496 94.7394L236.006 95.1903C236.006 95.1903 237.959 98.1387 236.816 101.471L236.441 101.651L236.411 101.365C236.344 100.763 236.123 100.188 235.769 99.6958C235.415 99.2036 234.943 98.8108 234.392 98.5545C232.696 99.6772 231.119 100.969 229.686 102.41C229.686 102.41 227.545 99.3321 225.218 98.6112C225.218 98.6112 223.514 98.8812 222.952 101.398L222.609 101.336C222.609 101.336 221.799 97.6149 223.606 95.4927L224.707 94.5315C225.009 94.3528 225.353 94.2596 225.704 94.2615H234.203C234.678 94.2578 235.137 94.4279 235.496 94.7394Z" fill="white"/>
<path opacity="0.3" d="M238.763 144.112L241.193 144.193H244.525C244.736 144.197 244.938 144.118 245.089 143.973C245.241 143.829 245.33 143.63 245.335 143.42L246.89 115.216L244.317 113.434C244.247 113.28 244.128 113.153 243.98 113.074C243.831 112.994 243.661 112.966 243.494 112.994C243.326 113.022 243.175 113.105 243.059 113.229C242.945 113.353 242.875 113.511 242.859 113.68L242.659 127.955L238.763 144.112Z" fill="black"/>
<path opacity="0.2" d="M238.763 144.112L237.932 146.515L237.47 145.729C237.373 145.827 237.308 145.951 237.281 146.086C237.257 146.221 237.27 146.361 237.324 146.488C237.77 147.503 239.068 150.095 241.496 152.014L240.146 144.184L238.763 144.112Z" fill="black"/>
<path d="M223.255 83.8611C223.909 83.8611 224.548 83.667 225.092 83.3036C225.636 82.9401 226.06 82.4236 226.31 81.8194C226.561 81.2148 226.626 80.5498 226.499 79.9083C226.371 79.2668 226.056 78.6774 225.593 78.2149C225.131 77.7521 224.542 77.4373 223.9 77.3096C223.258 77.1819 222.593 77.2475 221.989 77.4977C221.385 77.748 220.868 78.1719 220.505 78.716C220.141 79.2598 219.947 79.8994 219.947 80.5536C219.946 80.9883 220.03 81.419 220.196 81.821C220.362 82.2227 220.605 82.5881 220.913 82.8956C221.22 83.2028 221.585 83.4464 221.987 83.6122C222.389 83.7779 222.82 83.8625 223.255 83.8611Z" fill="black"/>
<path d="M251.367 102.999L253.64 127.987C253.726 129.084 253.435 130.178 252.814 131.087L243.118 147.632C243.267 148.441 243.194 149.274 242.91 150.046C242.624 150.817 242.138 151.497 241.498 152.014C241.498 152.014 239.219 149.466 238.369 147.028L245.689 128.684L245.554 116.32L251.367 102.999Z" fill="#B88989"/>
<path d="M234.67 95.679C234.67 95.8167 230.212 101.503 229.61 101.503C229.005 101.2 225.204 96.1731 225.231 96.0381L225.396 92.6793V90.7893C225.288 90.3492 224.764 89.9361 224.764 89.3583C224.599 86.688 224.297 84.2661 224.297 84.2661C224.297 84.2661 233.02 78.4314 233.568 85.23L234.249 86.5071L234.67 95.679Z" fill="#B88989"/>
<path d="M244.144 116.612L243.612 112.443L251.464 102.661L252.565 115.34L244.144 116.612Z" fill="#21252B"/>
<path d="M244.144 116.612L245.686 128.684L239.476 144.241L243.116 147.632L252.811 131.087C253.432 130.178 253.724 129.084 253.638 127.987L252.558 115.34L244.144 116.612Z" fill="#B88989"/>
<path d="M212.092 113.891L205.477 108.347L204.913 109.241L211.374 114.736L212.092 113.891Z" fill="white"/>
<path d="M252.439 113.982L243.977 115.408L244.139 116.682L252.56 115.408L252.439 113.982Z" fill="white"/>
<path d="M223.471 77.8509C223.471 77.8509 219.726 92.3363 227.291 93.3839C233.844 94.283 234.613 84.0527 234.613 84.0527L234.343 79.2899L229.297 77.2542L223.471 77.8509Z" fill="#B88989"/>
<path opacity="0.15" d="M234.219 86.58C234.044 86.5419 233.879 86.4636 233.739 86.3511C233.598 86.2387 233.485 86.0951 233.409 85.932L234.26 87.5142L234.219 86.58Z" fill="black"/>
<path opacity="0.15" d="M231.662 91.9504C230.841 92.9037 229.691 93.5107 228.441 93.6486C227.504 94.2624 226.395 94.5613 225.277 94.5019L225.423 92.6442L225.674 92.7928C226.609 93.3087 227.694 93.4864 228.745 93.2955C229.796 93.1049 230.749 92.557 231.443 91.7452C231.473 91.6885 231.586 91.6938 231.643 91.7235C231.667 91.7562 231.681 91.7946 231.684 91.8342C231.686 91.8742 231.678 91.9142 231.662 91.9504Z" fill="black"/>
<path d="M228.771 83.88C228.893 83.8843 229.011 83.9251 229.111 83.9966C229.211 84.0682 229.286 84.1678 229.329 84.2826C229.373 84.3976 229.381 84.5226 229.354 84.6419C229.327 84.7615 229.262 84.8701 229.173 84.9538C229.084 85.0377 228.971 85.0934 228.85 85.1133C228.73 85.1333 228.605 85.1171 228.494 85.0666C228.381 85.0164 228.287 84.9338 228.222 84.8298C228.157 84.7259 228.124 84.6049 228.128 84.4821C228.131 84.4005 228.149 84.3198 228.183 84.2453C228.217 84.1708 228.265 84.1035 228.324 84.0477C228.384 83.9915 228.454 83.948 228.531 83.9194C228.607 83.8905 228.689 83.8773 228.771 83.88Z" fill="black"/>
<path d="M228.565 84.3199C228.567 84.2572 228.518 84.2049 228.455 84.2027C228.393 84.2005 228.34 84.2497 228.338 84.3123C228.336 84.375 228.385 84.4273 228.448 84.4295C228.51 84.4314 228.563 84.3825 228.565 84.3199Z" fill="white"/>
<path d="M223.919 85.1328C224.262 85.1328 224.54 84.8547 224.54 84.5117C224.54 84.1688 224.262 83.8907 223.919 83.8907C223.576 83.8907 223.298 84.1688 223.298 84.5117C223.298 84.8547 223.576 85.1328 223.919 85.1328Z" fill="black"/>
<path d="M223.762 84.2974C223.764 84.2348 223.715 84.1824 223.652 84.1802C223.59 84.1781 223.537 84.2272 223.535 84.2899C223.533 84.3525 223.582 84.4049 223.645 84.4071C223.707 84.4089 223.76 84.3601 223.762 84.2974Z" fill="white"/>
<path opacity="0.2" d="M226.003 88.0002L226.794 88.0542C226.84 88.0491 226.883 88.031 226.919 88.0024C226.955 87.9737 226.982 87.9354 226.997 87.8922C226.992 87.8463 226.974 87.8031 226.946 87.7672C226.917 87.7313 226.878 87.7043 226.835 87.6897L226.044 87.6357C225.849 87.6006 225.685 87.4251 225.72 87.255C225.729 87.1627 225.774 87.0779 225.844 87.0174C225.914 86.9572 226.005 86.9261 226.098 86.931C226.143 86.9253 226.187 86.9067 226.223 86.8775C226.258 86.8484 226.285 86.8098 226.3 86.7663C226.33 86.6826 226.222 86.5962 226.138 86.5638C225.949 86.5511 225.762 86.6116 225.616 86.7328C225.47 86.8538 225.376 87.026 225.353 87.2145C225.341 87.309 225.349 87.4051 225.376 87.4966C225.403 87.5882 225.449 87.6732 225.51 87.7467C225.571 87.8201 225.646 87.8803 225.73 87.9241C225.815 87.9675 225.908 87.9934 226.003 88.0002Z" fill="black"/>
<path opacity="0.2" d="M245.662 128.776L247.101 128.587C247.179 128.588 247.26 128.571 247.33 128.539C247.403 128.506 247.468 128.458 247.519 128.398C247.571 128.337 247.608 128.266 247.63 128.19C247.652 128.113 247.654 128.033 247.641 127.955L245.51 127.396L245.662 128.776Z" fill="black"/>
<path d="M222.423 73.6604C222.83 73.4026 223.294 73.2498 223.774 73.2158C224.254 73.182 224.735 73.2679 225.174 73.466C225.394 73.5643 225.643 73.5789 225.873 73.5074C226.103 73.4358 226.299 73.283 226.424 73.0772C226.737 72.585 227.168 72.179 227.678 71.896C228.187 71.613 228.76 71.4621 229.343 71.4572C231.427 71.3735 232.343 72.5129 232.732 73.1528C232.804 73.2838 232.91 73.395 233.037 73.4771C233.161 73.5595 233.307 73.6102 233.455 73.6253C234.427 73.763 236.401 74.4866 237.097 76.4873C238.321 79.9973 235.791 83.8529 235.791 83.8529L234.233 82.8782L233.963 83.3237L233.693 84.6737C233.693 84.8141 233.498 84.9248 233.361 84.9248C233.282 84.9146 233.209 84.8746 233.158 84.8128C233.11 84.751 233.085 84.6721 233.091 84.5927L233.174 83.1455C233.18 83.0902 233.174 83.0343 233.158 82.9814C233.142 82.9285 233.115 82.8793 233.077 82.8377C233.042 82.7959 232.996 82.7624 232.948 82.7392C232.896 82.716 232.842 82.7036 232.786 82.7027C232.591 82.686 232.399 82.6309 232.227 82.5402C232.051 82.4495 231.897 82.3253 231.773 82.1746C231.646 82.024 231.552 81.8498 231.495 81.6624C231.436 81.4751 231.417 81.278 231.436 81.0827C231.457 80.887 231.441 80.6885 231.384 80.4995C231.328 80.3108 231.233 80.1353 231.106 79.9838C230.982 79.8326 230.825 79.7082 230.65 79.6188C230.474 79.5292 230.283 79.476 230.086 79.4628L223.449 79.0199C221.17 78.6635 220.309 74.9699 222.423 73.6604Z" fill="black"/>
<path d="M228.236 89.1936C228.33 89.1936 228.36 89.2584 228.346 89.3367C228.266 89.6445 228.094 89.9204 227.853 90.1281C227.612 90.3357 227.313 90.465 226.997 90.4985C226.681 90.5323 226.362 90.4688 226.082 90.3168C225.803 90.1648 225.577 89.931 225.433 89.6472C225.425 89.6315 225.42 89.614 225.42 89.5964C225.419 89.5786 225.423 89.5611 225.431 89.5451C225.438 89.5289 225.45 89.5149 225.464 89.5041C225.478 89.4933 225.494 89.4857 225.511 89.4825L228.236 89.1936Z" fill="white"/>
<path d="M234.046 83.2698C234.087 83.1059 234.16 82.9526 234.265 82.8205C234.37 82.6885 234.503 82.581 234.654 82.5054C234.802 82.4298 234.97 82.388 235.137 82.3829C235.304 82.3777 235.475 82.4096 235.628 82.476C237.081 82.9485 236.727 85.905 234.756 86.526C233.536 86.7393 233.728 86.0103 233.846 85.0275L234.046 83.2698Z" fill="#B88989"/>
<path opacity="0.2" d="M235.769 83.2995C235.669 83.2293 235.553 83.1832 235.431 83.1643C235.31 83.1456 235.186 83.1548 235.067 83.1916C234.959 83.2323 234.856 83.2944 234.773 83.3741C234.686 83.454 234.619 83.5496 234.57 83.656C234.438 83.9262 234.389 84.2297 234.43 84.528V84.7818C234.44 84.8167 234.462 84.8469 234.492 84.8666C234.521 84.8861 234.559 84.8936 234.594 84.8877C234.629 84.8815 234.662 84.8623 234.686 84.8337C234.708 84.8051 234.719 84.7694 234.716 84.7332V84.4794C234.705 84.2308 234.74 83.9821 234.824 83.7477C234.894 83.6068 235.007 83.4923 235.148 83.4208C235.302 83.3916 235.458 83.4165 235.596 83.4912C235.631 83.5058 235.669 83.5091 235.704 83.5004C235.739 83.4915 235.772 83.4713 235.796 83.4426C235.85 83.4453 235.826 83.3589 235.769 83.2995Z" fill="black"/>
<path d="M227.45 82.8595C227.501 82.9567 227.99 82.8811 228.546 82.9C229.102 82.9189 229.578 83.008 229.648 82.9135C229.678 82.8676 229.594 82.7785 229.402 82.6921C229.146 82.5841 228.87 82.5263 228.592 82.522C228.303 82.5117 228.014 82.5557 227.741 82.6516C227.525 82.7272 227.426 82.8136 227.45 82.8595Z" fill="black"/>
<path d="M225.066 82.8621C225.012 82.9593 224.526 82.881 223.967 82.8999C223.408 82.9188 222.936 83.0052 222.865 82.8999C222.836 82.854 222.922 82.7649 223.111 82.6785C223.373 82.5702 223.654 82.5132 223.937 82.5111C224.225 82.5019 224.513 82.5459 224.785 82.6407C224.99 82.7298 225.087 82.8162 225.066 82.8621Z" fill="black"/>
<path opacity="0.15" d="M183.764 126.575L184.304 127.161C184.304 127.161 201.638 122.455 206.007 120.362C206.494 120.13 206.927 119.797 207.276 119.385L211.342 114.709L209.906 113.85L206.05 118.383C205.808 118.69 205.484 118.922 205.116 119.053L183.764 126.575Z" fill="black"/>
<path opacity="0.3" d="M213.275 104.746L213.156 109.576L210.076 113.731L211.339 114.714L213.737 111.925V104.751C213.737 104.721 213.731 104.691 213.719 104.663C213.708 104.635 213.691 104.61 213.67 104.589C213.648 104.567 213.623 104.551 213.595 104.539C213.567 104.527 213.538 104.521 213.507 104.521C213.447 104.521 213.389 104.544 213.345 104.586C213.302 104.628 213.277 104.685 213.275 104.746Z" fill="black"/>
<path opacity="0.15" d="M183.764 126.575C183.764 126.575 182.646 127.282 179.96 127.223C179.96 127.223 182.797 127.917 184.301 127.166L183.764 126.575Z" fill="black"/>
<path d="M303.858 197.061H254.704V217.087H303.858V197.061Z" fill="#DADDDF"/>
<path opacity="0.15" d="M303.86 197.061H272.546V217.087H303.86V197.061Z" fill="black"/>
<path d="M306.406 195.239H252.155V199.972H306.406V195.239Z" fill="#F14F5C"/>
<path opacity="0.1" d="M306.406 195.239H272.546V199.972H306.406V195.239Z" fill="black"/>
<path opacity="0.1" d="M303.858 199.972H254.704V200.701H303.858V199.972Z" fill="black"/>
<path d="M269.268 209.441H257.617V213.809H269.268V209.441Z" fill="white"/>
<path opacity="0.15" d="M267.451 203.979H258.711V205.799H267.451V203.979Z" fill="black"/>
<path d="M299.513 218.931H250.36V238.957H299.513V218.931Z" fill="#DADDDF"/>
<path opacity="0.15" d="M299.516 218.931H268.201V238.957H299.516V218.931Z" fill="black"/>
<path d="M302.062 217.109H247.811V221.842H302.062V217.109Z" fill="#F14F5C"/>
<path opacity="0.1" d="M302.062 217.109H268.201V221.842H302.062V217.109Z" fill="black"/>
<path opacity="0.1" d="M299.513 221.842H250.36V222.571H299.513V221.842Z" fill="black"/>
<path d="M264.923 231.311H253.273V235.679H264.923V231.311Z" fill="white"/>
<path opacity="0.15" d="M263.106 225.849H254.366V227.668H263.106V225.849Z" fill="black"/>
<path d="M91.9796 149.306C100.957 146.222 105.735 136.444 102.651 127.466C99.5663 118.488 89.788 113.711 80.8105 116.795C71.8328 119.879 67.0551 129.657 70.1393 138.635C73.2235 147.613 83.0018 152.391 91.9796 149.306Z" fill="#DADDDF"/>
<path opacity="0.2" d="M91.9796 149.306C100.957 146.222 105.735 136.444 102.651 127.466C99.5663 118.488 89.788 113.711 80.8105 116.795C71.8328 119.879 67.0551 129.657 70.1393 138.635C73.2235 147.613 83.0018 152.391 91.9796 149.306Z" fill="black"/>
<path d="M86.2998 149.999C95.766 149.29 102.866 141.042 102.157 131.576C101.449 122.109 93.2005 115.01 83.7343 115.718C74.2678 116.427 67.1681 124.675 67.8766 134.141C68.5851 143.608 76.8333 150.707 86.2998 149.999Z" fill="#61656D"/>
<path d="M86.2998 149.999C95.766 149.29 102.866 141.042 102.157 131.576C101.449 122.109 93.2005 115.01 83.7343 115.718C74.2678 116.427 67.1681 124.675 67.8766 134.141C68.5851 143.608 76.8333 150.707 86.2998 149.999Z" fill="#DADDDF"/>
<path opacity="0.2" d="M92.0024 144.731C98.5702 140.879 100.772 132.433 96.9202 125.865C93.0684 119.297 84.6217 117.095 78.054 120.947C71.4862 124.799 69.2844 133.245 73.1362 139.813C76.988 146.381 85.4347 148.583 92.0024 144.731Z" fill="black"/>
<path opacity="0.2" d="M71.9601 132.267C72.2658 128.623 74.0065 125.25 76.7991 122.89C79.5914 120.53 83.207 119.376 86.8506 119.682C89.6937 119.92 92.5449 121.289 94.6104 122.949C91.9817 120.409 88.4515 119.017 84.7968 119.08C81.1418 119.143 77.6617 120.655 75.1218 123.284C72.5817 125.913 71.1901 129.443 71.253 133.098C71.3157 136.752 72.8279 140.233 75.4566 142.772C74.192 141.248 73.271 139.469 72.7567 137.556C72.2869 135.99 71.8143 134.003 71.9601 132.267Z" fill="black"/>
<path d="M83.3916 142.294L83.5563 140.323C81.3369 140.035 80.2866 139.181 80.5134 136.5C80.5569 135.923 80.6471 135.351 80.7834 134.788L83.5941 135.023C83.5382 135.281 83.4994 135.541 83.478 135.804C83.3781 136.97 83.3997 137.634 84.5391 137.729C85.6785 137.823 85.8135 137.429 85.9377 135.936C85.9998 135.202 86.0214 134.948 85.6461 134.559C84.8766 133.706 82.8462 132.998 81.9174 132.207C81.0831 131.527 80.9535 130.649 81.1506 128.295C81.3774 125.595 82.2657 124.744 84.855 124.834L84.9873 123.268L86.583 123.403L86.4507 124.969C88.8213 125.268 89.5854 126.175 89.3856 128.578C89.3435 129.095 89.266 129.609 89.1534 130.115L86.3697 129.88C86.4164 129.596 86.4489 129.309 86.4669 129.021C86.556 127.96 86.448 127.401 85.3869 127.326C84.4743 127.25 84.1962 127.531 84.0909 128.797C83.9802 130.112 84.045 130.247 84.8739 130.687C85.773 131.195 86.6613 131.551 87.4389 131.999C88.5324 132.65 89.2695 132.966 89.0589 135.574C88.7511 139.243 87.9627 140.45 85.1601 140.434L84.9927 142.429L83.3916 142.294Z" fill="#DADDDF"/>
<path d="M278.818 171.437C287.795 168.353 292.572 158.574 289.488 149.597C286.402 140.619 276.625 135.841 267.648 138.925C258.67 142.01 253.891 151.788 256.978 160.766C260.061 169.744 269.838 174.521 278.818 171.437Z" fill="#DADDDF"/>
<path opacity="0.2" d="M278.818 171.437C287.795 168.353 292.572 158.574 289.488 149.597C286.402 140.619 276.625 135.841 267.648 138.925C258.67 142.01 253.891 151.788 256.978 160.766C260.061 169.744 269.838 174.521 278.818 171.437Z" fill="black"/>
<path d="M273.139 172.149C282.606 171.44 289.707 163.192 288.997 153.725C288.289 144.259 280.041 137.16 270.574 137.868C261.108 138.577 254.007 146.825 254.717 156.291C255.425 165.757 263.673 172.857 273.139 172.149Z" fill="#61656D"/>
<path d="M273.139 172.149C282.606 171.44 289.707 163.192 288.997 153.725C288.289 144.259 280.041 137.16 270.574 137.868C261.108 138.577 254.007 146.825 254.717 156.291C255.425 165.757 263.673 172.857 273.139 172.149Z" fill="#DADDDF"/>
<path opacity="0.2" d="M278.839 166.863C285.406 163.012 287.609 154.565 283.756 147.997C279.903 141.429 271.458 139.228 264.891 143.079C258.322 146.931 256.122 155.378 259.972 161.946C263.825 168.513 272.27 170.715 278.839 166.863Z" fill="black"/>
<path opacity="0.2" d="M258.8 154.407C259.105 150.763 260.846 147.39 263.638 145.03C266.433 142.67 270.048 141.516 273.69 141.822C276.533 142.06 279.385 143.429 281.45 145.089C280.149 143.831 278.612 142.842 276.928 142.178C275.246 141.515 273.447 141.189 271.636 141.22C269.827 141.251 268.042 141.638 266.381 142.36C264.721 143.081 263.22 144.122 261.962 145.424C260.703 146.725 259.715 148.262 259.051 149.946C258.387 151.629 258.063 153.428 258.092 155.238C258.125 157.047 258.511 158.833 259.232 160.493C259.953 162.153 260.995 163.655 262.296 164.912C261.033 163.388 260.112 161.609 259.596 159.696C259.127 158.13 258.654 156.143 258.8 154.407Z" fill="black"/>
<path d="M270.232 164.434L270.396 162.463C268.177 162.175 267.127 161.321 267.354 158.64C267.397 158.063 267.489 157.491 267.624 156.928L270.434 157.163C270.378 157.421 270.34 157.681 270.318 157.944C270.218 159.11 270.24 159.774 271.379 159.869C272.519 159.963 272.654 159.569 272.778 158.076C272.84 157.342 272.862 157.088 272.486 156.699C271.717 155.846 269.686 155.138 268.758 154.347C267.923 153.667 267.794 152.789 267.991 150.435C268.218 147.735 269.106 146.884 271.695 146.974L271.827 145.408L273.423 145.543L273.291 147.109C275.661 147.408 276.426 148.315 276.226 150.718C276.183 151.235 276.107 151.749 275.994 152.255L273.21 152.02C273.256 151.736 273.288 151.449 273.307 151.161C273.396 150.1 273.288 149.541 272.227 149.466C271.314 149.39 271.036 149.671 270.931 150.937C270.82 152.252 270.885 152.387 271.714 152.827C272.613 153.335 273.501 153.691 274.279 154.139C275.359 154.79 276.11 155.106 275.899 157.714C275.591 161.384 274.803 162.59 272 162.574L271.833 164.569L270.232 164.434Z" fill="#DADDDF"/>
<path d="M193.765 72.6232C202.743 69.539 207.52 59.7607 204.436 50.7829C201.351 41.8051 191.573 37.0275 182.596 40.1117C173.618 43.1962 168.84 52.9742 171.924 61.952C175.009 70.9298 184.787 75.7074 193.765 72.6232Z" fill="#DADDDF"/>
<path opacity="0.2" d="M193.765 72.6232C202.743 69.539 207.52 59.7607 204.436 50.7829C201.351 41.8051 191.573 37.0275 182.596 40.1117C173.618 43.1962 168.84 52.9742 171.924 61.952C175.009 70.9298 184.787 75.7074 193.765 72.6232Z" fill="black"/>
<path d="M188.093 73.323C197.56 72.6148 204.66 64.3663 203.951 54.9001C203.243 45.4339 194.994 38.3343 185.528 39.0428C176.062 39.751 168.962 47.9995 169.671 57.4657C170.379 66.9319 178.627 74.0315 188.093 73.323Z" fill="#61656D"/>
<path d="M188.093 73.323C197.56 72.6148 204.66 64.3663 203.951 54.9001C203.243 45.4339 194.994 38.3343 185.528 39.0428C176.062 39.751 168.962 47.9995 169.671 57.4657C170.379 66.9319 178.627 74.0315 188.093 73.323Z" fill="#DADDDF"/>
<path opacity="0.2" d="M193.787 68.0491C200.355 64.1973 202.557 55.7506 198.705 49.1829C194.853 42.6151 186.407 40.4133 179.839 44.2651C173.271 48.1169 171.069 56.5636 174.921 63.1313C178.773 69.6991 187.219 71.9009 193.787 68.0491Z" fill="black"/>
<path opacity="0.2" d="M173.75 55.5867C174.056 51.9433 175.797 48.5705 178.589 46.2104C181.381 43.8503 184.997 42.6964 188.641 43.002C191.484 43.2396 194.335 44.6085 196.4 46.269C195.099 45.0113 193.562 44.0223 191.878 43.3584C190.195 42.6947 188.396 42.3691 186.587 42.4002C184.777 42.4312 182.991 42.8184 181.331 43.5396C179.671 44.261 178.17 45.3021 176.912 46.6038C175.654 47.9055 174.665 49.442 174.001 51.1257C173.338 52.8095 173.012 54.6077 173.043 56.4175C173.074 58.227 173.461 60.0128 174.182 61.673C174.904 63.333 175.945 64.8347 177.247 66.0924C175.982 64.568 175.061 62.7887 174.547 60.876C174.077 59.31 173.604 57.3228 173.75 55.5867Z" fill="black"/>
<path d="M185.182 65.6145L185.346 63.6435C183.127 63.3546 182.077 62.5014 182.303 59.8203C182.347 59.2434 182.437 58.6709 182.573 58.1085L185.384 58.3434C185.328 58.6008 185.289 58.8613 185.268 59.1237C185.168 60.2901 185.19 60.9543 186.329 61.0488C187.469 61.1433 187.604 60.7491 187.728 59.256C187.79 58.5216 187.811 58.2678 187.436 57.879C186.667 57.0258 184.636 56.3184 183.707 55.5273C182.873 54.8469 182.744 53.9694 182.941 51.615C183.167 48.915 184.056 48.0645 186.645 48.1536L186.777 46.5876L188.373 46.7226L188.241 48.2886C190.611 48.5883 191.375 49.4955 191.176 51.8985C191.134 52.4153 191.056 52.9286 190.943 53.4348L188.16 53.1999C188.206 52.9156 188.239 52.6289 188.257 52.3413C188.346 51.2802 188.238 50.7348 187.177 50.6457C186.264 50.5701 185.986 50.8509 185.881 52.1172C185.77 53.4321 185.835 53.5671 186.664 54.0072C187.563 54.5148 188.451 54.8712 189.229 55.3194C190.309 55.9701 191.06 56.286 190.849 58.8942C190.541 62.5635 189.753 63.7704 186.95 63.7407L186.783 65.736L185.182 65.6145Z" fill="#DADDDF"/>
<path d="M254.156 58.9968C252.306 58.9963 250.487 59.4731 248.875 60.3817C247.263 61.2902 245.913 62.5994 244.954 64.1824C243.996 65.7657 243.464 67.5696 243.407 69.4191C243.351 71.2686 243.772 73.1016 244.63 74.7405L242.77 78.1857L246.615 77.4135C247.873 78.652 249.415 79.5619 251.108 80.0628C252.801 80.5639 254.591 80.6403 256.321 80.2858C258.049 79.9313 259.664 79.1567 261.025 78.03C262.383 76.9032 263.444 75.4595 264.114 73.826C264.78 72.1925 265.037 70.4192 264.859 68.6631C264.681 66.907 264.073 65.2217 263.088 63.7564C262.105 62.2908 260.776 61.0899 259.218 60.2599C257.661 59.4299 255.922 58.996 254.156 58.9968Z" fill="white"/>
<path d="M254.156 80.7751C251.313 80.7813 248.575 79.6816 246.528 77.7079L242.26 78.5638L244.325 74.7379C243.24 72.5962 242.881 70.1587 243.307 67.7954C243.734 65.4323 244.919 63.2728 246.685 61.6453C248.451 60.0177 250.7 59.0112 253.089 58.7787C255.479 58.546 257.879 59.1003 259.926 60.3569C261.972 61.6134 263.552 63.5037 264.427 65.7407C265.299 67.9773 265.418 70.4381 264.764 72.7488C264.114 75.0597 262.723 77.0939 260.809 78.5427C258.892 79.9915 256.556 80.7753 254.156 80.7751ZM246.701 77.1301L246.804 77.23C248.686 79.0846 251.199 80.1603 253.843 80.2426C256.483 80.3247 259.059 79.4073 261.054 77.6736C263.05 75.9396 264.319 73.5169 264.605 70.8893C264.891 68.2616 264.176 65.6227 262.602 63.4991C261.03 61.3756 258.711 59.924 256.113 59.4343C253.516 58.9445 250.83 59.4526 248.591 60.8572C246.353 62.2617 244.725 64.4592 244.036 67.0107C243.345 69.5625 243.645 72.2803 244.871 74.6218L244.935 74.7514L243.28 77.8159L246.701 77.1301Z" fill="#F14F5C"/>
<path d="M254.749 73.9678C255.034 73.9678 255.265 74.1989 255.265 74.4839C255.265 74.7689 255.034 75 254.749 75H249.516C249.231 75 249 74.7689 249 74.4839C249 74.1989 249.231 73.9678 249.516 73.9678H254.749ZM255.118 64.4477C255.369 64.1997 255.773 64.1996 256.024 64.4476L259.171 67.5595C259.425 67.8098 259.425 68.2187 259.172 68.4692L259.1 68.5398C258.973 68.6657 258.786 68.7096 258.616 68.6535C258.447 68.5975 258.26 68.6413 258.133 68.7668L257.767 69.1279C257.371 69.5193 257.37 70.1591 257.766 70.5507L259.627 72.3895C259.832 72.5927 259.832 72.9245 259.627 73.1277C259.424 73.3275 259.099 73.3275 258.897 73.1276L257.012 71.2639C256.622 70.8788 255.995 70.8787 255.606 71.2639L255.268 71.5977C255.135 71.729 255.082 71.9206 255.128 72.1016C255.174 72.2826 255.12 72.4743 254.987 72.6055L254.931 72.6613C254.672 72.9174 254.254 72.9174 253.995 72.6611L250.878 69.5792C250.616 69.3206 250.616 68.8981 250.878 68.6396L250.925 68.593C251.059 68.4604 251.253 68.4071 251.436 68.4523C251.619 68.4975 251.813 68.4442 251.947 68.3115L254.812 65.4803C254.937 65.3561 254.981 65.1712 254.925 65.0037C254.868 64.8364 254.912 64.6515 255.038 64.5273L255.118 64.4477ZM256.643 66.52C256.253 66.1348 255.626 66.1348 255.237 66.5199L252.968 68.7626C252.572 69.154 252.572 69.7934 252.968 70.1849L253.391 70.6035C253.78 70.9886 254.407 70.9887 254.797 70.6036L257.066 68.3609C257.462 67.9695 257.462 67.3301 257.066 66.9386L256.643 66.52Z" fill="#F14F5C"/>
</svg>
