<svg width="360" height="267" viewBox="0 0 360 267" fill="none" xmlns="http://www.w3.org/2000/svg">
<g clip-path="url(#clip0_502_571)">
<path d="M37.6937 249.904L9.83783 140.643C9.50195 138.21 9.81568 135.731 10.7477 133.458L67.6124 42.2658C67.7326 42.0666 67.8417 41.8611 67.9391 41.6502C68.2942 40.8651 68.8309 40.1755 69.5051 39.639C70.1793 39.1022 70.9718 38.7339 71.8163 38.5641C72.1868 38.4928 72.5521 38.3973 72.9098 38.2779L179.614 10.0278C181.197 9.4889 182.9 9.40574 184.528 9.78752H184.563L315.543 42.3333C317.873 42.9111 319.795 44.7363 320.673 47.2068L359.501 155.477C360.346 157.877 360.522 160.463 360.006 162.956L332.18 250.93L37.6937 249.904Z" fill="#F4F4F4"/>
<path d="M274.562 134.331L274.605 134.39L276.419 136.82L276.463 136.879L276.53 136.85L278.15 136.129C278.647 136.518 279.192 136.842 279.77 137.095C279.819 137.706 279.865 138.31 279.908 138.872V138.945H279.983L282.986 139.382H283.059L283.086 139.315C283.304 138.74 283.523 138.173 283.726 137.652C284.355 137.572 284.97 137.416 285.562 137.187L286.912 138.343L286.966 138.389L287.022 138.348L289.452 136.531L289.504 136.491L289.477 136.431C289.225 135.861 288.977 135.305 288.75 134.811C289.142 134.309 289.469 133.759 289.722 133.175L291.507 133.032H291.566V132.975C291.718 131.92 291.861 130.919 291.998 129.97V129.919L291.947 129.897L290.268 129.255C290.187 128.616 290.027 127.99 289.79 127.392L290.956 126.02L290.981 125.99L290.959 125.961L289.131 123.531V123.512H289.109L287.87 124.079L287.551 124.227L287.444 124.284C287.417 124.254 287.384 124.227 287.352 124.203C287.29 124.152 287.192 124.073 287.057 123.979C286.655 123.692 286.226 123.447 285.772 123.25C285.737 122.753 285.694 122.17 285.643 121.438V121.403H285.608L282.605 120.952H282.562L282.546 120.995C282.346 121.514 282.13 122.075 281.895 122.672C281.258 122.745 280.631 122.9 280.032 123.134L278.682 121.965L278.639 121.927L278.593 121.962L276.163 123.768L276.114 123.806L276.139 123.863C276.374 124.403 276.617 124.948 276.862 125.499C276.471 125.995 276.141 126.54 275.888 127.119L274.1 127.27H274.033V127.338C273.89 128.315 273.744 129.316 273.59 130.34V130.41L273.655 130.437L275.321 131.08C275.396 131.708 275.55 132.324 275.78 132.913L274.621 134.263L274.562 134.331ZM285.362 128.121C285.494 128.352 285.613 128.59 285.721 128.833C285.988 129.508 286.021 130.252 285.813 130.947C285.672 131.422 285.424 131.858 285.086 132.219C284.698 132.633 284.206 132.937 283.664 133.099C283.372 133.189 283.067 133.232 282.762 133.229C282.443 133.231 282.127 133.184 281.822 133.089C281.18 132.891 280.615 132.494 280.213 131.954C279.811 131.414 279.592 130.759 279.589 130.086C279.581 129.769 279.627 129.452 279.722 129.149C279.805 128.856 279.935 128.577 280.105 128.323C280.351 127.951 280.669 127.634 281.045 127.393C281.417 127.151 281.838 126.99 282.278 126.919C282.719 126.849 283.167 126.87 283.599 126.983C284.028 127.095 284.433 127.296 284.781 127.572C284.981 127.741 285.17 127.92 285.348 128.11L285.362 128.121ZM287.292 124.184C287.211 124.125 287.128 124.071 287.044 124.014L287.079 124.035L287.292 124.184Z" fill="#61656D"/>
<path opacity="0.5" d="M274.562 134.331L274.605 134.39L276.419 136.82L276.463 136.879L276.53 136.85L278.15 136.129C278.647 136.518 279.192 136.842 279.77 137.095C279.819 137.706 279.865 138.31 279.908 138.872V138.945H279.983L282.986 139.382H283.059L283.086 139.315C283.304 138.74 283.523 138.173 283.726 137.652C284.355 137.572 284.97 137.416 285.562 137.187L286.912 138.343L286.966 138.389L287.022 138.348L289.452 136.531L289.504 136.491L289.477 136.431C289.225 135.861 288.977 135.305 288.75 134.811C289.142 134.309 289.469 133.759 289.722 133.175L291.507 133.032H291.566V132.975C291.718 131.92 291.861 130.919 291.998 129.97V129.919L291.947 129.897L290.268 129.255C290.187 128.616 290.027 127.99 289.79 127.392L290.956 126.02L290.981 125.99L290.959 125.961L289.131 123.531V123.512H289.109L287.87 124.079L287.551 124.227L287.444 124.284C287.417 124.254 287.384 124.227 287.352 124.203C287.29 124.152 287.192 124.073 287.057 123.979C286.655 123.692 286.226 123.447 285.772 123.25C285.737 122.753 285.694 122.17 285.643 121.438V121.403H285.608L282.605 120.952H282.562L282.546 120.995C282.346 121.514 282.13 122.075 281.895 122.672C281.258 122.745 280.631 122.9 280.032 123.134L278.682 121.965L278.639 121.927L278.593 121.962L276.163 123.768L276.114 123.806L276.139 123.863C276.374 124.403 276.617 124.948 276.862 125.499C276.471 125.995 276.141 126.54 275.888 127.119L274.1 127.27H274.033V127.338C273.89 128.315 273.744 129.316 273.59 130.34V130.41L273.655 130.437L275.321 131.08C275.396 131.708 275.55 132.324 275.78 132.913L274.621 134.263L274.562 134.331ZM285.362 128.121C285.494 128.352 285.613 128.59 285.721 128.833C285.988 129.508 286.021 130.252 285.813 130.947C285.672 131.422 285.424 131.858 285.086 132.219C284.698 132.633 284.206 132.937 283.664 133.099C283.372 133.189 283.067 133.232 282.762 133.229C282.443 133.231 282.127 133.184 281.822 133.089C281.18 132.891 280.615 132.494 280.213 131.954C279.811 131.414 279.592 130.759 279.589 130.086C279.581 129.769 279.627 129.452 279.722 129.149C279.805 128.856 279.935 128.577 280.105 128.323C280.351 127.951 280.669 127.634 281.045 127.393C281.417 127.151 281.838 126.99 282.278 126.919C282.719 126.849 283.167 126.87 283.599 126.983C284.028 127.095 284.433 127.296 284.781 127.572C284.981 127.741 285.17 127.92 285.348 128.11L285.362 128.121ZM287.292 124.184C287.211 124.125 287.128 124.071 287.044 124.014L287.079 124.035L287.292 124.184Z" fill="white"/>
<path d="M271.964 110.187L272.021 110.262L274.335 113.373L274.391 113.448L274.478 113.41L276.557 112.49C277.194 112.986 277.89 113.4 278.63 113.724C278.69 114.504 278.749 115.276 278.806 115.992V116.086H278.9L282.734 116.645H282.829L282.861 116.559C283.131 115.827 283.42 115.103 283.671 114.434C284.473 114.336 285.261 114.136 286.015 113.84L287.745 115.319L287.813 115.376L287.883 115.325C288.963 114.515 290.013 113.732 290.991 113.005L291.058 112.954L291.023 112.876C290.699 112.152 290.383 111.439 290.094 110.791C290.594 110.15 291.012 109.448 291.336 108.702L293.615 108.518H293.691V108.445C293.885 107.095 294.072 105.815 294.231 104.608V104.541L294.166 104.517L292.006 103.707C291.906 102.891 291.704 102.091 291.399 101.328L292.886 99.5729L292.919 99.5351L292.889 99.4973L290.556 96.4004L290.537 96.3761L290.51 96.3896L288.931 97.1105L288.523 97.3022C288.431 97.3454 288.385 97.3697 288.383 97.3724C288.348 97.3346 288.307 97.3003 288.267 97.2698C288.186 97.205 288.064 97.1051 287.891 96.9836C287.378 96.6183 286.827 96.3072 286.25 96.0548C286.204 95.4203 286.15 94.6616 286.085 93.7382V93.695H286.042L282.208 93.1172H282.154L282.132 93.1712C281.862 93.8327 281.592 94.5347 281.298 95.3096C280.482 95.4052 279.686 95.605 278.922 95.9036L277.186 94.4078L277.129 94.3592L277.07 94.4024L273.957 96.7136L273.894 96.7595L273.924 96.8324L274.91 98.9195C274.407 99.5586 273.989 100.259 273.662 101.004L271.389 101.177H271.302L271.289 101.266C271.108 102.511 270.922 103.789 270.725 105.1V105.189L270.808 105.221L272.931 106.031C273.03 106.834 273.228 107.621 273.522 108.375C273.033 108.944 272.542 109.52 272.042 110.103L271.964 110.187ZM285.734 102.243C285.71 102.259 285.947 102.546 286.193 103.153C286.533 104.014 286.574 104.966 286.309 105.853C286.131 106.458 285.812 107.013 285.38 107.473C284.886 108.001 284.257 108.388 283.563 108.594C283.191 108.71 282.802 108.766 282.413 108.761C282.005 108.766 281.6 108.705 281.214 108.58C280.393 108.329 279.672 107.821 279.159 107.132C278.646 106.443 278.366 105.608 278.36 104.749C278.352 103.949 278.584 103.164 279.022 102.494C279.335 102.019 279.743 101.615 280.221 101.307C280.698 100.998 281.236 100.792 281.797 100.702C282.359 100.612 282.934 100.639 283.482 100.783C284.033 100.926 284.549 101.183 284.994 101.536C285.51 101.952 285.71 102.262 285.739 102.243H285.734Z" fill="#B2B6BB"/>
<path d="M313.927 132.022C313.068 132.335 312.18 132.558 311.278 132.687L310.125 135.67L304.131 134.785L303.888 131.596C303.062 131.211 302.279 130.743 301.55 130.197L298.623 131.488L295.016 126.628L297.1 124.198C296.787 123.341 296.566 122.453 296.439 121.549L293.469 120.391L294.362 114.41L297.548 114.173C297.937 113.342 298.41 112.554 298.963 111.821L297.681 108.905L302.516 105.33L304.946 107.417C305.819 107.1 306.726 106.878 307.646 106.753L308.805 103.783L314.68 104.68L314.901 107.866C315.579 108.203 316.235 108.585 316.864 109.008L317.356 109.334L319.886 108.181L320.247 108.06L323.774 112.763L321.719 115.177C322.043 116.05 322.272 116.955 322.405 117.877L325.375 119.022L324.578 124.498L324.511 124.959L321.333 125.208C320.947 126.041 320.477 126.832 319.926 127.567L321.219 130.492L316.359 134.096L313.927 132.022ZM318.841 127.432L319.011 127.216C319.643 126.408 320.172 125.522 320.582 124.581L320.693 124.327L323.684 124.095L324.338 119.613L321.53 118.533L321.497 118.263C321.373 117.234 321.117 116.224 320.733 115.261L320.633 114.991L322.569 112.717L319.902 109.181L317.242 110.39L316.322 109.777C315.66 109.333 314.966 108.938 314.245 108.595L313.991 108.484L313.786 105.487L309.364 104.812L308.284 107.596L308.014 107.628C306.985 107.746 305.978 107.996 305.014 108.371L304.744 108.47L302.465 106.505L298.812 109.205L300.019 111.953L299.849 112.169C299.214 112.973 298.682 113.855 298.272 114.794L298.159 115.048L295.156 115.272L294.481 119.8L297.287 120.88L297.319 121.15C297.435 122.167 297.683 123.165 298.056 124.12L298.156 124.39L296.193 126.671L298.939 130.349L301.693 129.134L301.912 129.306C302.714 129.934 303.591 130.459 304.523 130.87L304.776 130.98L305.003 133.983L309.545 134.652L310.625 131.844L310.895 131.812C311.912 131.689 312.909 131.438 313.865 131.067L314.135 130.967L316.419 132.924L320.085 130.197L318.841 127.432ZM309.304 125.254C308.724 125.255 308.149 125.164 307.601 124.984C306.431 124.622 305.405 123.898 304.674 122.918C303.95 121.936 303.556 120.751 303.548 119.532C303.537 118.952 303.621 118.374 303.794 117.821C303.947 117.289 304.182 116.785 304.49 116.325C305.019 115.515 305.743 114.851 306.593 114.394C307.447 113.936 308.4 113.699 309.366 113.706C310.689 113.711 311.975 114.163 313.011 114.988C313.759 115.594 314.34 116.38 314.699 117.272C315.179 118.498 315.233 119.85 314.858 121.112C314.583 122.036 314.083 122.877 313.4 123.559C312.717 124.24 311.875 124.74 310.951 125.013L310.749 125.07C310.276 125.199 309.793 125.264 309.304 125.264V125.254ZM307.177 115.131C306.396 115.519 305.732 116.107 305.252 116.835C304.73 117.639 304.455 118.577 304.46 119.535C304.463 120.564 304.798 121.565 305.411 122.391C306.026 123.217 306.888 123.824 307.873 124.125C308.786 124.41 309.766 124.416 310.684 124.144C311.462 123.915 312.172 123.495 312.744 122.922C313.319 122.349 313.74 121.641 313.973 120.863C314.291 119.789 314.24 118.638 313.827 117.596C313.522 116.857 313.036 116.206 312.412 115.706C311.54 115.02 310.465 114.645 309.358 114.64C308.918 114.641 308.481 114.698 308.057 114.81C307.752 114.889 307.457 115 307.177 115.142V115.131Z" fill="#B2B6BB"/>
<path d="M346.983 250.93H25.4434C25.2409 250.93 25.0762 250.701 25.0762 250.417C25.0762 250.134 25.2409 249.904 25.4434 249.904H346.983C347.186 249.904 347.348 250.134 347.348 250.417C347.348 250.701 347.186 250.93 346.983 250.93Z" fill="#B2B6BB"/>
<path d="M273.622 64.3193H97.1235C96.3467 64.3193 95.7168 64.949 95.7168 65.726V194.3C95.7168 195.077 96.3467 195.707 97.1235 195.707H273.622C274.4 195.707 275.029 195.077 275.029 194.3V65.726C275.029 64.949 274.4 64.3193 273.622 64.3193Z" fill="#1E5F49"/>
<path opacity="0.6" d="M273.622 64.3193H97.1235C96.3467 64.3193 95.7168 64.949 95.7168 65.726V194.3C95.7168 195.077 96.3467 195.707 97.1235 195.707H273.622C274.4 195.707 275.029 195.077 275.029 194.3V65.726C275.029 64.949 274.4 64.3193 273.622 64.3193Z" fill="white"/>
<path opacity="0.4" d="M96.8286 64.0898H273.789C273.973 64.0898 274.156 64.1263 274.327 64.197C274.499 64.2675 274.653 64.3712 274.783 64.5019C274.915 64.6325 275.018 64.7875 275.088 64.9582C275.161 65.1288 275.196 65.3119 275.196 65.4965V73.1024H95.4219V65.4965C95.4219 65.1234 95.5701 64.7657 95.8339 64.5019C96.098 64.2381 96.4557 64.0898 96.8286 64.0898Z" fill="#1E5F49"/>
<path d="M271.742 64.29H95.2426C94.4658 64.29 93.8359 64.92 93.8359 65.6967V194.271C93.8359 195.048 94.4658 195.677 95.2426 195.677H271.742C272.52 195.677 273.149 195.048 273.149 194.271V65.6967C273.149 64.92 272.52 64.29 271.742 64.29Z" fill="#1E5F49"/>
<path opacity="0.8" d="M271.742 64.29H95.2426C94.4658 64.29 93.8359 64.92 93.8359 65.6967V194.271C93.8359 195.048 94.4658 195.677 95.2426 195.677H271.742C272.52 195.677 273.149 195.048 273.149 194.271V65.6967C273.149 64.92 272.52 64.29 271.742 64.29Z" fill="white"/>
<path d="M271.628 195.904H95.359C93.9631 195.904 93.6094 195.571 93.6094 194.203V65.7635C93.6094 64.3946 93.9631 64.0625 95.359 64.0625H271.631C273.03 64.0625 273.383 64.3946 273.383 65.7635V194.203C273.381 195.58 273.019 195.904 271.628 195.904ZM95.359 64.5134C94.2169 64.5134 94.0711 64.643 94.0711 65.7635V194.203C94.0711 195.323 94.2169 195.45 95.359 195.45H271.631C272.776 195.45 272.922 195.323 272.922 194.203V65.7635C272.922 64.643 272.776 64.5134 271.631 64.5134H95.359Z" fill="#1E5F49"/>
<path opacity="0.6" d="M271.628 195.904H95.359C93.9631 195.904 93.6094 195.571 93.6094 194.203V65.7635C93.6094 64.3946 93.9631 64.0625 95.359 64.0625H271.631C273.03 64.0625 273.383 64.3946 273.383 65.7635V194.203C273.381 195.58 273.019 195.904 271.628 195.904ZM95.359 64.5134C94.2169 64.5134 94.0711 64.643 94.0711 65.7635V194.203C94.0711 195.323 94.2169 195.45 95.359 195.45H271.631C272.776 195.45 272.922 195.323 272.922 194.203V65.7635C272.922 64.643 272.776 64.5134 271.631 64.5134H95.359Z" fill="white"/>
<path d="M273.365 73.1024H93.5938V65.4965C93.5935 65.3119 93.6294 65.1291 93.6999 64.9584C93.7703 64.7878 93.8735 64.6328 94.0039 64.5021C94.1343 64.3715 94.2893 64.2678 94.4599 64.197C94.6303 64.1263 94.8131 64.0898 94.9978 64.0898H271.961C272.144 64.0898 272.328 64.1263 272.498 64.197C272.668 64.2678 272.825 64.3715 272.954 64.5021C273.084 64.6328 273.189 64.7878 273.26 64.9584C273.33 65.1291 273.365 65.3119 273.365 65.4965V73.1024Z" fill="#1E5F49"/>
<path d="M255.646 70.543C256.529 70.543 257.247 69.8262 257.247 68.9419C257.247 68.0577 256.529 67.3408 255.646 67.3408C254.76 67.3408 254.045 68.0577 254.045 68.9419C254.045 69.8262 254.76 70.543 255.646 70.543Z" fill="white"/>
<path d="M260.736 70.543C261.621 70.543 262.337 69.8262 262.337 68.9419C262.337 68.0577 261.621 67.3408 260.736 67.3408C259.853 67.3408 259.135 68.0577 259.135 68.9419C259.135 69.8262 259.853 70.543 260.736 70.543Z" fill="white"/>
<path d="M265.824 70.543C266.709 70.543 267.425 69.8262 267.425 68.9419C267.425 68.0577 266.709 67.3408 265.824 67.3408C264.941 67.3408 264.223 68.0577 264.223 68.9419C264.223 69.8262 264.941 70.543 265.824 70.543Z" fill="white"/>
<path d="M241.644 129.957H125.347C122.912 129.957 120.938 131.931 120.938 134.366V134.833C120.938 137.268 122.912 139.242 125.347 139.242H241.644C244.079 139.242 246.053 137.268 246.053 134.833V134.366C246.053 131.931 244.079 129.957 241.644 129.957Z" fill="white"/>
<path d="M241.644 129.957H125.347C122.912 129.957 120.938 131.931 120.938 134.366V134.833C120.938 137.268 122.912 139.242 125.347 139.242H241.644C244.079 139.242 246.053 137.268 246.053 134.833V134.366C246.053 131.931 244.079 129.957 241.644 129.957Z" stroke="#1E5F49" stroke-width="1.12" stroke-miterlimit="10"/>
<path d="M126.854 130.78H237.11V138.34H126.854C123.848 138.34 121.82 136.734 121.82 134.752V134.374C121.82 132.389 123.848 130.78 126.854 130.78Z" fill="#1E5F49"/>
<path d="M180.824 133.434C180.824 132.664 181.305 132.181 181.969 132.187C182.633 132.192 183.092 132.678 183.084 133.456C183.076 134.233 182.612 134.708 181.947 134.7C181.283 134.692 180.819 134.201 180.824 133.434ZM182.444 133.434C182.444 132.945 182.263 132.71 181.974 132.708C181.686 132.705 181.499 132.943 181.494 133.426C181.488 133.909 181.683 134.152 181.964 134.152C182.244 134.152 182.428 133.936 182.433 133.447L182.444 133.434ZM184.696 132.251H185.471L182.301 136.804H181.526L184.696 132.251ZM183.916 135.599C183.916 134.83 184.396 134.347 185.055 134.352C185.714 134.357 186.184 134.851 186.178 135.618C186.173 136.385 185.695 136.871 185.031 136.866C184.367 136.86 183.9 136.38 183.905 135.613L183.916 135.599ZM185.52 135.613C185.52 135.132 185.336 134.889 185.05 134.887C184.764 134.884 184.572 135.116 184.569 135.605C184.566 136.093 184.755 136.328 185.036 136.331C185.317 136.334 185.503 136.11 185.509 135.64L185.52 135.613Z" fill="white"/>
<path d="M152.75 105.91H149.783C148.032 105.91 146.613 107.329 146.613 109.08V116.872C146.613 118.623 148.032 120.042 149.783 120.042H152.75C154.501 120.042 155.92 118.623 155.92 116.872V109.08C155.92 107.329 154.501 105.91 152.75 105.91Z" fill="white"/>
<path d="M166.58 110.735H163.613C161.862 110.735 160.443 112.154 160.443 113.905V116.872C160.443 118.623 161.862 120.042 163.613 120.042H166.58C168.331 120.042 169.75 118.623 169.75 116.872V113.905C169.75 112.154 168.331 110.735 166.58 110.735Z" fill="white"/>
<path d="M180.409 110.735H177.441C175.691 110.735 174.271 112.154 174.271 113.905V116.872C174.271 118.623 175.691 120.042 177.441 120.042H180.409C182.159 120.042 183.578 118.623 183.578 116.872V113.905C183.578 112.154 182.159 110.735 180.409 110.735Z" fill="white"/>
<path d="M194.237 105.91H191.269C189.519 105.91 188.1 107.329 188.1 109.08V116.872C188.1 118.623 189.519 120.042 191.269 120.042H194.237C195.987 120.042 197.407 118.623 197.407 116.872V109.08C197.407 107.329 195.987 105.91 194.237 105.91Z" fill="white"/>
<path d="M205.098 105.91H205.096C203.345 105.91 201.926 107.329 201.926 109.08V116.872C201.926 118.623 203.345 120.042 205.096 120.042H205.098C206.849 120.042 208.268 118.623 208.268 116.872V109.08C208.268 107.329 206.849 105.91 205.098 105.91Z" fill="white"/>
<path d="M217.203 110.735H215.961C214.21 110.735 212.791 112.154 212.791 113.905V116.872C212.791 118.623 214.21 120.042 215.961 120.042H217.203C218.953 120.042 220.373 118.623 220.373 116.872V113.905C220.373 112.154 218.953 110.735 217.203 110.735Z" fill="white"/>
<path d="M226.447 147.771H140.541C139.964 147.771 139.496 148.239 139.496 148.816V165.338C139.496 165.915 139.964 166.383 140.541 166.383H226.447C227.024 166.383 227.492 165.915 227.492 165.338V148.816C227.492 148.239 227.024 147.771 226.447 147.771Z" fill="white"/>
<path d="M221.596 151.275H168.096V152.318H221.596V151.275Z" fill="#DADDDF"/>
<path d="M221.596 154.797H168.096V155.839H221.596V154.797Z" fill="#DADDDF"/>
<path d="M221.596 158.317H168.096V159.359H221.596V158.317Z" fill="#DADDDF"/>
<path d="M202.604 161.836H168.096V162.878H202.604V161.836Z" fill="#DADDDF"/>
<path d="M163.064 149.054H140.965V165.097H163.064V149.054Z" fill="#F4F4F4"/>
<path d="M140.965 160.588L147.485 156.87L152.035 159.429L159.187 154.502L163.064 157.629V165.099H141.003L140.965 160.588Z" fill="#DADDDF"/>
<path d="M150.439 152.32C150.439 152.697 150.328 153.066 150.118 153.379C149.909 153.693 149.611 153.937 149.263 154.081C148.914 154.226 148.531 154.263 148.161 154.19C147.791 154.116 147.452 153.935 147.185 153.668C146.919 153.402 146.737 153.062 146.664 152.692C146.59 152.322 146.628 151.939 146.772 151.591C146.916 151.242 147.161 150.945 147.474 150.735C147.788 150.526 148.156 150.414 148.533 150.414C149.039 150.414 149.524 150.615 149.881 150.972C150.238 151.33 150.439 151.815 150.439 152.32Z" fill="#DADDDF"/>
<path d="M226.447 171.018H140.541C139.964 171.018 139.496 171.485 139.496 172.062V188.584C139.496 189.161 139.964 189.629 140.541 189.629H226.447C227.024 189.629 227.492 189.161 227.492 188.584V172.062C227.492 171.485 227.024 171.018 226.447 171.018Z" fill="white"/>
<path d="M221.596 174.525H168.096V175.568H221.596V174.525Z" fill="#DADDDF"/>
<path d="M221.596 178.043H168.096V179.085H221.596V178.043Z" fill="#DADDDF"/>
<path d="M221.596 181.564H168.096V182.607H221.596V181.564Z" fill="#DADDDF"/>
<path d="M202.604 185.085H168.096V186.127H202.604V185.085Z" fill="#DADDDF"/>
<path d="M163.064 172.304H140.965V188.347H163.064V172.304Z" fill="#F4F4F4"/>
<path d="M156.004 181.266C156.531 179.06 155.17 176.844 152.964 176.317C150.758 175.791 148.542 177.152 148.016 179.358C147.489 181.564 148.85 183.78 151.056 184.306C153.262 184.833 155.478 183.472 156.004 181.266Z" fill="#DADDDF"/>
<path d="M153.398 180.325L152.326 180.944L151.254 181.565V180.325V179.086L152.326 179.707L153.398 180.325Z" fill="#F4F4F4"/>
<path d="M137.749 66.0938H102.73C102.55 66.0943 102.374 66.145 102.22 66.2404C102.067 66.3357 101.944 66.472 101.864 66.6338L98.4375 73.5214H142.04L138.611 66.631C138.531 66.4704 138.409 66.3351 138.257 66.2401C138.104 66.1453 137.929 66.0946 137.749 66.0938Z" fill="#DADDDF"/>
<path d="M272.776 73.1777H93.5938V83.2352H272.776V73.1777Z" fill="#DADDDF"/>
<path d="M119.276 75.271V80.806C119.272 80.8832 119.298 80.959 119.348 81.0176C119.398 81.0765 119.469 81.1137 119.546 81.1218H262.81C262.886 81.1137 262.959 81.0765 263.008 81.0176C263.059 80.959 263.083 80.8832 263.08 80.806V75.271C263.083 75.1938 263.059 75.1182 263.008 75.0593C262.959 75.0007 262.886 74.9634 262.81 74.9551H119.559C119.48 74.9599 119.406 74.9958 119.353 75.055C119.3 75.1141 119.272 75.1916 119.276 75.271Z" fill="white"/>
<path d="M270.142 76.3457H265.619V76.9424H270.142V76.3457Z" fill="#1E5F49"/>
<path d="M270.142 77.541H265.619V78.1377H270.142V77.541Z" fill="#1E5F49"/>
<path d="M270.142 78.7402H265.619V79.337H270.142V78.7402Z" fill="#1E5F49"/>
<path opacity="0.3" d="M259.285 79.4124L259.204 79.3665C259.185 79.3512 259.169 79.3304 259.158 79.3066C259.15 79.2828 259.147 79.2569 259.15 79.2315L259.326 78.2028L258.516 77.4252L258.535 77.3361C258.543 77.3113 258.556 77.2892 258.575 77.2724C258.597 77.2557 258.621 77.2449 258.645 77.2416L259.677 77.0904L260.171 76.0887H260.263C260.29 76.089 260.314 76.096 260.335 76.1093C260.357 76.1228 260.376 76.1417 260.387 76.1643L260.846 77.0985L261.953 77.2578L261.988 77.3415C261.996 77.3661 261.999 77.3926 261.993 77.418C261.988 77.4433 261.974 77.4666 261.955 77.4846L261.208 78.2109L261.397 79.3125L261.332 79.3719C261.31 79.3881 261.286 79.3979 261.259 79.4C261.235 79.4025 261.208 79.3976 261.183 79.3854L260.263 78.8994L259.285 79.4124ZM258.899 77.4495L259.582 78.1137V78.1947L259.431 79.0641L260.273 78.6213L260.346 78.651L261.129 79.0641L260.97 78.1299L261.016 78.0705L261.653 77.4495L260.711 77.3118L260.67 77.2443L260.281 76.4532L259.86 77.3037L259.785 77.3226L258.899 77.4495Z" fill="black"/>
<path opacity="0.3" d="M106.658 76.297C106.62 76.2748 106.576 76.2656 106.533 76.271C106.489 76.2764 106.449 76.2964 106.418 76.3272C106.387 76.3582 106.367 76.3985 106.362 76.4419C106.356 76.4854 106.365 76.5294 106.388 76.567L107.432 77.6118H104.654C104.602 77.6118 104.552 77.6326 104.515 77.6696C104.478 77.7066 104.457 77.7568 104.457 77.8089C104.457 77.8613 104.478 77.9113 104.515 77.9483C104.552 77.9853 104.602 78.006 104.654 78.006H107.484L106.404 79.086C106.37 79.123 106.351 79.1711 106.351 79.221C106.351 79.271 106.37 79.3193 106.404 79.356C106.44 79.3911 106.489 79.4106 106.539 79.4106C106.589 79.4106 106.638 79.3911 106.674 79.356L108.21 77.8197L106.658 76.297Z" fill="black"/>
<path opacity="0.3" d="M100.29 77.6197H97.5201L98.565 76.5748C98.5871 76.5372 98.5963 76.4932 98.5909 76.4498C98.5855 76.4066 98.5655 76.3661 98.5347 76.335C98.5037 76.3042 98.4635 76.2845 98.42 76.2789C98.3765 76.2735 98.3325 76.2826 98.295 76.3048L96.7344 77.86L98.2707 79.3989C98.289 79.4173 98.3112 79.4316 98.3352 79.4413C98.3592 79.4511 98.3851 79.4559 98.4111 79.4556C98.4502 79.4562 98.4888 79.4448 98.5215 79.4232C98.5544 79.4016 98.5801 79.3706 98.5952 79.3344C98.6101 79.298 98.6141 79.2583 98.6063 79.2197C98.5985 79.1811 98.5796 79.146 98.5515 79.1181L97.4715 78.0382H100.301C100.353 78.0382 100.403 78.0176 100.44 77.9806C100.477 77.9437 100.498 77.8934 100.498 77.8411C100.498 77.7889 100.477 77.7387 100.44 77.7017C100.403 77.6648 100.353 77.644 100.301 77.644L100.29 77.6197Z" fill="black"/>
<g opacity="0.3">
<path opacity="0.3" d="M113.841 79.6962C113.604 79.6962 113.37 79.643 113.157 79.5404C112.943 79.4375 112.756 79.2879 112.608 79.1027C112.461 78.9175 112.357 78.7012 112.305 78.4704C112.252 78.2393 112.253 77.9995 112.306 77.7687C112.359 77.5378 112.463 77.3221 112.612 77.1371C112.76 76.9524 112.948 76.8034 113.162 76.7013C113.376 76.5993 113.61 76.5469 113.846 76.548C114.083 76.5488 114.317 76.6033 114.53 76.7073C114.577 76.7302 114.613 76.7707 114.63 76.8204C114.648 76.8701 114.645 76.9246 114.622 76.9719C114.599 77.0191 114.558 77.0553 114.508 77.0726C114.459 77.0896 114.404 77.0866 114.357 77.0637C114.197 76.9832 114.02 76.9414 113.841 76.9422C113.608 76.9416 113.379 77.0102 113.185 77.1396C112.99 77.2689 112.839 77.453 112.749 77.6685C112.659 77.8842 112.636 78.1216 112.681 78.3505C112.726 78.5795 112.838 78.7901 113.003 78.9553C113.168 79.1206 113.378 79.2334 113.607 79.279C113.836 79.3247 114.074 79.3015 114.289 79.2124C114.505 79.123 114.69 78.9718 114.819 78.7779C114.949 78.5838 115.018 78.3554 115.018 78.1221C115.018 78.0697 115.039 78.0195 115.076 77.9825C115.113 77.9458 115.163 77.925 115.216 77.925C115.268 77.925 115.318 77.9458 115.355 77.9825C115.392 78.0195 115.413 78.0697 115.413 78.1221C115.413 78.539 115.247 78.9391 114.953 79.2342C114.658 79.5293 114.258 79.6954 113.841 79.6962Z" fill="black"/>
<path opacity="0.3" d="M114.086 77.6631C114.039 77.6645 113.993 77.6491 113.956 77.6194C113.919 77.5897 113.895 77.5478 113.886 77.5014C113.878 77.4552 113.886 77.4071 113.91 77.3664C113.934 77.3259 113.971 77.2948 114.016 77.2797L114.758 76.9962L114.472 76.2537C114.454 76.2046 114.456 76.1503 114.477 76.1025C114.498 76.0547 114.537 76.0169 114.586 75.9972C114.61 75.9875 114.636 75.9829 114.662 75.9834C114.688 75.984 114.714 75.9896 114.738 76.0002C114.761 76.0107 114.783 76.0258 114.801 76.045C114.819 76.0639 114.833 76.086 114.842 76.1106L115.269 77.223L114.159 77.6496C114.135 77.658 114.111 77.6626 114.086 77.6631Z" fill="black"/>
</g>
<path opacity="0.3" d="M135.91 70.1298L137.014 69.0228C137.054 68.9834 137.076 68.9299 137.076 68.8738C137.077 68.8179 137.055 68.7642 137.015 68.7245C136.976 68.6848 136.922 68.6624 136.866 68.6621C136.81 68.6618 136.757 68.6837 136.717 68.7231L135.61 69.8301L134.503 68.7231C134.463 68.6843 134.409 68.6627 134.353 68.6627C134.297 68.6627 134.243 68.6843 134.203 68.7231C134.183 68.7428 134.168 68.7661 134.157 68.7917C134.146 68.8174 134.141 68.8452 134.141 68.873C134.141 68.9008 134.146 68.9283 134.157 68.9543C134.168 68.9799 134.183 69.0031 134.203 69.0228L135.31 70.1298L134.203 71.2368C134.183 71.2565 134.168 71.2797 134.157 71.3054C134.146 71.331 134.141 71.3589 134.141 71.3867C134.141 71.4145 134.146 71.442 134.157 71.4679C134.168 71.4936 134.183 71.5168 134.203 71.5365C134.223 71.5562 134.246 71.5722 134.272 71.583C134.297 71.5935 134.325 71.5992 134.353 71.5992C134.381 71.5992 134.408 71.5935 134.434 71.583C134.46 71.5722 134.483 71.5562 134.503 71.5365L135.61 70.4295L136.717 71.5365C136.757 71.5759 136.81 71.5978 136.866 71.5975C136.922 71.5973 136.976 71.5749 137.015 71.5352C137.055 71.4955 137.077 71.4417 137.076 71.3856C137.076 71.3297 137.054 71.2762 137.014 71.2368L135.91 70.1298Z" fill="black"/>
<path d="M107.405 127.883C130.1 127.883 148.499 109.485 148.499 86.7893C148.499 64.0937 130.1 45.6953 107.405 45.6953C84.7089 45.6953 66.3105 64.0937 66.3105 86.7893C66.3105 109.485 84.7089 127.883 107.405 127.883Z" fill="white"/>
<path opacity="0.15" d="M122.471 48.5459C132.162 53.0384 139.724 61.1274 143.554 71.0987C147.384 81.0701 147.182 92.1409 142.991 101.966C138.8 111.791 130.949 119.599 121.1 123.735C111.252 127.872 100.181 128.013 90.2305 124.127C95.2225 126.428 100.625 127.704 106.12 127.88C111.614 128.056 117.087 127.128 122.216 125.152C127.345 123.175 132.026 120.19 135.981 116.372C139.936 112.554 143.085 107.982 145.242 102.926C147.399 97.87 148.519 92.4328 148.537 86.9358C148.556 81.4389 147.472 75.9944 145.348 70.924C143.225 65.8537 140.107 61.2607 136.177 57.417C132.248 53.573 127.587 50.5566 122.471 48.5459Z" fill="black"/>
<path d="M133.311 92.4834C131.771 99.1616 127.707 104.985 121.971 108.735L127.279 116.818C135.029 111.744 140.537 103.89 142.669 94.8756L133.311 92.4834Z" fill="#1E5F49"/>
<path opacity="0.4" d="M133.311 92.4834C131.771 99.1616 127.707 104.985 121.971 108.735L127.279 116.818C135.029 111.744 140.537 103.89 142.669 94.8756L133.311 92.4834Z" fill="black"/>
<path d="M108.461 59.9182C112.35 60.074 116.157 61.0819 119.613 62.8712C123.069 64.6605 126.09 67.1872 128.462 70.2727L135.817 63.9871C132.538 59.8378 128.389 56.4571 123.662 54.0827C118.936 51.7084 113.748 50.3983 108.461 50.2441V59.9182Z" fill="#1E5F49"/>
<path opacity="0.2" d="M108.461 59.9182C112.35 60.074 116.157 61.0819 119.613 62.8712C123.069 64.6605 126.09 67.1872 128.462 70.2727L135.817 63.9871C132.538 59.8378 128.389 56.4571 123.662 54.0827C118.936 51.7084 113.748 50.3983 108.461 50.2441V59.9182Z" fill="black"/>
<path d="M129.693 72.0037C132.508 76.3137 134.003 81.3521 133.994 86.5C133.994 87.8103 133.897 89.1187 133.706 90.415L143.11 92.8153C143.472 90.7298 143.653 88.6168 143.65 86.5C143.655 79.0571 141.358 71.7952 137.072 65.71L129.693 72.0037Z" fill="#1E5F49"/>
<path opacity="0.3" d="M129.693 72.0037C132.508 76.3137 134.003 81.3521 133.994 86.5C133.994 87.8103 133.897 89.1187 133.706 90.415L143.11 92.8153C143.472 90.7298 143.653 88.6168 143.65 86.5C143.655 79.0571 141.358 71.7952 137.072 65.71L129.693 72.0037Z" fill="black"/>
<path d="M85.757 71.0611C88.1111 67.7558 91.1907 65.0331 94.7595 63.1018C98.3287 61.1702 102.292 60.0813 106.347 59.9182V50.2441C100.894 50.4043 95.5482 51.7931 90.7074 54.3074C85.8663 56.8216 81.6554 60.3961 78.3887 64.7647L85.757 71.0611Z" fill="#1E5F49"/>
<path d="M81.1116 90.4744C80.9129 89.159 80.8127 87.8306 80.8119 86.5C80.8084 81.6935 82.1152 76.9766 84.5919 72.8569L77.1696 66.5146C72.0272 74.2785 70.074 83.7247 71.7156 92.8909L81.1116 90.4744Z" fill="#1E5F49"/>
<path opacity="0.2" d="M81.1116 90.4744C80.9129 89.159 80.8127 87.8306 80.8119 86.5C80.8084 81.6935 82.1152 76.9766 84.5919 72.8569L77.1696 66.5146C72.0272 74.2785 70.074 83.7247 71.7156 92.8909L81.1116 90.4744Z" fill="white"/>
<path d="M81.5123 92.5566L72.1406 94.9488C74.2893 103.937 79.7959 111.762 87.5306 116.819L92.8361 108.735C87.1213 104.999 83.0656 99.2051 81.5123 92.5566Z" fill="#1E5F49"/>
<path opacity="0.4" d="M81.5123 92.5566L72.1406 94.9488C74.2893 103.937 79.7959 111.762 87.5306 116.819L92.8361 108.735C87.1213 104.999 83.0656 99.2051 81.5123 92.5566Z" fill="white"/>
<path d="M107.405 128.185C84.5765 128.185 66.0059 109.615 66.0059 86.789C66.0059 63.9632 84.5765 45.3926 107.405 45.3926C130.233 45.3926 148.801 63.9632 148.801 86.789C148.801 109.615 130.231 128.185 107.405 128.185ZM107.405 45.9974C84.9113 45.9974 66.6107 64.2953 66.6107 86.789C66.6107 109.283 84.9113 127.581 107.405 127.581C129.899 127.581 148.197 109.283 148.197 86.789C148.197 64.2953 129.896 46.0001 107.405 46.0001V45.9974Z" fill="#B2B6BB"/>
<path d="M106.215 86.5766C106.147 87.1922 106.326 87.8093 106.711 88.294C107.097 88.7787 107.658 89.0911 108.273 89.1634L137.129 93.7171C137.218 93.7185 137.304 93.689 137.373 93.6337C137.442 93.5781 137.49 93.5003 137.508 93.4135C137.526 93.327 137.513 93.2367 137.472 93.1582C137.43 93.0799 137.363 93.0187 137.281 92.9847L109.186 84.5821C108.858 84.4893 108.514 84.469 108.178 84.5226C107.842 84.5759 107.521 84.7021 107.239 84.8918C106.956 85.0814 106.718 85.3307 106.541 85.6215C106.365 85.9123 106.253 86.2383 106.215 86.5766Z" fill="#21252B"/>
<path d="M107.406 94.6456C111.745 94.6456 115.263 91.1278 115.263 86.7886C115.263 82.4492 111.745 78.9316 107.406 78.9316C103.066 78.9316 99.5488 82.4492 99.5488 86.7886C99.5488 91.1278 103.066 94.6456 107.406 94.6456Z" fill="#DADDDF"/>
<path d="M107.404 91.9266C110.241 91.9266 112.542 89.6262 112.542 86.7885C112.542 83.9508 110.241 81.6504 107.404 81.6504C104.566 81.6504 102.266 83.9508 102.266 86.7885C102.266 89.6262 104.566 91.9266 107.404 91.9266Z" fill="#1E5F49"/>
<path d="M107.405 88.903C108.573 88.903 109.519 87.9567 109.519 86.7889C109.519 85.6214 108.573 84.6748 107.405 84.6748C106.238 84.6748 105.291 85.6214 105.291 86.7889C105.291 87.9567 106.238 88.903 107.405 88.903Z" fill="white"/>
<path d="M107.405 94.6457C105.851 94.6462 104.331 94.1859 103.039 93.3227C101.746 92.4597 100.739 91.2329 100.144 89.7973C99.5487 88.3617 99.3927 86.7816 99.6956 85.2575C99.9985 83.7331 100.746 82.3329 101.845 81.2337C102.944 80.1348 104.344 79.3861 105.868 79.0829C107.392 78.7794 108.972 78.9349 110.408 79.5294C111.844 80.124 113.071 81.1311 113.935 82.4233C114.798 83.7153 115.259 85.2345 115.259 86.7887C115.257 88.8712 114.429 90.8681 112.956 92.3409C111.484 93.8141 109.487 94.6427 107.405 94.6457ZM107.405 79.5257C105.97 79.5251 104.568 79.9498 103.375 80.7466C102.182 81.5431 101.252 82.6755 100.702 84.0006C100.153 85.3258 100.009 86.7841 100.289 88.191C100.568 89.598 101.259 90.8905 102.273 91.9049C103.287 92.9196 104.579 93.6105 105.986 93.8905C107.393 94.1705 108.851 94.0271 110.177 93.4782C111.502 92.9293 112.635 91.9999 113.432 90.8071C114.229 89.6145 114.654 88.2124 114.654 86.7779C114.649 84.8574 113.884 83.0173 112.525 81.66C111.166 80.3027 109.325 79.5392 107.405 79.5365V79.5257Z" fill="#B2B6BB"/>
<g opacity="0.2">
<path opacity="0.2" d="M107.403 91.9163C106.389 91.9163 105.397 91.6152 104.554 91.0514C103.71 90.488 103.052 89.6866 102.664 88.7494C102.276 87.812 102.174 86.7803 102.372 85.7854C102.57 84.7902 103.059 83.8762 103.776 83.1588C104.494 82.4412 105.408 81.9527 106.403 81.7548C107.398 81.5569 108.429 81.6584 109.367 82.0467C110.304 82.435 111.105 83.0924 111.669 83.9361C112.233 84.7796 112.533 85.7716 112.533 86.7863C112.533 88.1468 111.993 89.4514 111.031 90.4137C110.069 91.3757 108.764 91.9163 107.403 91.9163ZM107.403 82.2476C106.505 82.2476 105.627 82.5138 104.881 83.0128C104.134 83.5117 103.552 84.221 103.208 85.051C102.864 85.8807 102.774 86.7938 102.949 87.6748C103.125 88.5558 103.557 89.365 104.192 90.0001C104.827 90.6351 105.637 91.0676 106.518 91.2429C107.399 91.4181 108.312 91.3282 109.141 90.9845C109.971 90.6408 110.681 90.0587 111.18 89.3118C111.679 88.565 111.945 87.687 111.945 86.789C111.943 85.585 111.464 84.4311 110.612 83.58C109.761 82.7287 108.607 82.2497 107.403 82.2476Z" fill="black"/>
</g>
<path d="M116.767 113.381H98.0348C97.8677 113.381 97.7324 113.516 97.7324 113.683V118.217C97.7324 118.383 97.8677 118.519 98.0348 118.519H116.767C116.935 118.519 117.07 118.383 117.07 118.217V113.683C117.07 113.516 116.935 113.381 116.767 113.381Z" fill="#868A91"/>
<path d="M57.7693 233.871C56.0521 209.212 54.1513 207.582 54.0703 207.525L54.1891 207.301C54.2728 207.341 56.2627 208.559 58.0231 233.853L57.7693 233.871Z" fill="#3F4249"/>
<path d="M59.5508 233.868L59.2943 233.852C60.4256 215.838 59.1944 206.015 59.1836 205.918L59.4374 205.883C59.4374 205.98 60.6821 215.827 59.5508 233.868Z" fill="#3F4249"/>
<path d="M61.1002 234.408C59.7286 223.174 63.2224 214.615 63.2602 214.528L63.4951 214.628C63.46 214.712 59.9851 223.212 61.354 234.376L61.1002 234.408Z" fill="#3F4249"/>
<path d="M62.5297 235.778C61.9565 231.768 61.9865 227.696 62.6188 223.695L62.8699 223.744C62.2422 227.716 62.2122 231.759 62.7809 235.74L62.5297 235.778Z" fill="#3F4249"/>
<path d="M63.3008 214.731L64.4105 214.64C65.1965 214.575 65.9592 214.342 66.6461 213.954C66.9825 213.758 67.3305 213.583 67.6883 213.43C69.0599 212.89 70.5881 212.979 72.0623 212.906C74.4761 212.784 76.8413 212.179 79.0175 211.127C79.1444 211.071 79.2502 210.977 79.3199 210.857C79.5494 210.444 79.1255 210.074 78.761 209.85C76.8953 208.7 74.9945 207.533 72.8777 206.964C70.7609 206.394 68.3606 206.483 66.5516 207.73C64.4321 209.188 63.6599 212.185 63.3116 214.734" fill="#1E5F49"/>
<path opacity="0.3" d="M79.3456 210.716C79.2805 210.691 79.2173 210.662 79.1566 210.627L78.6328 210.357C78.1765 210.12 77.5204 209.766 76.6915 209.369C75.727 208.895 74.7223 208.507 73.6891 208.211C72.4257 207.849 71.1035 207.742 69.7984 207.895C68.4916 208.042 67.2571 208.571 66.2506 209.418C65.4657 210.148 64.8374 211.031 64.4038 212.012C64.0997 212.672 63.8295 213.347 63.5938 214.034C63.5128 214.267 63.4453 214.45 63.3967 214.593C63.377 214.66 63.3508 214.724 63.3184 214.785C63.3286 214.717 63.3451 214.649 63.367 214.583C63.4102 214.439 63.4696 214.251 63.5398 214.016C63.7531 213.319 64.0082 212.635 64.3039 211.969C64.7299 210.966 65.3609 210.063 66.1561 209.318C67.1777 208.444 68.4381 207.898 69.7741 207.749C71.0989 207.593 72.4417 207.705 73.7215 208.081C74.7591 208.382 75.7662 208.78 76.7293 209.269C77.5555 209.679 78.2035 210.047 78.6517 210.303L79.162 210.603C79.2241 210.635 79.2826 210.673 79.3375 210.716" fill="black"/>
<path opacity="0.3" d="M76.6829 212.144C76.6613 212.179 75.2114 211.24 73.4429 210.052C71.6744 208.864 70.2677 207.87 70.2893 207.835C70.3109 207.8 71.7608 208.739 73.5293 209.93C75.2978 211.121 76.7072 212.112 76.6829 212.144Z" fill="black"/>
<path opacity="0.3" d="M75.1396 207.76C74.7994 207.876 74.4433 207.94 74.0839 207.949C73.7259 208.003 73.3619 208.003 73.0039 207.949C73.3552 207.886 73.711 207.849 74.0677 207.841C74.4255 207.79 74.7864 207.767 75.1477 207.773" fill="black"/>
<path opacity="0.3" d="M68.7941 206.934C68.6756 207.204 68.5152 207.455 68.3189 207.676C68.1526 207.932 67.9498 208.162 67.7168 208.359C67.8353 208.088 67.9957 207.838 68.192 207.617C68.3583 207.361 68.5611 207.131 68.7941 206.934Z" fill="black"/>
<path opacity="0.3" d="M70.0927 212.998C69.8481 212.896 69.6148 212.769 69.3961 212.62C68.9776 212.366 68.4106 211.993 67.8058 211.556C67.201 211.118 66.6691 210.7 66.2857 210.398C66.07 210.244 65.8685 210.071 65.6836 209.882C65.919 210.003 66.1415 210.148 66.3478 210.314L67.8922 211.437C68.4943 211.874 69.0478 212.247 69.4528 212.533C69.678 212.671 69.8918 212.826 70.0927 212.998Z" fill="black"/>
<path d="M66.3055 249.933H55.3381L53.2969 234.881H68.3467L66.3055 249.933Z" fill="#61656D"/>
<path d="M69.6234 237.179H52.0221L51.7656 233.86H69.8772L69.6234 237.179Z" fill="#61656D"/>
<path opacity="0.2" d="M53.6074 237.179H68.0362L66.3055 249.934L64.5748 249.815L65.5414 238.199L53.7208 238L53.6074 237.179Z" fill="black"/>
<path opacity="0.2" d="M65.8548 233.885L65.3418 237.179H69.624L69.8778 233.86L65.8548 233.885Z" fill="black"/>
<g opacity="0.2">
<g opacity="0.2">
<path opacity="0.2" d="M67.3264 240.967H54.2773V241.221H67.3264V240.967Z" fill="white"/>
</g>
</g>
<g opacity="0.2">
<g opacity="0.2">
<path opacity="0.2" d="M67.3264 241.984H54.2773V242.238H67.3264V241.984Z" fill="white"/>
</g>
</g>
<path d="M54.3713 207.408C53.3156 206.598 52.1978 206.45 50.8748 206.504C49.5494 206.592 48.252 206.926 47.0489 207.489C44.978 208.396 43.034 209.733 41.7974 211.626C40.5608 213.518 40.1288 216.019 41.0549 218.082C41.1272 218.296 41.2763 218.477 41.4734 218.589C41.705 218.653 41.9524 218.632 42.17 218.529C44.5244 217.76 46.895 216.985 49.0604 215.784C51.2258 214.582 53.1941 212.908 54.3551 210.721C54.6553 210.206 54.8454 209.634 54.914 209.042C54.9461 208.746 54.9148 208.446 54.8216 208.163C54.7285 207.879 54.5757 207.62 54.374 207.4" fill="#1E5F49"/>
<path opacity="0.3" d="M54.3924 207.16C54.3384 207.19 54.2815 207.213 54.2223 207.23L53.7282 207.4L53.3718 207.519C53.2422 207.565 53.1019 207.622 52.9534 207.681C52.6564 207.803 52.3107 207.922 51.9462 208.1L51.3685 208.37C51.1687 208.462 50.9688 208.575 50.7582 208.683C50.3316 208.894 49.8996 209.161 49.4406 209.434C48.4595 210.05 47.5272 210.74 46.6516 211.499C45.7876 212.271 44.9832 213.108 44.2459 214.002C43.9192 214.423 43.5979 214.812 43.336 215.214C43.201 215.411 43.0659 215.595 42.9444 215.781L42.6123 216.321C42.3882 216.662 42.2262 216.988 42.0723 217.269C41.994 217.409 41.9211 217.539 41.8563 217.663L41.6943 218.001L41.4622 218.468C41.4392 218.524 41.4092 218.578 41.373 218.627C41.3874 218.568 41.4081 218.511 41.4351 218.457L41.6403 217.976C41.6889 217.871 41.7402 217.755 41.7942 217.631C41.8482 217.507 41.9265 217.361 41.9994 217.231C42.1506 216.945 42.3073 216.613 42.526 216.27C42.6286 216.094 42.7392 215.911 42.8526 215.73C42.966 215.549 43.1037 215.355 43.2387 215.155C43.5087 214.753 43.8165 214.345 44.1432 213.926C44.8801 213.022 45.6874 212.177 46.557 211.399C47.4383 210.635 48.379 209.943 49.3704 209.328C49.8348 209.058 50.2722 208.788 50.7042 208.586C50.9175 208.48 51.12 208.367 51.3225 208.278L51.9085 208.008C52.2757 207.838 52.6267 207.722 52.9291 207.608C53.0803 207.554 53.2207 207.5 53.3503 207.457L53.7147 207.349L54.2169 207.206C54.2747 207.187 54.3344 207.173 54.3951 207.166" fill="black"/>
<path opacity="0.3" d="M46.1434 211.626C45.3035 211.949 44.4462 212.226 43.5757 212.455C42.7188 212.732 41.8472 212.961 40.9648 213.141C41.8054 212.819 42.6626 212.542 43.5325 212.312C44.3903 212.038 45.2619 211.809 46.1434 211.626Z" fill="black"/>
<path opacity="0.3" d="M46.0386 217.293C45.9919 217.026 45.973 216.755 45.9819 216.483C45.9684 215.989 45.9657 215.304 45.9819 214.55C45.9981 213.797 46.044 213.111 46.0845 212.62C46.0926 212.352 46.126 212.085 46.1844 211.823C46.21 212.093 46.21 212.364 46.1844 212.633C46.1682 213.173 46.1466 213.835 46.125 214.561C46.1034 215.287 46.0899 215.949 46.0764 216.492C46.0831 216.762 46.0677 217.033 46.0305 217.302" fill="black"/>
<path opacity="0.3" d="M50.8942 214.82C50.8537 214.82 50.7241 213.435 50.6053 211.718C50.4865 210 50.4244 208.607 50.4622 208.604C50.5 208.602 50.6323 209.99 50.7511 211.707C50.8699 213.424 50.9347 214.817 50.8942 214.82Z" fill="black"/>
<path opacity="0.3" d="M44.8514 208.47C45.12 208.435 45.3911 208.426 45.6614 208.443C46.169 208.443 46.871 208.461 47.6432 208.488C48.4154 208.515 49.1174 208.545 49.625 208.575C49.8966 208.578 50.1677 208.604 50.435 208.653C50.162 208.688 49.8861 208.697 49.6115 208.68C49.1039 208.68 48.4019 208.661 47.6297 208.634C46.8575 208.607 46.1528 208.578 45.6479 208.548C45.376 208.545 45.1052 208.519 44.8379 208.47" fill="black"/>
<path d="M52.2495 202.044L50.8995 204.509C50.8671 204.569 50.8266 204.633 50.7618 204.639C50.697 204.644 50.635 204.577 50.5972 204.515C49.3948 202.675 48.195 200.835 46.998 198.993L47.8269 198.523L52.2495 202.044Z" fill="#1E5F49"/>
<path opacity="0.2" d="M52.2495 202.044L50.8995 204.509C50.8671 204.569 50.8266 204.633 50.7618 204.639C50.697 204.644 50.635 204.577 50.5972 204.515C49.3948 202.675 48.195 200.835 46.998 198.993L47.8269 198.523L52.2495 202.044Z" fill="black"/>
<path d="M59.5497 206.488L47.2728 199.244C47.1392 199.185 47.0331 199.077 46.9758 198.942C46.9245 198.761 47.0622 198.586 47.1918 198.451C48.0361 197.575 49.0592 196.892 50.1913 196.447C51.3234 196.002 52.5381 195.806 53.7528 195.872C54.9678 195.958 56.1437 196.339 57.1789 196.982C58.2138 197.624 59.0767 198.509 59.6928 199.56C60.8781 201.677 60.9159 204.477 59.5578 206.488" fill="#1E5F49"/>
<path opacity="0.3" d="M49.041 196.93C49.0942 196.918 49.1485 196.911 49.203 196.911C49.3083 196.911 49.473 196.887 49.6674 196.89C50.2385 196.881 50.8087 196.927 51.3711 197.025C52.2095 197.165 53.0262 197.413 53.8011 197.762C55.7197 198.607 57.3135 200.049 58.3452 201.874C58.7686 202.611 59.0945 203.399 59.3145 204.22C59.4695 204.769 59.5718 205.331 59.6196 205.9C59.6412 206.102 59.6331 206.153 59.6385 206.259C59.6296 206.355 59.5972 206.448 59.544 206.529C59.581 206.324 59.5875 206.114 59.5629 205.908C59.4924 205.347 59.3758 204.792 59.2146 204.25C58.5971 202.182 57.3408 200.363 55.6255 199.054C53.9105 197.744 51.8247 197.011 49.6674 196.96C49.2651 196.96 49.0437 196.96 49.041 196.944" fill="black"/>
<path opacity="0.3" d="M57.8879 201.488C57.6927 201.601 57.4853 201.692 57.2696 201.758C56.8781 201.912 56.33 202.109 55.7198 202.298C55.1096 202.487 54.548 202.646 54.1403 202.746C53.9224 202.814 53.6978 202.857 53.4707 202.876C53.6754 202.777 53.8897 202.7 54.1106 202.646L55.6739 202.157L57.2345 201.655C57.4454 201.572 57.6643 201.51 57.8879 201.472" fill="black"/>
<path opacity="0.3" d="M55.9527 196.296C56.0626 196.744 56.1115 197.204 56.0985 197.665C56.136 198.124 56.1104 198.587 56.0229 199.039C55.9632 198.585 55.9398 198.126 55.9527 197.667C55.9168 197.211 55.9168 196.752 55.9527 196.296Z" fill="black"/>
<path opacity="0.3" d="M47.1641 199.106C47.4522 198.975 47.7513 198.871 48.0578 198.793C48.614 198.62 49.3916 198.401 50.2583 198.193C51.125 197.985 51.9134 197.823 52.4885 197.724C52.7968 197.656 53.11 197.613 53.4254 197.597C53.1265 197.696 52.8206 197.772 52.5101 197.826C51.9404 197.953 51.1601 198.129 50.2907 198.336C49.4213 198.544 48.6491 198.747 48.0848 198.893C47.7832 198.985 47.4756 199.056 47.1641 199.106Z" fill="black"/>
<path d="M64.6766 220.204C63.6182 219.934 62.36 220.952 62.1413 222.024C61.9226 223.096 62.3249 224.184 62.7947 225.178C63.8369 227.362 65.2733 229.387 67.166 230.896C69.0587 232.406 71.4293 233.37 73.8485 233.356C73.403 231.28 73.9673 229.112 73.7189 227.006C73.5002 225.148 72.6572 223.42 71.3278 222.104C69.9986 220.787 68.2616 219.962 66.4019 219.762C65.7269 219.689 64.9439 219.581 64.6766 220.204Z" fill="#1E5F49"/>
<path opacity="0.3" d="M73.8489 233.356C73.7954 233.34 73.7447 233.316 73.6977 233.286C73.5586 233.208 73.4266 233.117 73.3035 233.016C72.8596 232.631 72.504 232.155 72.2613 231.62C72.0912 231.293 71.9022 230.937 71.7213 230.54L71.1543 229.282C70.9494 228.818 70.7158 228.367 70.455 227.932C70.1691 227.471 69.8475 227.033 69.4938 226.622C68.7702 225.772 67.9926 225.037 67.3203 224.335C66.7117 223.722 66.1571 223.057 65.6625 222.348C65.3317 221.867 65.0598 221.347 64.8525 220.801C64.785 220.607 64.7364 220.453 64.7121 220.348C64.694 220.295 64.6832 220.241 64.6797 220.186C64.6932 220.186 64.7526 220.402 64.9065 220.78C65.1327 221.311 65.4152 221.817 65.7489 222.289C66.2508 222.984 66.8089 223.637 67.4175 224.241C68.0925 224.935 68.8728 225.669 69.6045 226.528C69.9633 226.944 70.2884 227.388 70.5765 227.856C70.8389 228.29 71.0725 228.742 71.2758 229.206C71.4721 229.653 71.6573 230.074 71.832 230.47C72.0102 230.861 72.1938 231.22 72.3558 231.55C72.5866 232.079 72.9228 232.556 73.344 232.951C73.6518 233.221 73.8597 233.316 73.8516 233.329" fill="black"/>
<path opacity="0.3" d="M68.3848 231.631C68.3899 231.391 68.4226 231.153 68.482 230.92C68.5657 230.486 68.7007 229.886 68.8843 229.236C69.0679 228.585 69.2623 228.005 69.4243 227.591C69.4953 227.362 69.5922 227.141 69.7132 226.933C69.6727 227.169 69.6095 227.4 69.5242 227.624C69.3919 228.045 69.2137 228.628 69.0301 229.276C68.8465 229.924 68.698 230.515 68.5873 230.942C68.5441 231.177 68.4779 231.408 68.3902 231.631" fill="black"/>
<path opacity="0.3" d="M73.6483 226.539C73.3955 226.501 73.1463 226.443 72.9031 226.366C72.4495 226.247 71.8231 226.096 71.1184 225.926C70.4137 225.756 69.7684 225.656 69.3202 225.558C69.0664 225.526 68.8161 225.471 68.5723 225.394C68.8285 225.387 69.0847 225.408 69.3364 225.456C69.8035 225.518 70.4488 225.626 71.1508 225.783C71.8528 225.939 72.4846 226.123 72.9328 226.266C73.1801 226.33 73.4201 226.421 73.6483 226.536" fill="black"/>
<path opacity="0.3" d="M64.4639 228.018C64.4731 227.745 64.5112 227.473 64.5773 227.208C64.6691 226.703 64.8176 226.009 65.0147 225.253C65.2118 224.497 65.4224 223.817 65.5898 223.331C65.6652 223.063 65.7664 222.804 65.8922 222.556C65.8455 222.831 65.7769 223.102 65.687 223.366C65.5493 223.857 65.3549 224.537 65.147 225.291C64.9391 226.044 64.7852 226.733 64.6691 227.232C64.6181 227.507 64.546 227.778 64.4531 228.042" fill="black"/>
<path opacity="0.3" d="M71.2256 222.099C71.2256 222.14 69.9026 222.032 68.2799 221.859C67.2965 221.781 66.3178 221.653 65.3477 221.476C66.3329 221.505 67.316 221.584 68.2934 221.713C69.9134 221.886 71.231 222.059 71.2256 222.099Z" fill="black"/>
<path d="M59.467 209.752C59.3779 208.791 58.4059 208.065 57.4393 208.054C56.4727 208.043 55.5709 208.624 54.9796 209.388C54.4234 210.181 54.0222 211.072 53.797 212.015C53.1463 214.283 52.7899 216.664 53.068 219.008C53.3461 221.351 54.2965 223.654 55.9786 225.309C56.2486 225.579 56.605 225.85 56.9803 225.769C57.1861 225.709 57.3724 225.597 57.5203 225.442C59.1662 223.935 60.4709 222.094 61.3465 220.042C62.2218 217.99 62.6482 215.774 62.5963 213.543C62.572 212.655 62.4532 211.726 61.9591 210.983C61.465 210.241 60.3175 209.455 59.4778 209.752" fill="#1E5F49"/>
<path opacity="0.3" d="M56.5049 225.633C56.4925 225.579 56.486 225.524 56.486 225.469C56.486 225.344 56.486 225.199 56.4644 224.996C56.4455 224.586 56.4428 223.992 56.4644 223.257C56.486 222.523 56.5292 221.637 56.6183 220.682C56.7074 219.726 56.8505 218.657 57.0503 217.552C57.2501 216.448 57.4958 215.392 57.7469 214.466C57.998 213.54 58.268 212.692 58.5137 212.001C58.7594 211.31 58.9727 210.748 59.1347 210.381L59.321 209.946C59.3399 209.895 59.3645 209.845 59.3939 209.798C59.3856 209.853 59.3699 209.906 59.348 209.957L59.186 210.403C59.0429 210.786 58.8431 211.345 58.6136 212.042C58.3841 212.738 58.1303 213.575 57.8792 214.512C57.6281 215.449 57.3959 216.488 57.1934 217.587C56.9909 218.686 56.8559 219.747 56.7533 220.706C56.6507 221.664 56.5967 222.539 56.5697 223.271C56.5427 224.003 56.5292 224.597 56.5292 225.007C56.5292 225.199 56.5292 225.355 56.5292 225.479C56.5338 225.534 56.5338 225.589 56.5292 225.644" fill="black"/>
<path opacity="0.3" d="M57.1495 217.596C57.007 217.793 56.8431 217.974 56.6608 218.136C56.3422 218.452 55.8913 218.878 55.3783 219.329C54.8653 219.78 54.382 220.172 54.0283 220.444C53.8453 220.605 53.6452 220.744 53.4316 220.86C53.5963 220.678 53.777 220.512 53.9716 220.363L55.2919 219.218L56.6014 218.06C56.7723 217.889 56.9595 217.734 57.1603 217.598" fill="black"/>
<path opacity="0.3" d="M61.0379 220.725C60.8445 220.499 60.6693 220.258 60.5141 220.005L59.3018 218.233L58.0625 216.481C57.8794 216.247 57.7142 216 57.5684 215.741C57.7811 215.949 57.9744 216.176 58.1462 216.419C58.4864 216.851 58.9427 217.458 59.4233 218.15C59.9039 218.841 60.3143 219.478 60.6032 219.948C60.77 220.194 60.9155 220.454 61.0379 220.725Z" fill="black"/>
<path opacity="0.3" d="M59.0006 210.881C59.0222 210.916 57.7316 211.785 56.117 212.822C54.5024 213.859 53.1767 214.675 53.147 214.64C53.1173 214.604 54.416 213.738 56.0306 212.698C57.6452 211.659 58.9682 210.848 59.0006 210.881Z" fill="black"/>
<path opacity="0.3" d="M62.6422 214.809C61.9575 214.246 61.3057 213.644 60.6901 213.006C60.0388 212.403 59.4205 211.766 58.8379 211.097C59.5234 211.66 60.176 212.262 60.7927 212.9C61.442 213.504 62.0595 214.141 62.6422 214.809Z" fill="black"/>
<path d="M73.9008 164.273L54.1476 170.637C54.1125 170.653 54.075 170.661 54.0366 170.661C53.9986 170.66 53.961 170.652 53.9262 170.636C53.8916 170.62 53.8606 170.597 53.8355 170.569C53.8104 170.54 53.7915 170.506 53.7804 170.47L45.5724 144.947C45.5589 144.912 45.553 144.874 45.5551 144.837C45.557 144.799 45.5667 144.762 45.5837 144.729C45.601 144.695 45.6248 144.666 45.6539 144.642C45.6831 144.618 45.7169 144.6 45.7533 144.59L60.552 139.822L67.3749 143.103L74.0844 163.917C74.1066 163.989 74.0995 164.066 74.0653 164.133C74.031 164.199 73.9718 164.25 73.9008 164.273Z" fill="#DADDDF"/>
<path d="M64.8168 143.942L49.5742 148.904L49.804 149.61L65.0468 144.648L64.8168 143.942Z" fill="white"/>
<path d="M65.5534 146.205L50.3105 151.167L50.5406 151.873L65.7832 146.911L65.5534 146.205Z" fill="white"/>
<path d="M66.2878 148.461L51.0449 153.422L51.2747 154.128L66.5175 149.167L66.2878 148.461Z" fill="white"/>
<path d="M67.0238 150.72L51.7812 155.681L52.011 156.387L67.2539 151.426L67.0238 150.72Z" fill="white"/>
<path d="M67.7585 152.979L52.5156 157.94L52.7457 158.646L67.9882 153.685L67.7585 152.979Z" fill="white"/>
<path d="M68.4928 155.238L53.25 160.2L53.4798 160.906L68.7226 155.944L68.4928 155.238Z" fill="white"/>
<path d="M69.2341 157.273L54.0059 162.243L54.2359 162.948L69.4644 157.979L69.2341 157.273Z" fill="white"/>
<path d="M69.9616 159.753L54.7188 164.714L54.9488 165.42L70.1914 160.459L69.9616 159.753Z" fill="white"/>
<path d="M60.5508 139.822L67.3737 143.103L62.4192 144.698C62.3841 144.712 62.3465 144.718 62.3087 144.716C62.2712 144.714 62.2345 144.704 62.201 144.687C62.1675 144.67 62.1378 144.646 62.1141 144.617C62.0903 144.588 62.0728 144.554 62.0628 144.518L60.5508 139.822Z" fill="#DADDDF"/>
<path opacity="0.2" d="M60.5508 139.822L67.3737 143.103L62.4192 144.698C62.3841 144.712 62.3465 144.718 62.3087 144.716C62.2712 144.714 62.2345 144.704 62.201 144.687C62.1675 144.67 62.1378 144.646 62.1141 144.617C62.0903 144.588 62.0728 144.554 62.0628 144.518L60.5508 139.822Z" fill="black"/>
<path d="M324.757 204.053L305.004 210.43C304.969 210.443 304.931 210.449 304.894 210.446C304.856 210.444 304.821 210.434 304.786 210.417C304.753 210.399 304.723 210.375 304.699 210.346C304.678 210.317 304.659 210.283 304.651 210.247L296.429 184.74C296.416 184.705 296.41 184.667 296.41 184.629C296.413 184.592 296.424 184.555 296.44 184.522C296.456 184.488 296.48 184.458 296.51 184.435C296.54 184.411 296.572 184.393 296.61 184.383L311.409 179.615L318.232 182.89L324.941 203.707C324.952 203.742 324.957 203.779 324.955 203.815C324.952 203.852 324.941 203.887 324.922 203.92C324.906 203.952 324.882 203.98 324.855 204.003C324.825 204.026 324.793 204.043 324.757 204.053Z" fill="#DADDDF"/>
<path d="M315.677 183.745L300.436 188.707L300.665 189.413L315.907 184.451L315.677 183.745Z" fill="white"/>
<path d="M316.208 185.638L300.98 190.607L301.21 191.313L316.441 186.343L316.208 185.638Z" fill="white"/>
<path d="M317.146 188.263L301.904 193.224L302.134 193.93L317.375 188.969L317.146 188.263Z" fill="white"/>
<path d="M317.887 190.521L302.643 195.483L302.872 196.189L318.116 191.228L317.887 190.521Z" fill="white"/>
<path d="M318.618 192.78L303.377 197.742L303.606 198.448L318.848 193.486L318.618 192.78Z" fill="white"/>
<path d="M319.356 195.037L304.111 199.999L304.341 200.705L319.585 195.743L319.356 195.037Z" fill="white"/>
<path d="M320.089 197.299L304.848 202.26L305.077 202.966L320.319 198.005L320.089 197.299Z" fill="white"/>
<path d="M320.822 199.555L305.58 204.516L305.81 205.222L321.054 200.261L320.822 199.555Z" fill="white"/>
<path d="M311.408 179.604L318.231 182.89L313.277 184.489C313.204 184.512 313.128 184.505 313.061 184.471C312.993 184.436 312.942 184.377 312.92 184.305L311.408 179.604Z" fill="#DADDDF"/>
<path opacity="0.2" d="M311.408 179.604L318.231 182.89L313.277 184.489C313.204 184.512 313.128 184.505 313.061 184.471C312.993 184.436 312.942 184.377 312.92 184.305L311.408 179.604Z" fill="black"/>
<path d="M262.446 242.819L262.581 248.543C262.607 249.648 263.523 250.522 264.628 250.496L267.348 250.431" stroke="#FFCB7C" stroke-width="3" stroke-linecap="round"/>
<path d="M258.583 242.91L258.718 248.634C258.744 249.739 257.87 250.655 256.766 250.681L254.045 250.745" stroke="#FFCB7C" stroke-width="3" stroke-linecap="round"/>
<path d="M282.185 242.414L280.629 176.412C280.577 174.203 278.745 172.455 276.536 172.507L232.91 173.535C231.102 173.578 229.555 174.829 229.224 176.607C227.693 184.824 224.476 208.299 233.298 226.548C242.074 244.702 268.579 246.364 278.485 246.329C280.615 246.322 282.235 244.544 282.185 242.414Z" fill="#F14F5C"/>
<ellipse rx="10.9446" ry="10.9447" transform="matrix(-0.999722 0.0235599 0.0235598 0.999722 259.756 192.438)" fill="white"/>
<ellipse rx="10.9447" ry="10.9447" transform="matrix(-0.999722 0.0235599 0.0235598 0.999722 240.017 192.903)" fill="white"/>
<path fill-rule="evenodd" clip-rule="evenodd" d="M260.257 186.137C265.615 188.824 264.732 196.854 258.944 198.082C255.711 198.768 252.192 196.624 251.407 193.488C250.845 191.245 251.158 190.533 252.355 191.33C253.65 192.193 255.511 192.05 256.502 191.011C257.513 189.951 257.553 187.7 256.583 186.383C255.911 185.469 255.93 185.444 257.318 185.411C258.102 185.392 259.425 185.719 260.257 186.137ZM240.52 186.602C245.877 189.289 244.995 197.319 239.207 198.547C235.973 199.233 232.455 197.089 231.669 193.953C231.107 191.71 231.42 190.998 232.617 191.795C233.912 192.658 235.773 192.515 236.764 191.476C237.775 190.416 237.815 188.165 236.845 186.848C236.173 185.934 236.192 185.909 237.58 185.876C238.364 185.858 239.687 186.184 240.52 186.602ZM282.251 203.048C284.052 203.642 285.239 204.531 286.522 206.244C287.338 207.333 295.752 235.167 295.793 236.913C295.805 237.404 295.292 238.353 294.653 239.023C293.651 240.073 292.937 240.322 289.437 240.844C284.44 241.589 281.478 241.604 277.9 240.9C270.242 239.392 265.064 234.24 262.483 225.559C261.258 221.435 260.074 214.915 260 211.882C259.905 207.941 260.384 207.594 269.708 204.858C278.075 202.402 279.622 202.179 282.251 203.048Z" fill="#501A2C"/>
<rect width="5.88418" height="5.88418" rx="2" transform="matrix(-0.717906 0.69614 0.696135 0.717911 250.166 201.035)" fill="#FFCB7C"/>
</g>
<defs>
<clipPath id="clip0_502_571">
<rect width="360" height="267" fill="white"/>
</clipPath>
</defs>
</svg>
