<svg width="360" height="267" viewBox="0 0 360 267" fill="none" xmlns="http://www.w3.org/2000/svg">
<g clip-path="url(#clip0_2398_3362)">
<path d="M37.6932 249.904L9.83734 140.643C9.50146 138.21 9.8152 135.731 10.7472 133.458L67.6119 42.2659C67.7321 42.0666 67.8412 41.8611 67.9386 41.6503C68.2937 40.8651 68.8305 40.1755 69.5046 39.639C70.1788 39.1023 70.9713 38.734 71.8158 38.5642C72.1863 38.4929 72.5516 38.3973 72.9093 38.278L179.613 10.0279C181.197 9.48896 182.899 9.4058 184.527 9.78758H184.562L315.542 42.3334C317.872 42.9112 319.795 44.7364 320.672 47.2069L359.501 155.477C360.346 157.877 360.521 160.463 360.006 162.956L332.18 250.93L37.6932 249.904Z" fill="#F4F4F4"/>
<path d="M274.562 134.331L274.605 134.39L276.419 136.82L276.463 136.879L276.53 136.85L278.15 136.129C278.647 136.518 279.192 136.842 279.77 137.095C279.819 137.706 279.865 138.31 279.908 138.872V138.945H279.983L282.986 139.382H283.059L283.086 139.315C283.304 138.74 283.523 138.173 283.726 137.652C284.355 137.572 284.97 137.416 285.561 137.187L286.911 138.343L286.965 138.389L287.022 138.348L289.452 136.531L289.503 136.491L289.476 136.431C289.225 135.861 288.977 135.305 288.75 134.811C289.142 134.309 289.468 133.759 289.722 133.175L291.507 133.032H291.566V132.975C291.717 131.92 291.861 130.919 291.998 129.97V129.919L291.947 129.897L290.268 129.255C290.187 128.616 290.027 127.99 289.79 127.392L290.956 126.02L290.98 125.99L290.959 125.961L289.131 123.531V123.512H289.109L287.87 124.079L287.551 124.227L287.443 124.284C287.416 124.254 287.384 124.227 287.352 124.203C287.289 124.152 287.192 124.073 287.057 123.979C286.655 123.692 286.226 123.447 285.772 123.25C285.737 122.753 285.694 122.17 285.642 121.438V121.403H285.607L282.605 120.952H282.562L282.546 120.995C282.346 121.514 282.13 122.075 281.895 122.672C281.258 122.745 280.631 122.9 280.032 123.134L278.682 121.965L278.639 121.927L278.593 121.962L276.163 123.768L276.114 123.806L276.139 123.863C276.373 124.403 276.616 124.948 276.862 125.499C276.471 125.995 276.141 126.54 275.887 127.119L274.1 127.27H274.033V127.338C273.889 128.315 273.744 129.316 273.59 130.34V130.41L273.655 130.437L275.32 131.08C275.396 131.708 275.55 132.324 275.779 132.913L274.621 134.263L274.562 134.331ZM285.362 128.121C285.494 128.352 285.613 128.59 285.721 128.833C285.988 129.508 286.02 130.252 285.813 130.947C285.672 131.422 285.424 131.858 285.086 132.219C284.697 132.633 284.206 132.937 283.663 133.099C283.372 133.189 283.067 133.232 282.762 133.229C282.443 133.231 282.127 133.184 281.822 133.089C281.179 132.891 280.615 132.494 280.213 131.954C279.811 131.414 279.592 130.759 279.589 130.086C279.581 129.769 279.627 129.452 279.721 129.149C279.805 128.856 279.935 128.577 280.105 128.323C280.351 127.951 280.669 127.634 281.044 127.393C281.417 127.151 281.838 126.99 282.278 126.919C282.718 126.849 283.167 126.87 283.599 126.983C284.028 127.095 284.433 127.296 284.781 127.572C284.981 127.741 285.17 127.92 285.348 128.11L285.362 128.121ZM287.292 124.184C287.211 124.125 287.127 124.071 287.044 124.014L287.079 124.035L287.292 124.184Z" fill="#61656D"/>
<path opacity="0.5" d="M274.562 134.331L274.605 134.39L276.419 136.82L276.463 136.879L276.53 136.85L278.15 136.129C278.647 136.518 279.192 136.842 279.77 137.095C279.819 137.706 279.865 138.31 279.908 138.872V138.945H279.983L282.986 139.382H283.059L283.086 139.315C283.304 138.74 283.523 138.173 283.726 137.652C284.355 137.572 284.97 137.416 285.561 137.187L286.911 138.343L286.965 138.389L287.022 138.348L289.452 136.531L289.503 136.491L289.476 136.431C289.225 135.861 288.977 135.305 288.75 134.811C289.142 134.309 289.468 133.759 289.722 133.175L291.507 133.032H291.566V132.975C291.717 131.92 291.861 130.919 291.998 129.97V129.919L291.947 129.897L290.268 129.255C290.187 128.616 290.027 127.99 289.79 127.392L290.956 126.02L290.98 125.99L290.959 125.961L289.131 123.531V123.512H289.109L287.87 124.079L287.551 124.227L287.443 124.284C287.416 124.254 287.384 124.227 287.352 124.203C287.289 124.152 287.192 124.073 287.057 123.979C286.655 123.692 286.226 123.447 285.772 123.25C285.737 122.753 285.694 122.17 285.642 121.438V121.403H285.607L282.605 120.952H282.562L282.546 120.995C282.346 121.514 282.13 122.075 281.895 122.672C281.258 122.745 280.631 122.9 280.032 123.134L278.682 121.965L278.639 121.927L278.593 121.962L276.163 123.768L276.114 123.806L276.139 123.863C276.373 124.403 276.616 124.948 276.862 125.499C276.471 125.995 276.141 126.54 275.887 127.119L274.1 127.27H274.033V127.338C273.889 128.315 273.744 129.316 273.59 130.34V130.41L273.655 130.437L275.32 131.08C275.396 131.708 275.55 132.324 275.779 132.913L274.621 134.263L274.562 134.331ZM285.362 128.121C285.494 128.352 285.613 128.59 285.721 128.833C285.988 129.508 286.02 130.252 285.813 130.947C285.672 131.422 285.424 131.858 285.086 132.219C284.697 132.633 284.206 132.937 283.663 133.099C283.372 133.189 283.067 133.232 282.762 133.229C282.443 133.231 282.127 133.184 281.822 133.089C281.179 132.891 280.615 132.494 280.213 131.954C279.811 131.414 279.592 130.759 279.589 130.086C279.581 129.769 279.627 129.452 279.721 129.149C279.805 128.856 279.935 128.577 280.105 128.323C280.351 127.951 280.669 127.634 281.044 127.393C281.417 127.151 281.838 126.99 282.278 126.919C282.718 126.849 283.167 126.87 283.599 126.983C284.028 127.095 284.433 127.296 284.781 127.572C284.981 127.741 285.17 127.92 285.348 128.11L285.362 128.121ZM287.292 124.184C287.211 124.125 287.127 124.071 287.044 124.014L287.079 124.035L287.292 124.184Z" fill="white"/>
<path d="M271.964 110.187L272.021 110.263L274.335 113.373L274.392 113.449L274.478 113.411L276.557 112.49C277.194 112.986 277.891 113.401 278.631 113.724C278.69 114.504 278.749 115.277 278.806 115.992V116.087H278.901L282.735 116.646H282.829L282.861 116.559C283.131 115.827 283.42 115.104 283.671 114.434C284.473 114.336 285.262 114.137 286.015 113.84L287.746 115.32L287.813 115.377L287.883 115.325C288.963 114.515 290.014 113.732 290.991 113.006L291.059 112.955L291.024 112.876C290.7 112.153 290.384 111.44 290.095 110.792C290.594 110.15 291.013 109.448 291.337 108.702L293.616 108.518H293.691V108.446C293.886 107.096 294.072 105.816 294.231 104.609V104.541L294.166 104.517L292.006 103.707C291.906 102.891 291.704 102.092 291.399 101.328L292.887 99.5734L292.919 99.5356L292.889 99.4978L290.556 96.4009L290.538 96.3766L290.511 96.3901L288.931 97.111L288.523 97.3027C288.432 97.3459 288.386 97.3702 288.383 97.3729C288.348 97.3351 288.307 97.3008 288.267 97.2703C288.186 97.2055 288.064 97.1056 287.892 96.9841C287.379 96.6188 286.828 96.3077 286.25 96.0553C286.204 95.4208 286.15 94.6621 286.085 93.7387V93.6955H286.042L282.208 93.1177H282.154L282.132 93.1717C281.862 93.8332 281.592 94.5352 281.298 95.3101C280.483 95.4057 279.686 95.6055 278.922 95.9041L277.186 94.4083L277.129 94.3597L277.07 94.4029L273.957 96.7141L273.895 96.76L273.924 96.8329L274.91 98.92C274.408 99.5591 273.989 100.259 273.663 101.004L271.389 101.177H271.303L271.289 101.266C271.108 102.512 270.922 103.79 270.725 105.1V105.189L270.809 105.222L272.931 106.032C273.031 106.835 273.228 107.622 273.522 108.375C273.033 108.944 272.542 109.52 272.043 110.103L271.964 110.187ZM285.734 102.244C285.71 102.26 285.948 102.546 286.193 103.154C286.533 104.015 286.574 104.966 286.309 105.854C286.131 106.459 285.813 107.014 285.381 107.474C284.886 108.002 284.257 108.389 283.563 108.594C283.191 108.71 282.802 108.767 282.413 108.761C282.006 108.766 281.601 108.705 281.214 108.581C280.394 108.329 279.673 107.822 279.16 107.133C278.647 106.444 278.366 105.608 278.361 104.749C278.352 103.949 278.585 103.164 279.022 102.495C279.335 102.02 279.743 101.615 280.221 101.307C280.699 100.998 281.236 100.792 281.798 100.703C282.359 100.612 282.934 100.64 283.482 100.783C284.033 100.927 284.549 101.183 284.994 101.536C285.51 101.952 285.71 102.263 285.74 102.244H285.734Z" fill="#B2B6BB"/>
<path d="M313.928 132.022C313.069 132.335 312.181 132.557 311.279 132.686L310.126 135.67L304.132 134.784L303.889 131.595C303.063 131.211 302.28 130.742 301.551 130.197L298.624 131.487L295.017 126.627L297.101 124.197C296.788 123.34 296.567 122.452 296.44 121.549L293.47 120.39L294.363 114.41L297.549 114.172C297.938 113.342 298.411 112.553 298.964 111.821L297.682 108.905L302.517 105.33L304.947 107.417C305.82 107.1 306.727 106.877 307.647 106.753L308.806 103.783L314.681 104.679L314.902 107.865C315.58 108.203 316.236 108.584 316.865 109.007L317.357 109.334L319.887 108.181L320.248 108.06L323.775 112.763L321.72 115.177C322.044 116.05 322.273 116.955 322.406 117.877L325.376 119.022L324.579 124.497L324.512 124.959L321.334 125.207C320.948 126.041 320.478 126.832 319.927 127.567L321.22 130.491L316.36 134.096L313.928 132.022ZM318.842 127.432L319.012 127.216C319.644 126.407 320.173 125.522 320.583 124.581L320.694 124.327L323.685 124.095L324.339 119.613L321.531 118.533L321.498 118.263C321.374 117.233 321.118 116.224 320.734 115.26L320.634 114.99L322.57 112.717L319.903 109.18L317.243 110.39L316.323 109.777C315.661 109.332 314.967 108.937 314.246 108.594L313.992 108.483L313.787 105.486L309.365 104.811L308.285 107.595L308.015 107.628C306.986 107.746 305.979 107.995 305.015 108.37L304.745 108.47L302.466 106.504L298.813 109.204L300.02 111.953L299.85 112.169C299.215 112.973 298.683 113.855 298.273 114.793L298.16 115.047L295.157 115.271L294.482 119.799L297.288 120.879L297.32 121.149C297.436 122.166 297.684 123.165 298.057 124.119L298.157 124.389L296.194 126.671L298.94 130.348L301.694 129.133L301.913 129.306C302.715 129.933 303.592 130.458 304.524 130.869L304.777 130.98L305.004 133.982L309.546 134.652L310.626 131.844L310.896 131.811C311.913 131.688 312.91 131.438 313.866 131.066L314.136 130.966L316.42 132.924L320.086 130.197L318.842 127.432ZM309.305 125.253C308.725 125.255 308.15 125.164 307.602 124.983C306.432 124.621 305.406 123.898 304.675 122.918C303.951 121.936 303.557 120.751 303.549 119.532C303.538 118.952 303.622 118.374 303.795 117.82C303.948 117.289 304.183 116.785 304.491 116.324C305.02 115.514 305.744 114.851 306.594 114.393C307.448 113.936 308.401 113.699 309.367 113.705C310.69 113.711 311.976 114.163 313.012 114.988C313.76 115.594 314.341 116.38 314.7 117.272C315.18 118.498 315.234 119.85 314.859 121.111C314.584 122.036 314.084 122.877 313.401 123.558C312.718 124.24 311.876 124.74 310.952 125.013L310.75 125.07C310.277 125.198 309.794 125.264 309.305 125.264V125.253ZM307.178 115.131C306.397 115.519 305.733 116.106 305.253 116.835C304.731 117.638 304.456 118.577 304.461 119.535C304.464 120.564 304.799 121.565 305.412 122.391C306.027 123.216 306.889 123.824 307.874 124.125C308.787 124.409 309.767 124.416 310.685 124.143C311.463 123.914 312.173 123.494 312.745 122.921C313.32 122.348 313.741 121.641 313.974 120.863C314.292 119.788 314.241 118.638 313.828 117.596C313.523 116.856 313.037 116.206 312.413 115.706C311.541 115.02 310.466 114.644 309.359 114.639C308.919 114.64 308.482 114.698 308.058 114.81C307.753 114.888 307.458 114.999 307.178 115.142V115.131Z" fill="#B2B6BB"/>
<path d="M346.984 250.93H25.4439C25.2414 250.93 25.0767 250.701 25.0767 250.417C25.0767 250.134 25.2414 249.904 25.4439 249.904H346.984C347.186 249.904 347.348 250.134 347.348 250.417C347.348 250.701 347.186 250.93 346.984 250.93Z" fill="#B2B6BB"/>
<path d="M273.622 64.3195H97.123C96.3462 64.3195 95.7163 64.9491 95.7163 65.7262V194.3C95.7163 195.077 96.3462 195.707 97.123 195.707H273.622C274.4 195.707 275.029 195.077 275.029 194.3V65.7262C275.029 64.9491 274.4 64.3195 273.622 64.3195Z" fill="#F14F5C"/>
<path opacity="0.6" d="M273.622 64.3195H97.123C96.3462 64.3195 95.7163 64.9491 95.7163 65.7262V194.3C95.7163 195.077 96.3462 195.707 97.123 195.707H273.622C274.4 195.707 275.029 195.077 275.029 194.3V65.7262C275.029 64.9491 274.4 64.3195 273.622 64.3195Z" fill="white"/>
<path opacity="0.4" d="M96.8288 64.09H273.79C273.973 64.09 274.157 64.1264 274.327 64.1972C274.5 64.2676 274.654 64.3713 274.783 64.502C274.915 64.6327 275.018 64.7876 275.088 64.9583C275.161 65.1289 275.196 65.312 275.196 65.4967V73.1026H95.4221V65.4967C95.4221 65.1235 95.5703 64.7658 95.8341 64.502C96.0982 64.2382 96.4559 64.09 96.8288 64.09Z" fill="#F14F5C"/>
<path d="M271.743 64.2898H95.2436C94.4668 64.2898 93.8369 64.9197 93.8369 65.6965V194.27C93.8369 195.048 94.4668 195.677 95.2436 195.677H271.743C272.52 195.677 273.15 195.048 273.15 194.27V65.6965C273.15 64.9197 272.52 64.2898 271.743 64.2898Z" fill="#F14F5C"/>
<path opacity="0.8" d="M271.743 64.2898H95.2436C94.4668 64.2898 93.8369 64.9197 93.8369 65.6965V194.27C93.8369 195.048 94.4668 195.677 95.2436 195.677H271.743C272.52 195.677 273.15 195.048 273.15 194.27V65.6965C273.15 64.9197 272.52 64.2898 271.743 64.2898Z" fill="white"/>
<path d="M271.629 195.904H95.36C93.9641 195.904 93.6104 195.572 93.6104 194.203V65.764C93.6104 64.3951 93.9641 64.063 95.36 64.063H271.632C273.031 64.063 273.384 64.3951 273.384 65.764V194.203C273.382 195.58 273.02 195.904 271.629 195.904ZM95.36 64.5139C94.2179 64.5139 94.0721 64.6435 94.0721 65.764V194.203C94.0721 195.324 94.2179 195.45 95.36 195.45H271.632C272.777 195.45 272.923 195.324 272.923 194.203V65.764C272.923 64.6435 272.777 64.5139 271.632 64.5139H95.36Z" fill="#F14F5C"/>
<path opacity="0.6" d="M271.629 195.904H95.36C93.9641 195.904 93.6104 195.572 93.6104 194.203V65.764C93.6104 64.3951 93.9641 64.063 95.36 64.063H271.632C273.031 64.063 273.384 64.3951 273.384 65.764V194.203C273.382 195.58 273.02 195.904 271.629 195.904ZM95.36 64.5139C94.2179 64.5139 94.0721 64.6435 94.0721 65.764V194.203C94.0721 195.324 94.2179 195.45 95.36 195.45H271.632C272.777 195.45 272.923 195.324 272.923 194.203V65.764C272.923 64.6435 272.777 64.5139 271.632 64.5139H95.36Z" fill="white"/>
<path d="M273.366 73.1026H93.5945V65.4967C93.5942 65.312 93.6301 65.1292 93.7006 64.9586C93.7711 64.7879 93.8742 64.6329 94.0046 64.5023C94.135 64.3716 94.29 64.2679 94.4606 64.1972C94.631 64.1264 94.8138 64.09 94.9985 64.09H271.962C272.145 64.09 272.329 64.1264 272.499 64.1972C272.669 64.2679 272.826 64.3716 272.955 64.5023C273.085 64.6329 273.19 64.7879 273.26 64.9586C273.331 65.1292 273.366 65.312 273.366 65.4967V73.1026Z" fill="#F14F5C"/>
<path d="M255.646 70.543C256.528 70.543 257.247 69.8262 257.247 68.9419C257.247 68.0577 256.528 67.3408 255.646 67.3408C254.76 67.3408 254.044 68.0577 254.044 68.9419C254.044 69.8262 254.76 70.543 255.646 70.543Z" fill="white"/>
<path d="M260.735 70.543C261.621 70.543 262.336 69.8262 262.336 68.9419C262.336 68.0577 261.621 67.3408 260.735 67.3408C259.852 67.3408 259.134 68.0577 259.134 68.9419C259.134 69.8262 259.852 70.543 260.735 70.543Z" fill="white"/>
<path d="M265.824 70.543C266.71 70.543 267.426 69.8262 267.426 68.9419C267.426 68.0577 266.71 67.3408 265.824 67.3408C264.942 67.3408 264.223 68.0577 264.223 68.9419C264.223 69.8262 264.942 70.543 265.824 70.543Z" fill="white"/>
<path d="M241.643 129.957H125.346C122.911 129.957 120.937 131.931 120.937 134.366V134.833C120.937 137.268 122.911 139.242 125.346 139.242H241.643C244.079 139.242 246.052 137.268 246.052 134.833V134.366C246.052 131.931 244.079 129.957 241.643 129.957Z" fill="white"/>
<path d="M241.643 129.957H125.346C122.911 129.957 120.937 131.931 120.937 134.366V134.833C120.937 137.268 122.911 139.242 125.346 139.242H241.643C244.079 139.242 246.052 137.268 246.052 134.833V134.366C246.052 131.931 244.079 129.957 241.643 129.957Z" stroke="#F14F5C" stroke-width="1.12" stroke-miterlimit="10"/>
<path d="M126.853 130.78H237.11V138.34H126.853C123.848 138.34 121.82 136.734 121.82 134.752V134.374C121.82 132.389 123.848 130.78 126.853 130.78Z" fill="#F14F5C"/>
<path d="M180.823 133.434C180.823 132.665 181.304 132.181 181.968 132.187C182.632 132.192 183.091 132.678 183.083 133.456C183.075 134.233 182.611 134.709 181.946 134.7C181.282 134.692 180.818 134.201 180.823 133.434ZM182.443 133.434C182.443 132.945 182.262 132.71 181.973 132.708C181.685 132.705 181.498 132.943 181.493 133.426C181.487 133.909 181.682 134.152 181.963 134.152C182.243 134.152 182.427 133.936 182.433 133.448L182.443 133.434ZM184.695 132.251H185.47L182.3 136.804H181.525L184.695 132.251ZM183.915 135.599C183.915 134.83 184.395 134.347 185.054 134.352C185.713 134.357 186.183 134.852 186.177 135.618C186.172 136.385 185.694 136.871 185.03 136.866C184.366 136.86 183.899 136.38 183.904 135.613L183.915 135.599ZM185.519 135.613C185.519 135.132 185.335 134.889 185.049 134.887C184.763 134.884 184.571 135.116 184.568 135.605C184.566 136.094 184.755 136.329 185.035 136.331C185.316 136.334 185.502 136.11 185.508 135.64L185.519 135.613Z" fill="white"/>
<path d="M152.751 105.91H149.783C148.033 105.91 146.614 107.329 146.614 109.08V116.872C146.614 118.623 148.033 120.042 149.783 120.042H152.751C154.501 120.042 155.92 118.623 155.92 116.872V109.08C155.92 107.329 154.501 105.91 152.751 105.91Z" fill="white"/>
<path d="M166.581 110.735H163.614C161.863 110.735 160.444 112.154 160.444 113.905V116.872C160.444 118.623 161.863 120.042 163.614 120.042H166.581C168.332 120.042 169.751 118.623 169.751 116.872V113.905C169.751 112.154 168.332 110.735 166.581 110.735Z" fill="white"/>
<path d="M180.408 110.735H177.441C175.69 110.735 174.271 112.154 174.271 113.905V116.872C174.271 118.623 175.69 120.042 177.441 120.042H180.408C182.159 120.042 183.578 118.623 183.578 116.872V113.905C183.578 112.154 182.159 110.735 180.408 110.735Z" fill="white"/>
<path d="M194.237 105.91H191.269C189.519 105.91 188.1 107.329 188.1 109.08V116.872C188.1 118.623 189.519 120.042 191.269 120.042H194.237C195.987 120.042 197.407 118.623 197.407 116.872V109.08C197.407 107.329 195.987 105.91 194.237 105.91Z" fill="white"/>
<path d="M205.099 105.91H205.096C203.346 105.91 201.927 107.329 201.927 109.08V116.872C201.927 118.623 203.346 120.042 205.096 120.042H205.099C206.85 120.042 208.269 118.623 208.269 116.872V109.08C208.269 107.329 206.85 105.91 205.099 105.91Z" fill="white"/>
<path d="M217.203 110.735H215.961C214.21 110.735 212.791 112.154 212.791 113.905V116.872C212.791 118.623 214.21 120.042 215.961 120.042H217.203C218.953 120.042 220.373 118.623 220.373 116.872V113.905C220.373 112.154 218.953 110.735 217.203 110.735Z" fill="white"/>
<path d="M226.447 147.771H140.541C139.964 147.771 139.497 148.239 139.497 148.816V165.337C139.497 165.914 139.964 166.382 140.541 166.382H226.447C227.024 166.382 227.492 165.914 227.492 165.337V148.816C227.492 148.239 227.024 147.771 226.447 147.771Z" fill="white"/>
<path d="M221.596 151.276H168.096V152.318H221.596V151.276Z" fill="#DADDDF"/>
<path d="M221.596 154.797H168.096V155.839H221.596V154.797Z" fill="#DADDDF"/>
<path d="M221.596 158.317H168.096V159.359H221.596V158.317Z" fill="#DADDDF"/>
<path d="M202.604 161.835H168.096V162.878H202.604V161.835Z" fill="#DADDDF"/>
<path d="M163.065 149.054H140.966V165.097H163.065V149.054Z" fill="#F4F4F4"/>
<path d="M140.966 160.588L147.486 156.87L152.036 159.43L159.188 154.502L163.065 157.629V165.1H141.004L140.966 160.588Z" fill="#DADDDF"/>
<path d="M150.44 152.321C150.44 152.698 150.328 153.066 150.119 153.38C149.909 153.693 149.611 153.937 149.263 154.082C148.915 154.226 148.531 154.264 148.162 154.19C147.792 154.117 147.452 153.935 147.186 153.668C146.919 153.402 146.738 153.062 146.664 152.692C146.59 152.323 146.628 151.939 146.772 151.591C146.917 151.243 147.161 150.945 147.475 150.736C147.788 150.526 148.157 150.414 148.534 150.414C149.039 150.414 149.524 150.615 149.881 150.973C150.239 151.33 150.44 151.815 150.44 152.321Z" fill="#DADDDF"/>
<path d="M226.447 171.018H140.541C139.964 171.018 139.497 171.486 139.497 172.063V188.584C139.497 189.162 139.964 189.629 140.541 189.629H226.447C227.024 189.629 227.492 189.162 227.492 188.584V172.063C227.492 171.486 227.024 171.018 226.447 171.018Z" fill="white"/>
<path d="M221.596 174.525H168.096V175.568H221.596V174.525Z" fill="#DADDDF"/>
<path d="M221.596 178.043H168.096V179.086H221.596V178.043Z" fill="#DADDDF"/>
<path d="M221.596 181.564H168.096V182.607H221.596V181.564Z" fill="#DADDDF"/>
<path d="M202.604 185.085H168.096V186.127H202.604V185.085Z" fill="#DADDDF"/>
<path d="M163.065 172.303H140.966V188.347H163.065V172.303Z" fill="#F4F4F4"/>
<path d="M156.004 181.266C156.531 179.06 155.17 176.844 152.964 176.317C150.758 175.791 148.542 177.152 148.016 179.358C147.489 181.564 148.85 183.78 151.056 184.306C153.262 184.833 155.478 183.472 156.004 181.266Z" fill="#DADDDF"/>
<path d="M153.397 180.325L152.325 180.943L151.253 181.564V180.325V179.086L152.325 179.707L153.397 180.325Z" fill="#F4F4F4"/>
<path d="M137.749 66.0934H102.73C102.55 66.0939 102.374 66.1447 102.22 66.24C102.067 66.3353 101.944 66.4717 101.864 66.6334L98.4375 73.5211H142.04L138.611 66.6307C138.531 66.47 138.409 66.3348 138.257 66.2397C138.104 66.145 137.929 66.0942 137.749 66.0934Z" fill="#DADDDF"/>
<path d="M272.777 73.1782H93.5945V83.2357H272.777V73.1782Z" fill="#DADDDF"/>
<path d="M119.277 75.2707V80.8057C119.273 80.8829 119.299 80.9588 119.349 81.0174C119.399 81.0762 119.47 81.1135 119.547 81.1216H262.811C262.887 81.1135 262.96 81.0762 263.009 81.0174C263.06 80.9588 263.084 80.8829 263.081 80.8057V75.2707C263.084 75.1935 263.06 75.1179 263.009 75.0591C262.96 75.0005 262.887 74.9632 262.811 74.9548H119.56C119.481 74.9597 119.407 74.9956 119.354 75.0547C119.301 75.1139 119.273 75.1914 119.277 75.2707Z" fill="white"/>
<path d="M270.142 76.3453H265.619V76.9421H270.142V76.3453Z" fill="#F14F5C"/>
<path d="M270.142 77.5414H265.619V78.1381H270.142V77.5414Z" fill="#F14F5C"/>
<path d="M270.142 78.7402H265.619V79.337H270.142V78.7402Z" fill="#F14F5C"/>
<path opacity="0.3" d="M259.285 79.4124L259.204 79.3665C259.185 79.3512 259.169 79.3304 259.158 79.3066C259.15 79.2828 259.147 79.2569 259.15 79.2315L259.326 78.2028L258.516 77.4252L258.535 77.3361C258.543 77.3113 258.556 77.2892 258.575 77.2724C258.597 77.2557 258.621 77.2449 258.645 77.2416L259.677 77.0904L260.171 76.0887H260.263C260.29 76.089 260.314 76.096 260.335 76.1093C260.357 76.1228 260.376 76.1417 260.387 76.1643L260.846 77.0985L261.953 77.2578L261.988 77.3415C261.996 77.3661 261.999 77.3926 261.993 77.418C261.988 77.4433 261.974 77.4666 261.955 77.4846L261.208 78.2109L261.397 79.3125L261.332 79.3719C261.31 79.3881 261.286 79.3979 261.259 79.4C261.235 79.4025 261.208 79.3976 261.183 79.3854L260.263 78.8994L259.285 79.4124ZM258.899 77.4495L259.582 78.1137V78.1947L259.431 79.0641L260.273 78.6213L260.346 78.651L261.129 79.0641L260.97 78.1299L261.016 78.0705L261.653 77.4495L260.711 77.3118L260.67 77.2443L260.281 76.4532L259.86 77.3037L259.785 77.3226L258.899 77.4495Z" fill="black"/>
<path opacity="0.3" d="M106.657 76.2967C106.62 76.2746 106.575 76.2654 106.532 76.2708C106.489 76.2762 106.448 76.2962 106.417 76.327C106.386 76.358 106.367 76.3982 106.361 76.4417C106.356 76.4852 106.365 76.5292 106.387 76.5667L107.432 77.6116H104.654C104.602 77.6116 104.551 77.6324 104.514 77.6694C104.477 77.7064 104.457 77.7566 104.457 77.8087C104.457 77.8611 104.477 77.911 104.514 77.948C104.551 77.985 104.602 78.0058 104.654 78.0058H107.483L106.403 79.0858C106.369 79.1228 106.351 79.1708 106.351 79.2208C106.351 79.2707 106.369 79.3191 106.403 79.3558C106.44 79.3909 106.488 79.4103 106.538 79.4103C106.589 79.4103 106.637 79.3909 106.673 79.3558L108.21 77.8195L106.657 76.2967Z" fill="black"/>
<path opacity="0.3" d="M100.29 77.6197H97.5201L98.565 76.5748C98.5871 76.5372 98.5963 76.4932 98.5909 76.4498C98.5855 76.4066 98.5655 76.3661 98.5347 76.335C98.5037 76.3042 98.4635 76.2845 98.42 76.2789C98.3765 76.2735 98.3325 76.2826 98.295 76.3048L96.7344 77.86L98.2707 79.3989C98.289 79.4173 98.3112 79.4316 98.3352 79.4413C98.3592 79.4511 98.3851 79.4559 98.4111 79.4556C98.4502 79.4562 98.4888 79.4448 98.5215 79.4232C98.5544 79.4016 98.5801 79.3706 98.5952 79.3344C98.6101 79.298 98.6141 79.2583 98.6063 79.2197C98.5985 79.1811 98.5796 79.146 98.5515 79.1181L97.4715 78.0382H100.301C100.353 78.0382 100.403 78.0176 100.44 77.9806C100.477 77.9437 100.498 77.8934 100.498 77.8411C100.498 77.7889 100.477 77.7387 100.44 77.7017C100.403 77.6648 100.353 77.644 100.301 77.644L100.29 77.6197Z" fill="black"/>
<g opacity="0.3">
<path opacity="0.3" d="M113.841 79.6959C113.604 79.6959 113.37 79.6428 113.157 79.5402C112.943 79.4373 112.756 79.2877 112.608 79.1025C112.461 78.9173 112.357 78.701 112.305 78.4701C112.252 78.239 112.253 77.9993 112.306 77.7684C112.359 77.5376 112.463 77.3218 112.612 77.1369C112.76 76.9522 112.948 76.8032 113.162 76.7011C113.376 76.599 113.61 76.5467 113.846 76.5477C114.083 76.5486 114.317 76.6031 114.53 76.707C114.577 76.73 114.613 76.7705 114.63 76.8202C114.648 76.8698 114.645 76.9244 114.622 76.9716C114.599 77.0189 114.558 77.0551 114.508 77.0724C114.459 77.0894 114.404 77.0864 114.357 77.0634C114.197 76.983 114.02 76.9411 113.841 76.9419C113.608 76.9414 113.379 77.01 113.185 77.1393C112.99 77.2686 112.839 77.4528 112.749 77.6682C112.659 77.884 112.636 78.1213 112.681 78.3503C112.726 78.5792 112.838 78.7898 113.003 78.9551C113.168 79.1203 113.378 79.2332 113.607 79.2788C113.836 79.3244 114.074 79.3012 114.289 79.2121C114.505 79.1227 114.69 78.9715 114.819 78.7777C114.949 78.5835 115.018 78.3551 115.018 78.1218C115.018 78.0695 115.039 78.0192 115.076 77.9823C115.113 77.9455 115.163 77.9247 115.216 77.9247C115.268 77.9247 115.318 77.9455 115.355 77.9823C115.392 78.0192 115.413 78.0695 115.413 78.1218C115.413 78.5387 115.247 78.9389 114.953 79.234C114.658 79.5291 114.258 79.6951 113.841 79.6959Z" fill="black"/>
<path opacity="0.3" d="M114.087 77.6629C114.04 77.6642 113.993 77.6488 113.957 77.6191C113.92 77.5894 113.895 77.5476 113.886 77.5011C113.878 77.455 113.886 77.4069 113.91 77.3661C113.934 77.3256 113.972 77.2946 114.016 77.2795L114.759 76.996L114.473 76.2535C114.455 76.2043 114.457 76.1501 114.478 76.1023C114.499 76.0545 114.538 76.0167 114.586 75.997C114.61 75.9872 114.636 75.9827 114.662 75.9832C114.688 75.9837 114.714 75.9894 114.738 75.9999C114.762 76.0105 114.783 76.0256 114.801 76.0448C114.819 76.0637 114.833 76.0858 114.843 76.1104L115.269 77.2228L114.159 77.6494C114.136 77.6577 114.111 77.6623 114.087 77.6629Z" fill="black"/>
</g>
<path opacity="0.3" d="M135.909 70.1299L137.013 69.023C137.053 68.9835 137.075 68.9301 137.076 68.8739C137.076 68.818 137.054 68.7643 137.015 68.7246C136.975 68.6849 136.922 68.6625 136.866 68.6622C136.81 68.662 136.756 68.6838 136.716 68.7233L135.609 69.8303L134.502 68.7233C134.462 68.6844 134.408 68.6628 134.352 68.6628C134.296 68.6628 134.243 68.6844 134.203 68.7233C134.183 68.743 134.167 68.7662 134.156 68.7918C134.145 68.8175 134.14 68.8453 134.14 68.8731C134.14 68.9009 134.145 68.9285 134.156 68.9544C134.167 68.98 134.183 69.0032 134.203 69.023L135.31 70.1299L134.203 71.2369C134.183 71.2567 134.167 71.2799 134.156 71.3055C134.145 71.3312 134.14 71.359 134.14 71.3868C134.14 71.4146 134.145 71.4421 134.156 71.4681C134.167 71.4937 134.183 71.5169 134.203 71.5366C134.222 71.5563 134.245 71.5723 134.271 71.5831C134.297 71.5936 134.325 71.5993 134.352 71.5993C134.38 71.5993 134.408 71.5936 134.434 71.5831C134.459 71.5723 134.483 71.5563 134.502 71.5366L135.609 70.4296L136.716 71.5366C136.756 71.5761 136.81 71.5979 136.866 71.5977C136.922 71.5974 136.975 71.575 137.015 71.5353C137.054 71.4956 137.076 71.4419 137.076 71.3857C137.075 71.3298 137.053 71.2764 137.013 71.2369L135.909 70.1299Z" fill="black"/>
<path d="M107.405 127.883C130.1 127.883 148.499 109.485 148.499 86.7889C148.499 64.0932 130.1 45.6949 107.405 45.6949C84.7089 45.6949 66.3105 64.0932 66.3105 86.7889C66.3105 109.485 84.7089 127.883 107.405 127.883Z" fill="white"/>
<path opacity="0.15" d="M122.471 48.5461C132.161 53.0386 139.723 61.1275 143.553 71.0989C147.384 81.0703 147.182 92.1411 142.991 101.966C138.799 111.791 130.948 119.599 121.1 123.736C111.252 127.872 100.18 128.013 90.23 124.127C95.222 126.428 100.625 127.704 106.119 127.88C111.613 128.056 117.087 127.128 122.216 125.152C127.345 123.175 132.026 120.19 135.981 116.372C139.936 112.554 143.085 107.983 145.241 102.926C147.398 97.8702 148.519 92.433 148.537 86.936C148.555 81.4391 147.471 75.9946 145.348 70.9242C143.225 65.8539 140.106 61.2609 136.177 57.4172C132.247 53.5732 127.587 50.5568 122.471 48.5461Z" fill="black"/>
<path d="M133.311 92.4832C131.771 99.1613 127.707 104.985 121.971 108.734L127.279 116.818C135.029 111.744 140.537 103.89 142.669 94.8753L133.311 92.4832Z" fill="#F14F5C"/>
<path opacity="0.4" d="M133.311 92.4832C131.771 99.1613 127.707 104.985 121.971 108.734L127.279 116.818C135.029 111.744 140.537 103.89 142.669 94.8753L133.311 92.4832Z" fill="black"/>
<path d="M108.46 59.9185C112.349 60.0743 116.156 61.0822 119.613 62.8715C123.069 64.6608 126.09 67.1874 128.462 70.273L135.817 63.9874C132.537 59.838 128.388 56.4574 123.662 54.083C118.936 51.7086 113.747 50.3986 108.46 50.2444V59.9185Z" fill="#F14F5C"/>
<path opacity="0.2" d="M108.46 59.9185C112.349 60.0743 116.156 61.0822 119.613 62.8715C123.069 64.6608 126.09 67.1874 128.462 70.273L135.817 63.9874C132.537 59.838 128.388 56.4574 123.662 54.083C118.936 51.7086 113.747 50.3986 108.46 50.2444V59.9185Z" fill="black"/>
<path d="M129.693 72.0037C132.508 76.3137 134.003 81.3521 133.994 86.5C133.994 87.8103 133.897 89.1187 133.706 90.415L143.11 92.8153C143.472 90.7298 143.653 88.6168 143.65 86.5C143.655 79.0571 141.358 71.7952 137.072 65.71L129.693 72.0037Z" fill="#F14F5C"/>
<path opacity="0.3" d="M129.693 72.0037C132.508 76.3137 134.003 81.3521 133.994 86.5C133.994 87.8103 133.897 89.1187 133.706 90.415L143.11 92.8153C143.472 90.7298 143.653 88.6168 143.65 86.5C143.655 79.0571 141.358 71.7952 137.072 65.71L129.693 72.0037Z" fill="black"/>
<path d="M85.7565 71.0614C88.1106 67.756 91.1902 65.0333 94.7591 63.102C98.3282 61.1705 102.292 60.0816 106.347 59.9185V50.2444C100.894 50.4045 95.5477 51.7934 90.7069 54.3076C85.8658 56.8219 81.6549 60.3964 78.3882 64.765L85.7565 71.0614Z" fill="#F14F5C"/>
<path d="M81.1118 90.4744C80.9131 89.159 80.813 87.8306 80.8121 86.5C80.8086 81.6935 82.1154 76.9766 84.5921 72.8569L77.1698 66.5146C72.0274 74.2785 70.0742 83.7247 71.7158 92.8909L81.1118 90.4744Z" fill="#F14F5C"/>
<path opacity="0.2" d="M81.1118 90.4744C80.9131 89.159 80.813 87.8306 80.8121 86.5C80.8086 81.6935 82.1154 76.9766 84.5921 72.8569L77.1698 66.5146C72.0274 74.2785 70.0742 83.7247 71.7158 92.8909L81.1118 90.4744Z" fill="white"/>
<path d="M81.5118 92.5562L72.1401 94.9484C74.2888 103.936 79.7954 111.761 87.5301 116.818L92.8356 108.735C87.1208 104.999 83.0651 99.2046 81.5118 92.5562Z" fill="#F14F5C"/>
<path opacity="0.4" d="M81.5118 92.5562L72.1401 94.9484C74.2888 103.936 79.7954 111.761 87.5301 116.818L92.8356 108.735C87.1208 104.999 83.0651 99.2046 81.5118 92.5562Z" fill="white"/>
<path d="M107.405 128.185C84.5765 128.185 66.0059 109.615 66.0059 86.7889C66.0059 63.9631 84.5765 45.3925 107.405 45.3925C130.233 45.3925 148.801 63.9631 148.801 86.7889C148.801 109.615 130.231 128.185 107.405 128.185ZM107.405 45.9973C84.9113 45.9973 66.6107 64.2952 66.6107 86.7889C66.6107 109.283 84.9113 127.581 107.405 127.581C129.899 127.581 148.197 109.283 148.197 86.7889C148.197 64.2952 129.896 46 107.405 46V45.9973Z" fill="#B2B6BB"/>
<path d="M106.216 86.5769C106.148 87.1924 106.326 87.8095 106.712 88.2942C107.097 88.7789 107.659 89.0913 108.274 89.1637L137.13 93.7173C137.218 93.7188 137.304 93.6893 137.374 93.634C137.443 93.5784 137.49 93.5006 137.509 93.4138C137.526 93.3273 137.514 93.2369 137.472 93.1584C137.431 93.0801 137.363 93.0189 137.281 92.9849L109.186 84.5823C108.858 84.4896 108.515 84.4693 108.179 84.5228C107.842 84.5762 107.522 84.7024 107.239 84.892C106.957 85.0817 106.719 85.3309 106.542 85.6218C106.365 85.9126 106.254 86.2386 106.216 86.5769Z" fill="#21252B"/>
<path d="M107.405 94.6459C111.744 94.6459 115.262 91.128 115.262 86.7889C115.262 82.4494 111.744 78.9319 107.405 78.9319C103.066 78.9319 99.5483 82.4494 99.5483 86.7889C99.5483 91.128 103.066 94.6459 107.405 94.6459Z" fill="#DADDDF"/>
<path d="M107.404 91.927C110.242 91.927 112.542 89.6266 112.542 86.7889C112.542 83.9512 110.242 81.6508 107.404 81.6508C104.567 81.6508 102.266 83.9512 102.266 86.7889C102.266 89.6266 104.567 91.927 107.404 91.927Z" fill="#F14F5C"/>
<path d="M107.405 88.903C108.573 88.903 109.519 87.9567 109.519 86.7889C109.519 85.6214 108.573 84.6748 107.405 84.6748C106.238 84.6748 105.291 85.6214 105.291 86.7889C105.291 87.9567 106.238 88.903 107.405 88.903Z" fill="white"/>
<path d="M107.405 94.6459C105.851 94.6465 104.331 94.1861 103.039 93.3229C101.746 92.46 100.739 91.2331 100.144 89.7975C99.5487 88.3619 99.3927 86.7819 99.6956 85.2577C99.9985 83.7333 100.746 82.3331 101.845 81.2339C102.944 80.135 104.344 79.3863 105.868 79.0831C107.392 78.7796 108.972 78.9351 110.408 79.5297C111.844 80.1242 113.071 81.1313 113.935 82.4235C114.798 83.7155 115.259 85.2348 115.259 86.7889C115.257 88.8714 114.429 90.8683 112.956 92.3412C111.484 93.8143 109.487 94.6429 107.405 94.6459ZM107.405 79.5259C105.97 79.5254 104.568 79.9501 103.375 80.7468C102.182 81.5433 101.252 82.6757 100.702 84.0009C100.153 85.326 100.009 86.7843 100.289 88.1913C100.568 89.5983 101.259 90.8908 102.273 91.9051C103.287 92.9198 104.579 93.6107 105.986 93.8907C107.393 94.1707 108.851 94.0273 110.177 93.4784C111.502 92.9295 112.635 92.0002 113.432 90.8073C114.229 89.6147 114.654 88.2126 114.654 86.7781C114.649 84.8576 113.884 83.0175 112.525 81.6603C111.166 80.303 109.325 79.5394 107.405 79.5367V79.5259Z" fill="#B2B6BB"/>
<g opacity="0.2">
<path opacity="0.2" d="M107.404 91.9161C106.39 91.9161 105.398 91.6151 104.555 91.0513C103.711 90.4878 103.053 89.6865 102.665 88.7493C102.277 87.8119 102.175 86.7802 102.373 85.7853C102.571 84.79 103.06 83.8761 103.777 83.1587C104.495 82.441 105.409 81.9526 106.404 81.7547C107.399 81.5568 108.43 81.6583 109.368 82.0466C110.305 82.4348 111.106 83.0923 111.67 83.936C112.234 84.7795 112.534 85.7715 112.534 86.7861C112.534 88.1467 111.994 89.4513 111.032 90.4136C110.07 91.3756 108.765 91.9161 107.404 91.9161ZM107.404 82.2474C106.506 82.2474 105.628 82.5137 104.881 83.0126C104.135 83.5116 103.553 84.2209 103.209 85.0509C102.865 85.8806 102.775 86.7937 102.95 87.6747C103.126 88.5557 103.558 89.3649 104.193 89.9999C104.828 90.635 105.637 91.0675 106.519 91.2428C107.4 91.418 108.313 91.3281 109.142 90.9844C109.972 90.6407 110.682 90.0585 111.181 89.3117C111.68 88.5649 111.946 87.6869 111.946 86.7888C111.944 85.5849 111.465 84.4309 110.613 83.5799C109.762 82.7286 108.608 82.2496 107.404 82.2474Z" fill="black"/>
</g>
<path d="M116.768 113.381H98.0353C97.8682 113.381 97.7329 113.516 97.7329 113.684V118.217C97.7329 118.384 97.8682 118.519 98.0353 118.519H116.768C116.935 118.519 117.07 118.384 117.07 118.217V113.684C117.07 113.516 116.935 113.381 116.768 113.381Z" fill="#868A91"/>
<path d="M57.77 233.871C56.0528 209.212 54.152 207.581 54.071 207.525L54.1898 207.301C54.2735 207.341 56.2634 208.559 58.0238 233.852L57.77 233.871Z" fill="#3F4249"/>
<path d="M59.5503 233.869L59.2938 233.853C60.4251 215.838 59.1939 206.016 59.1831 205.918L59.4369 205.883C59.4369 205.981 60.6817 215.827 59.5503 233.869Z" fill="#3F4249"/>
<path d="M61.1 234.409C59.7284 223.174 63.2222 214.615 63.26 214.529L63.4949 214.628C63.4598 214.712 59.9849 223.212 61.3538 234.376L61.1 234.409Z" fill="#3F4249"/>
<path d="M62.5302 235.778C61.957 231.768 61.987 227.696 62.6193 223.695L62.8704 223.744C62.2427 227.716 62.2127 231.759 62.7813 235.74L62.5302 235.778Z" fill="#3F4249"/>
<path d="M63.3008 214.731L64.4105 214.639C65.1965 214.575 65.9592 214.341 66.6461 213.954C66.9825 213.758 67.3305 213.583 67.6883 213.43C69.0599 212.89 70.5881 212.979 72.0623 212.906C74.4761 212.783 76.8413 212.179 79.0175 211.127C79.1444 211.071 79.2502 210.977 79.3199 210.857C79.5494 210.444 79.1255 210.074 78.761 209.85C76.8953 208.699 74.9945 207.533 72.8777 206.963C70.7609 206.394 68.3606 206.483 66.5516 207.73C64.4321 209.188 63.6599 212.185 63.3116 214.734" fill="#F14F5C"/>
<path opacity="0.3" d="M79.3458 210.716C79.2807 210.691 79.2176 210.661 79.1568 210.627L78.633 210.357C78.1767 210.119 77.5206 209.766 76.6917 209.369C75.7273 208.894 74.7226 208.507 73.6893 208.211C72.426 207.849 71.1038 207.742 69.7986 207.894C68.4918 208.041 67.2574 208.571 66.2508 209.417C65.4659 210.148 64.8376 211.031 64.404 212.012C64.1 212.672 63.8297 213.347 63.594 214.034C63.513 214.266 63.4455 214.45 63.3969 214.593C63.3772 214.66 63.351 214.724 63.3186 214.785C63.3289 214.716 63.3453 214.649 63.3672 214.582C63.4104 214.439 63.4698 214.251 63.54 214.016C63.7533 213.318 64.0085 212.635 64.3041 211.969C64.7302 210.966 65.3612 210.063 66.1563 209.317C67.178 208.444 68.4383 207.897 69.7743 207.749C71.0992 207.592 72.4419 207.705 73.7217 208.081C74.7593 208.382 75.7664 208.78 76.7295 209.269C77.5557 209.679 78.2037 210.047 78.6519 210.303L79.1622 210.603C79.2243 210.635 79.2829 210.673 79.3377 210.716" fill="black"/>
<path opacity="0.3" d="M76.6839 212.145C76.6623 212.18 75.2124 211.24 73.4439 210.052C71.6754 208.864 70.2687 207.87 70.2903 207.835C70.3119 207.8 71.7618 208.74 73.5303 209.931C75.2988 211.121 76.7082 212.112 76.6839 212.145Z" fill="black"/>
<path opacity="0.3" d="M75.1396 207.76C74.7994 207.876 74.4433 207.94 74.0839 207.949C73.7259 208.003 73.3619 208.003 73.0039 207.949C73.3552 207.886 73.711 207.849 74.0677 207.841C74.4255 207.79 74.7864 207.767 75.1477 207.773" fill="black"/>
<path opacity="0.3" d="M68.7951 206.933C68.6765 207.204 68.5162 207.455 68.3199 207.676C68.1536 207.932 67.9508 208.162 67.7178 208.359C67.8363 208.088 67.9967 207.838 68.193 207.617C68.3593 207.361 68.5621 207.131 68.7951 206.933Z" fill="black"/>
<path opacity="0.3" d="M70.0934 212.998C69.8488 212.896 69.6155 212.769 69.3968 212.62C68.9783 212.366 68.4113 211.993 67.8065 211.556C67.2017 211.118 66.6698 210.7 66.2864 210.398C66.0707 210.244 65.8693 210.071 65.6843 209.882C65.9198 210.003 66.1422 210.148 66.3485 210.314L67.8929 211.437C68.495 211.874 69.0485 212.247 69.4535 212.533C69.6787 212.671 69.8926 212.826 70.0934 212.998Z" fill="black"/>
<path d="M66.3055 249.934H55.3381L53.2969 234.881H68.3467L66.3055 249.934Z" fill="#61656D"/>
<path d="M69.6234 237.179H52.0221L51.7656 233.861H69.8772L69.6234 237.179Z" fill="#61656D"/>
<path opacity="0.2" d="M53.6069 237.179H68.0357L66.305 249.934L64.5743 249.815L65.5409 238.2L53.7203 238L53.6069 237.179Z" fill="black"/>
<path opacity="0.2" d="M65.8543 233.885L65.3413 237.179H69.6235L69.8773 233.861L65.8543 233.885Z" fill="black"/>
<g opacity="0.2">
<g opacity="0.2">
<path opacity="0.2" d="M67.326 240.967H54.2769V241.221H67.326V240.967Z" fill="white"/>
</g>
</g>
<g opacity="0.2">
<g opacity="0.2">
<path opacity="0.2" d="M67.326 241.985H54.2769V242.239H67.326V241.985Z" fill="white"/>
</g>
</g>
<path d="M54.371 207.409C53.3153 206.599 52.1975 206.451 50.8745 206.505C49.5491 206.593 48.2518 206.927 47.0486 207.49C44.9777 208.397 43.0337 209.733 41.7971 211.626C40.5605 213.519 40.1285 216.019 41.0546 218.082C41.127 218.297 41.276 218.477 41.4731 218.589C41.7048 218.654 41.9521 218.633 42.1697 218.53C44.5241 217.76 46.8947 216.986 49.0601 215.784C51.2255 214.583 53.1938 212.909 54.3548 210.722C54.6551 210.206 54.8452 209.635 54.9137 209.042C54.9459 208.746 54.9146 208.446 54.8214 208.163C54.7283 207.88 54.5754 207.62 54.3737 207.401" fill="#F14F5C"/>
<path opacity="0.3" d="M54.3932 207.16C54.3392 207.19 54.2822 207.213 54.2231 207.23L53.729 207.401L53.3726 207.519C53.243 207.565 53.1026 207.622 52.9541 207.681C52.6571 207.803 52.3115 207.922 51.947 208.1L51.3692 208.37C51.1694 208.462 50.9696 208.575 50.759 208.683C50.3324 208.894 49.9004 209.161 49.4414 209.434C48.4602 210.05 47.5279 210.74 46.6523 211.499C45.7883 212.271 44.984 213.108 44.2466 214.002C43.9199 214.423 43.5986 214.812 43.3367 215.214C43.2017 215.412 43.0667 215.595 42.9452 215.781L42.6131 216.321C42.389 216.662 42.227 216.988 42.0731 217.269C41.9948 217.41 41.9219 217.539 41.8571 217.663L41.6951 218.001L41.4629 218.468C41.4399 218.524 41.41 218.578 41.3738 218.627C41.3881 218.568 41.4089 218.511 41.4359 218.457L41.6411 217.977C41.6897 217.871 41.741 217.755 41.795 217.631C41.849 217.507 41.9273 217.361 42.0002 217.231C42.1514 216.945 42.308 216.613 42.5267 216.27C42.6293 216.095 42.74 215.911 42.8534 215.73C42.9668 215.549 43.1045 215.355 43.2395 215.155C43.5095 214.753 43.8173 214.345 44.144 213.927C44.8808 213.022 45.6881 212.177 46.5578 211.399C47.4391 210.635 48.3797 209.943 49.3712 209.328C49.8356 209.058 50.273 208.788 50.705 208.586C50.9183 208.481 51.1208 208.367 51.3233 208.278L51.9092 208.008C52.2764 207.838 52.6274 207.722 52.9298 207.608C53.081 207.554 53.2214 207.5 53.351 207.457L53.7155 207.349L54.2177 207.206C54.2755 207.187 54.3351 207.173 54.3959 207.166" fill="black"/>
<path opacity="0.3" d="M46.1442 211.626C45.3042 211.949 44.447 212.226 43.5765 212.455C42.7195 212.732 41.8479 212.961 40.9656 213.141C41.8061 212.819 42.6633 212.542 43.5333 212.312C44.3911 212.038 45.2626 211.809 46.1442 211.626Z" fill="black"/>
<path opacity="0.3" d="M46.0388 217.293C45.9921 217.026 45.9732 216.755 45.9821 216.483C45.9686 215.989 45.9659 215.304 45.9821 214.55C45.9983 213.797 46.0442 213.111 46.0847 212.62C46.0928 212.352 46.1263 212.085 46.1846 211.823C46.2103 212.093 46.2103 212.364 46.1846 212.633C46.1684 213.173 46.1468 213.835 46.1252 214.561C46.1036 215.287 46.0901 215.949 46.0766 216.492C46.0834 216.762 46.068 217.033 46.0307 217.302" fill="black"/>
<path opacity="0.3" d="M50.8934 214.82C50.853 214.82 50.7234 213.435 50.6046 211.718C50.4858 210.001 50.4237 208.607 50.4615 208.605C50.4993 208.602 50.6316 209.99 50.7504 211.707C50.8692 213.424 50.9339 214.817 50.8934 214.82Z" fill="black"/>
<path opacity="0.3" d="M44.8509 208.47C45.1195 208.435 45.3906 208.426 45.6609 208.443C46.1685 208.443 46.8705 208.462 47.6427 208.489C48.4149 208.516 49.1169 208.545 49.6245 208.575C49.8961 208.578 50.1672 208.604 50.4345 208.653C50.1615 208.688 49.8856 208.697 49.611 208.68C49.1034 208.68 48.4014 208.662 47.6292 208.635C46.857 208.608 46.1523 208.578 45.6474 208.548C45.3755 208.546 45.1047 208.519 44.8374 208.47" fill="black"/>
<path d="M52.2488 202.044L50.8988 204.509C50.8664 204.568 50.8259 204.633 50.7611 204.638C50.6963 204.644 50.6342 204.576 50.5964 204.514C49.3941 202.675 48.1942 200.834 46.9973 198.993L47.8262 198.523L52.2488 202.044Z" fill="#F14F5C"/>
<path opacity="0.2" d="M52.2488 202.044L50.8988 204.509C50.8664 204.568 50.8259 204.633 50.7611 204.638C50.6963 204.644 50.6342 204.576 50.5964 204.514C49.3941 202.675 48.1942 200.834 46.9973 198.993L47.8262 198.523L52.2488 202.044Z" fill="black"/>
<path d="M59.5497 206.488L47.2728 199.244C47.1392 199.184 47.0331 199.076 46.9758 198.942C46.9245 198.761 47.0622 198.585 47.1918 198.45C48.0361 197.575 49.0592 196.891 50.1913 196.446C51.3234 196.001 52.5381 195.805 53.7528 195.872C54.9678 195.958 56.1437 196.339 57.1789 196.981C58.2138 197.624 59.0767 198.509 59.6928 199.56C60.8781 201.677 60.9159 204.477 59.5578 206.488" fill="#F14F5C"/>
<path opacity="0.3" d="M49.0413 196.93C49.0944 196.918 49.1487 196.911 49.2033 196.911C49.3086 196.911 49.4733 196.887 49.6677 196.889C50.2387 196.881 50.809 196.926 51.3714 197.024C52.2097 197.165 53.0265 197.412 53.8014 197.762C55.72 198.606 57.3138 200.049 58.3455 201.874C58.7688 202.611 59.0947 203.399 59.3148 204.22C59.4697 204.769 59.5721 205.331 59.6199 205.899C59.6415 206.102 59.6334 206.153 59.6388 206.258C59.6299 206.355 59.5975 206.447 59.5443 206.528C59.5813 206.324 59.5877 206.114 59.5632 205.907C59.4927 205.346 59.3761 204.792 59.2149 204.25C58.5974 202.182 57.3411 200.363 55.6258 199.054C53.9107 197.744 51.825 197.011 49.6677 196.96C49.2654 196.96 49.044 196.96 49.0413 196.943" fill="black"/>
<path opacity="0.3" d="M57.8874 201.488C57.6922 201.601 57.4848 201.692 57.2691 201.758C56.8776 201.912 56.3295 202.109 55.7193 202.298C55.1091 202.487 54.5475 202.646 54.1398 202.746C53.9219 202.814 53.6973 202.857 53.4702 202.875C53.6749 202.777 53.8893 202.7 54.1101 202.646L55.6734 202.157L57.234 201.655C57.4449 201.571 57.6639 201.51 57.8874 201.471" fill="black"/>
<path opacity="0.3" d="M55.9532 196.296C56.0631 196.743 56.112 197.204 56.099 197.664C56.1365 198.124 56.1109 198.586 56.0234 199.039C55.9637 198.584 55.9402 198.126 55.9532 197.667C55.9173 197.211 55.9173 196.752 55.9532 196.296Z" fill="black"/>
<path opacity="0.3" d="M47.165 199.106C47.4531 198.976 47.7523 198.871 48.0587 198.793C48.6149 198.62 49.3925 198.402 50.2592 198.194C51.1259 197.986 51.9143 197.824 52.4894 197.724C52.7978 197.656 53.111 197.613 53.4263 197.597C53.1274 197.696 52.8215 197.773 52.511 197.826C51.9413 197.953 51.161 198.129 50.2916 198.337C49.4222 198.545 48.65 198.747 48.0857 198.893C47.7841 198.985 47.4766 199.057 47.165 199.106Z" fill="black"/>
<path d="M64.6771 220.204C63.6187 219.934 62.3605 220.952 62.1418 222.024C61.9231 223.096 62.3254 224.184 62.7952 225.177C63.8374 227.362 65.2738 229.387 67.1665 230.896C69.0592 232.405 71.4298 233.369 73.849 233.356C73.4035 231.279 73.9678 229.111 73.7194 227.005C73.5007 225.148 72.6577 223.419 71.3283 222.103C69.999 220.787 68.2621 219.961 66.4024 219.761C65.7274 219.688 64.9444 219.58 64.6771 220.204Z" fill="#F14F5C"/>
<path opacity="0.3" d="M73.8494 233.356C73.7959 233.339 73.7452 233.316 73.6982 233.285C73.5591 233.207 73.4271 233.117 73.304 233.015C72.8601 232.631 72.5045 232.154 72.2618 231.62C72.0917 231.293 71.9027 230.936 71.7218 230.54L71.1548 229.281C70.9498 228.817 70.7163 228.366 70.4555 227.931C70.1695 227.471 69.848 227.033 69.4943 226.622C68.7707 225.771 67.9931 225.037 67.3208 224.335C66.7122 223.721 66.1576 223.057 65.663 222.348C65.3322 221.866 65.0603 221.347 64.853 220.801C64.7855 220.606 64.7369 220.452 64.7126 220.347C64.6945 220.295 64.6837 220.24 64.6802 220.185C64.6937 220.185 64.7531 220.401 64.907 220.779C65.1332 221.311 65.4157 221.817 65.7494 222.288C66.2513 222.983 66.8094 223.636 67.418 224.24C68.093 224.934 68.8733 225.669 69.605 226.527C69.9638 226.943 70.2889 227.388 70.577 227.856C70.8394 228.29 71.073 228.741 71.2763 229.206C71.4726 229.652 71.6578 230.073 71.8325 230.469C72.0107 230.861 72.1943 231.22 72.3563 231.549C72.5871 232.079 72.9233 232.555 73.3445 232.951C73.6523 233.221 73.8602 233.315 73.8521 233.329" fill="black"/>
<path opacity="0.3" d="M68.3843 231.63C68.3894 231.391 68.4221 231.152 68.4815 230.92C68.5652 230.486 68.7002 229.886 68.8838 229.235C69.0674 228.585 69.2618 228.004 69.4238 227.591C69.4948 227.361 69.5917 227.14 69.7127 226.932C69.6722 227.168 69.609 227.4 69.5237 227.624C69.3914 228.045 69.2132 228.628 69.0296 229.276C68.846 229.924 68.6975 230.515 68.5868 230.942C68.5436 231.177 68.4774 231.408 68.3897 231.63" fill="black"/>
<path opacity="0.3" d="M73.649 226.538C73.3963 226.501 73.1471 226.443 72.9038 226.365C72.4502 226.247 71.8238 226.095 71.1191 225.925C70.4144 225.755 69.7691 225.655 69.3209 225.558C69.0671 225.526 68.8168 225.471 68.573 225.393C68.8292 225.387 69.0855 225.408 69.3371 225.455C69.8042 225.518 70.4495 225.626 71.1515 225.782C71.8535 225.939 72.4853 226.122 72.9335 226.265C73.1808 226.33 73.4208 226.42 73.649 226.535" fill="black"/>
<path opacity="0.3" d="M64.4642 228.018C64.4734 227.745 64.5114 227.473 64.5776 227.208C64.6694 226.703 64.8179 226.009 65.015 225.253C65.2121 224.497 65.4227 223.817 65.5901 223.331C65.6654 223.063 65.7667 222.804 65.8925 222.556C65.8458 222.831 65.7772 223.102 65.6873 223.366C65.5496 223.857 65.3552 224.537 65.1473 225.291C64.9394 226.044 64.7855 226.733 64.6694 227.232C64.6183 227.507 64.5462 227.778 64.4534 228.042" fill="black"/>
<path opacity="0.3" d="M71.2246 222.099C71.2246 222.14 69.9016 222.032 68.2789 221.859C67.2955 221.781 66.3168 221.653 65.3467 221.476C66.3319 221.505 67.315 221.585 68.2924 221.713C69.9124 221.886 71.23 222.059 71.2246 222.099Z" fill="black"/>
<path d="M59.4665 209.752C59.3774 208.791 58.4054 208.065 57.4388 208.054C56.4722 208.043 55.5704 208.624 54.9791 209.388C54.4229 210.181 54.0217 211.072 53.7965 212.015C53.1458 214.283 52.7894 216.664 53.0675 219.008C53.3456 221.351 54.296 223.655 55.9781 225.31C56.2481 225.58 56.6045 225.85 56.9798 225.769C57.1856 225.709 57.3719 225.597 57.5198 225.442C59.1658 223.935 60.4704 222.094 61.346 220.042C62.2213 217.99 62.6477 215.774 62.5958 213.543C62.5715 212.655 62.4527 211.726 61.9586 210.983C61.4645 210.241 60.317 209.455 59.4773 209.752" fill="#F14F5C"/>
<path opacity="0.3" d="M56.5039 225.634C56.4915 225.58 56.4851 225.525 56.4851 225.469C56.4851 225.345 56.485 225.199 56.4634 224.997C56.4445 224.586 56.4418 223.992 56.4634 223.258C56.485 222.523 56.5282 221.638 56.6173 220.682C56.7064 219.726 56.8496 218.657 57.0494 217.553C57.2492 216.448 57.4949 215.393 57.746 214.467C57.9971 213.54 58.2671 212.693 58.5128 212.001C58.7585 211.31 58.9718 210.749 59.1338 210.381L59.3201 209.947C59.339 209.895 59.3635 209.845 59.393 209.798C59.3846 209.853 59.3689 209.906 59.3471 209.958L59.1851 210.403C59.042 210.786 58.8422 211.345 58.6127 212.042C58.3832 212.739 58.1294 213.576 57.8782 214.512C57.6271 215.449 57.395 216.489 57.1925 217.588C56.99 218.687 56.855 219.748 56.7523 220.706C56.6497 221.665 56.5958 222.54 56.5688 223.271C56.5418 224.003 56.5282 224.597 56.5282 225.007C56.5282 225.199 56.5282 225.356 56.5282 225.48C56.5328 225.535 56.5328 225.59 56.5282 225.645" fill="black"/>
<path opacity="0.3" d="M57.15 217.596C57.0075 217.793 56.8436 217.974 56.6613 218.136C56.3427 218.452 55.8918 218.878 55.3788 219.329C54.8658 219.78 54.3825 220.172 54.0288 220.444C53.8458 220.605 53.6457 220.744 53.4321 220.86C53.5968 220.678 53.7775 220.512 53.9721 220.363L55.2924 219.219L56.6019 218.06C56.7728 217.889 56.9599 217.734 57.1608 217.599" fill="black"/>
<path opacity="0.3" d="M61.0379 220.725C60.8445 220.499 60.6693 220.258 60.5141 220.004L59.3018 218.233L58.0625 216.481C57.8794 216.247 57.7142 216 57.5684 215.741C57.7811 215.949 57.9744 216.176 58.1462 216.419C58.4864 216.851 58.9427 217.458 59.4233 218.149C59.9039 218.84 60.3143 219.478 60.6032 219.947C60.77 220.194 60.9155 220.454 61.0379 220.725Z" fill="black"/>
<path opacity="0.3" d="M59.0011 210.881C59.0227 210.916 57.7321 211.785 56.1175 212.822C54.5029 213.859 53.1772 214.674 53.1475 214.639C53.1178 214.604 54.4165 213.737 56.0311 212.698C57.6457 211.658 58.9687 210.848 59.0011 210.881Z" fill="black"/>
<path opacity="0.3" d="M62.6414 214.809C61.9567 214.246 61.3049 213.644 60.6894 213.006C60.0381 212.403 59.4198 211.766 58.8372 211.097C59.5227 211.66 60.1753 212.263 60.792 212.901C61.4413 213.504 62.0588 214.141 62.6414 214.809Z" fill="black"/>
<path d="M73.9008 164.273L54.1476 170.637C54.1125 170.653 54.075 170.661 54.0366 170.661C53.9986 170.66 53.961 170.652 53.9262 170.636C53.8916 170.62 53.8606 170.597 53.8355 170.569C53.8104 170.54 53.7915 170.506 53.7804 170.47L45.5724 144.947C45.5589 144.912 45.553 144.874 45.5551 144.837C45.557 144.799 45.5667 144.762 45.5837 144.729C45.601 144.695 45.6248 144.666 45.6539 144.642C45.6831 144.618 45.7169 144.6 45.7533 144.59L60.552 139.822L67.3749 143.103L74.0844 163.917C74.1066 163.989 74.0995 164.066 74.0653 164.133C74.031 164.199 73.9718 164.25 73.9008 164.273Z" fill="#DADDDF"/>
<path d="M64.8175 143.943L49.575 148.904L49.8047 149.61L65.0476 144.649L64.8175 143.943Z" fill="white"/>
<path d="M65.5539 146.205L50.311 151.166L50.5411 151.872L65.7837 146.911L65.5539 146.205Z" fill="white"/>
<path d="M66.2868 148.461L51.0439 153.423L51.2737 154.129L66.5166 149.167L66.2868 148.461Z" fill="white"/>
<path d="M67.0229 150.72L51.7803 155.681L52.01 156.387L67.2529 151.426L67.0229 150.72Z" fill="white"/>
<path d="M67.7582 152.979L52.5154 157.94L52.7454 158.646L67.988 153.685L67.7582 152.979Z" fill="white"/>
<path d="M68.4924 155.238L53.2495 160.199L53.4793 160.905L68.7221 155.944L68.4924 155.238Z" fill="white"/>
<path d="M69.2341 157.273L54.0059 162.242L54.2359 162.948L69.4644 157.978L69.2341 157.273Z" fill="white"/>
<path d="M69.9626 159.753L54.7197 164.714L54.9498 165.42L70.1923 160.459L69.9626 159.753Z" fill="white"/>
<path d="M60.551 139.822L67.3739 143.103L62.4194 144.698C62.3843 144.712 62.3468 144.718 62.309 144.716C62.2715 144.714 62.2347 144.704 62.2013 144.687C62.1678 144.67 62.1381 144.646 62.1143 144.617C62.0906 144.588 62.073 144.554 62.063 144.518L60.551 139.822Z" fill="#DADDDF"/>
<path opacity="0.2" d="M60.551 139.822L67.3739 143.103L62.4194 144.698C62.3843 144.712 62.3468 144.718 62.309 144.716C62.2715 144.714 62.2347 144.704 62.2013 144.687C62.1678 144.67 62.1381 144.646 62.1143 144.617C62.0906 144.588 62.073 144.554 62.063 144.518L60.551 139.822Z" fill="black"/>
<path d="M324.757 204.053L305.004 210.43C304.969 210.443 304.931 210.448 304.894 210.446C304.856 210.443 304.821 210.433 304.786 210.416C304.753 210.399 304.723 210.375 304.699 210.346C304.678 210.316 304.659 210.283 304.651 210.246L296.429 184.739C296.416 184.704 296.41 184.667 296.41 184.629C296.413 184.591 296.424 184.555 296.44 184.521C296.456 184.488 296.48 184.458 296.51 184.434C296.54 184.411 296.572 184.393 296.61 184.383L311.409 179.615L318.232 182.89L324.941 203.707C324.952 203.742 324.957 203.778 324.955 203.815C324.952 203.851 324.941 203.887 324.922 203.919C324.906 203.952 324.882 203.98 324.855 204.003C324.825 204.026 324.793 204.043 324.757 204.053Z" fill="#DADDDF"/>
<path d="M315.677 183.745L300.436 188.706L300.665 189.412L315.907 184.451L315.677 183.745Z" fill="white"/>
<path d="M316.209 185.638L300.981 190.607L301.211 191.313L316.441 186.343L316.209 185.638Z" fill="white"/>
<path d="M317.146 188.263L301.905 193.224L302.134 193.93L317.376 188.969L317.146 188.263Z" fill="white"/>
<path d="M317.886 190.521L302.642 195.483L302.871 196.189L318.115 191.228L317.886 190.521Z" fill="white"/>
<path d="M318.618 192.781L303.376 197.742L303.606 198.448L318.847 193.487L318.618 192.781Z" fill="white"/>
<path d="M319.355 195.037L304.11 199.999L304.34 200.705L319.584 195.743L319.355 195.037Z" fill="white"/>
<path d="M320.089 197.298L304.848 202.26L305.077 202.966L320.319 198.004L320.089 197.298Z" fill="white"/>
<path d="M320.821 199.555L305.579 204.516L305.809 205.223L321.053 200.261L320.821 199.555Z" fill="white"/>
<path d="M311.409 179.604L318.232 182.89L313.277 184.488C313.204 184.511 313.129 184.505 313.061 184.47C312.994 184.436 312.942 184.376 312.921 184.305L311.409 179.604Z" fill="#DADDDF"/>
<path opacity="0.2" d="M311.409 179.604L318.232 182.89L313.277 184.488C313.204 184.511 313.129 184.505 313.061 184.47C312.994 184.436 312.942 184.376 312.921 184.305L311.409 179.604Z" fill="black"/>
<path d="M262.446 242.819L262.581 248.543C262.607 249.648 263.523 250.522 264.628 250.496L267.348 250.432" stroke="#FFCB7C" stroke-width="3" stroke-linecap="round"/>
<path d="M258.584 242.91L258.719 248.634C258.745 249.739 257.871 250.655 256.767 250.681L254.047 250.745" stroke="#FFCB7C" stroke-width="3" stroke-linecap="round"/>
<path d="M282.185 242.414L280.63 176.412C280.578 174.204 278.745 172.456 276.537 172.508L232.911 173.536C231.102 173.578 229.555 174.829 229.224 176.608C227.694 184.825 224.476 208.3 233.298 226.548C242.075 244.703 268.579 246.365 278.485 246.33C280.616 246.322 282.236 244.544 282.185 242.414Z" fill="#F14F5C"/>
<ellipse rx="10.9446" ry="10.9447" transform="matrix(-0.999722 0.0235599 0.0235598 0.999722 259.756 192.437)" fill="white"/>
<ellipse rx="10.9447" ry="10.9447" transform="matrix(-0.999722 0.0235599 0.0235598 0.999722 240.018 192.903)" fill="white"/>
<path fill-rule="evenodd" clip-rule="evenodd" d="M260.259 186.137C265.616 188.824 264.733 196.854 258.946 198.082C255.712 198.768 252.194 196.624 251.408 193.488C250.846 191.245 251.159 190.533 252.356 191.33C253.651 192.193 255.512 192.05 256.503 191.011C257.514 189.951 257.554 187.7 256.584 186.383C255.912 185.47 255.931 185.444 257.319 185.411C258.103 185.393 259.426 185.719 260.259 186.137ZM240.521 186.602C245.878 189.289 244.996 197.319 239.208 198.547C235.974 199.233 232.456 197.089 231.67 193.954C231.108 191.71 231.421 190.998 232.618 191.795C233.914 192.658 235.774 192.515 236.765 191.477C237.776 190.416 237.816 188.165 236.846 186.848C236.174 185.935 236.193 185.909 237.581 185.876C238.365 185.858 239.688 186.184 240.521 186.602ZM282.252 203.048C284.053 203.642 285.24 204.531 286.523 206.244C287.339 207.333 295.753 235.167 295.794 236.913C295.806 237.404 295.293 238.354 294.654 239.023C293.652 240.073 292.938 240.323 289.438 240.845C284.441 241.59 281.479 241.604 277.901 240.9C270.243 239.393 265.065 234.24 262.485 225.559C261.259 221.435 260.075 214.916 260.001 211.882C259.906 207.941 260.386 207.594 269.709 204.858C278.076 202.403 279.623 202.179 282.252 203.048Z" fill="#501A2C"/>
<rect width="5.88418" height="5.88418" rx="2" transform="matrix(-0.717906 0.69614 0.696135 0.717911 250.166 201.035)" fill="#FFCB7C"/>
</g>
<defs>
<clipPath id="clip0_2398_3362">
<rect width="360" height="267" fill="white"/>
</clipPath>
</defs>
</svg>
