<svg width="357" height="248" viewBox="0 0 357 248" fill="none" xmlns="http://www.w3.org/2000/svg">
<path d="M319.447 239.479L329.113 99.025C329.383 95.218 328.168 91.465 325.738 88.522L263.341 13.192C260.236 9.46602 255.511 7.46802 250.678 7.87302L68.59 22.939C62.758 23.425 57.736 27.286 55.792 32.821L15.967 146.032C15.157 148.354 14.914 150.838 15.292 153.268L28.765 239.263L319.447 239.479Z" fill="#F4F4F4"/>
<path d="M90.4869 148.408H63.1899V165.364H90.4869V148.408Z" fill="#B2B6BB"/>
<path d="M90.487 148.408H84.682V165.364H90.487V148.408Z" fill="#61656D"/>
<path d="M49.9597 149.812L45.5587 128.104L45.6937 128.077L50.0947 149.785L49.9597 149.812Z" fill="#3F4249"/>
<path d="M51.1904 120.77L50.6123 148.979L50.7473 148.982L51.3254 120.772L51.1904 120.77Z" fill="#3F4249"/>
<path d="M57.6478 125.978L50.9226 134.429L51.0284 134.513L57.7536 126.062L57.6478 125.978Z" fill="#3F4249"/>
<path d="M53.389 155.212L52.714 154.213C52.039 153.214 51.688 152.026 51.688 150.811V148.408H49.096V150.811C49.096 152.026 48.745 153.214 48.07 154.213L47.395 155.212C45.991 157.318 45.559 159.937 46.18 162.394L46.936 165.364H53.848L54.604 162.394C55.225 159.937 54.766 157.318 53.389 155.212Z" fill="#868A91"/>
<path d="M53.389 155.212L52.714 154.213C52.039 153.214 51.688 152.026 51.688 150.811V148.408H50.932V150.595C50.932 151.945 51.337 153.268 52.066 154.402C53.2 156.481 53.2 158.857 52.795 160.801C52.552 161.962 52.093 163.069 51.472 164.068L50.959 164.905C50.77 165.202 50.446 165.391 50.095 165.391H53.875L54.631 162.421C55.225 159.937 54.766 157.318 53.389 155.212Z" fill="#61656D"/>
<path d="M56.2906 134.635L48.2905 141.273L48.3769 141.377L56.3768 134.739L56.2906 134.635Z" fill="#3F4249"/>
<path d="M49.3117 146.572L42.2377 139.876L42.3187 139.795L49.4197 146.464L49.3117 146.572Z" fill="#3F4249"/>
<path d="M53.686 131.047L54.793 126.187C55.198 124.459 57.25 123.73 58.654 124.837C60.031 125.944 59.788 128.131 58.195 128.887L53.686 131.047Z" fill="#F14F5C"/>
<path opacity="0.3" d="M53.686 131.047L54.793 126.187C55.198 124.459 57.25 123.73 58.654 124.837C60.031 125.944 59.788 128.131 58.195 128.887L53.686 131.047Z" fill="white"/>
<path d="M59.5447 126.754C59.5447 127.618 59.0587 128.482 58.1677 128.887L53.6587 131.047L58.6267 124.837C59.2747 125.323 59.5717 126.052 59.5447 126.754Z" fill="#F14F5C"/>
<path d="M51.1207 128.887L47.9347 122.299C46.8007 119.95 48.5017 117.223 51.1207 117.223C53.7127 117.223 55.4407 119.95 54.3067 122.299L51.1207 128.887Z" fill="#F14F5C"/>
<path opacity="0.3" d="M51.1207 128.887L47.9347 122.299C46.8007 119.95 48.5017 117.223 51.1207 117.223C53.7127 117.223 55.4407 119.95 54.3067 122.299L51.1207 128.887Z" fill="white"/>
<path opacity="0.3" d="M51.283 117.25L51.121 128.887L54.307 122.299C55.414 120.004 53.794 117.331 51.283 117.25Z" fill="white"/>
<path d="M47.5839 137.662L42.9399 132.154C41.2929 130.183 42.265 127.159 44.7489 126.538C47.2329 125.917 49.5279 128.104 49.0149 130.615L47.5839 137.662Z" fill="#F14F5C"/>
<path opacity="0.3" d="M49.042 130.615C49.555 128.104 47.26 125.917 44.776 126.538L47.611 137.635L49.042 130.615Z" fill="white"/>
<path d="M46.936 144.223L44.83 138.958C44.074 137.068 41.617 136.636 40.267 138.121C38.89 139.606 39.565 142.009 41.509 142.603L46.936 144.223Z" fill="#F14F5C"/>
<path opacity="0.3" d="M46.936 144.223L44.83 138.958C44.074 137.068 41.617 136.636 40.267 138.121C38.89 139.606 39.565 142.009 41.509 142.603L46.936 144.223Z" fill="white"/>
<path opacity="0.3" d="M40.3478 138.013L46.9358 144.223L44.8298 138.958C44.1008 137.122 41.7248 136.663 40.3478 138.013Z" fill="white"/>
<path d="M50.446 139.606L52.741 134.044C53.551 132.073 56.1701 131.614 57.6011 133.207C59.0321 134.8 58.3031 137.338 56.2241 137.932L50.446 139.606Z" fill="#F14F5C"/>
<path opacity="0.3" d="M50.446 139.606L52.741 134.044C53.551 132.073 56.1701 131.614 57.6011 133.207C59.0321 134.8 58.3031 137.338 56.2241 137.932L50.446 139.606Z" fill="white"/>
<path d="M50.716 146.437L50.662 146.329L61.597 140.335L61.651 140.443L50.716 146.437Z" fill="#3F4249"/>
<path d="M52.4709 145.384L56.4399 139.957C57.8439 138.013 60.8139 138.229 61.9209 140.335C63.0549 142.441 61.57 145.006 59.194 145.114L52.4709 145.384Z" fill="#F14F5C"/>
<path opacity="0.3" d="M52.4709 145.384L56.4399 139.957C57.8439 138.013 60.8139 138.229 61.9209 140.335C63.0549 142.441 61.57 145.006 59.194 145.114L52.4709 145.384Z" fill="white"/>
<path d="M62.029 143.197C61.543 144.25 60.517 145.06 59.194 145.114L52.4709 145.384L61.921 140.335C62.434 141.307 62.407 142.333 62.029 143.197Z" fill="#F14F5C"/>
<path opacity="0.3" d="M52.741 134.044L50.446 139.606L57.601 133.207C56.17 131.641 53.578 132.073 52.741 134.044Z" fill="white"/>
<path d="M91.6213 167.173H109.738C110.251 167.173 110.656 166.768 110.656 166.255C110.656 165.742 110.251 165.337 109.738 165.337H91.6213V167.173Z" fill="#B2B6BB"/>
<path d="M107.389 166.282H89.11V222.577H107.389V166.282Z" fill="#B2B6BB"/>
<path d="M89.677 166.282H33.76V222.577H89.677V166.282Z" fill="#DADDDF"/>
<path d="M86.842 218.284H36.379V174.112L86.842 174.166V218.284ZM36.784 217.879H86.437V174.571H36.784V217.879Z" fill="#B2B6BB"/>
<path d="M31.6809 167.173H91.6479C92.1609 167.173 92.5659 166.768 92.5659 166.255C92.5659 165.742 92.1609 165.337 91.6479 165.337H31.6809C31.1679 165.337 30.7629 165.742 30.7629 166.255C30.7899 166.768 31.1949 167.173 31.6809 167.173Z" fill="#DADDDF"/>
<path d="M86.842 195.928H36.379V196.333H86.842V195.928Z" fill="#B2B6BB"/>
<path d="M59.437 181.213C60.2124 181.213 60.841 180.584 60.841 179.809C60.841 179.034 60.2124 178.405 59.437 178.405C58.6618 178.405 58.033 179.034 58.033 179.809C58.033 180.584 58.6618 181.213 59.437 181.213Z" fill="#B2B6BB"/>
<path opacity="0.15" d="M59.95 179.809C59.95 179.188 59.545 178.675 59.005 178.486C59.14 178.432 59.302 178.405 59.464 178.405C60.247 178.405 60.868 179.026 60.868 179.809C60.868 180.592 60.247 181.213 59.464 181.213C59.302 181.213 59.167 181.186 59.005 181.132C59.545 180.943 59.95 180.43 59.95 179.809Z" fill="black"/>
<path d="M59.437 202.948C60.2124 202.948 60.841 202.319 60.841 201.544C60.841 200.769 60.2124 200.14 59.437 200.14C58.6618 200.14 58.033 200.769 58.033 201.544C58.033 202.319 58.6618 202.948 59.437 202.948Z" fill="#B2B6BB"/>
<path opacity="0.15" d="M59.95 201.544C59.95 200.923 59.545 200.41 59.005 200.221C59.14 200.167 59.302 200.14 59.464 200.14C60.247 200.14 60.868 200.761 60.868 201.544C60.868 202.327 60.247 202.948 59.464 202.948C59.302 202.948 59.167 202.921 59.005 202.867C59.545 202.678 59.95 202.165 59.95 201.544Z" fill="black"/>
<path d="M92.566 169.063L89.677 167.173H33.76V168.037L92.566 169.063Z" fill="#B2B6BB"/>
<path d="M103.798 222.577L105.202 238.156C105.31 238.723 104.878 239.263 104.311 239.263C103.933 239.263 103.582 239.02 103.447 238.642L99.37 222.577H103.798Z" fill="#DADDDF"/>
<path d="M103.285 231.649L101.584 231.244L99.3972 222.604H103.825L105.229 238.183C105.31 238.615 105.067 239.047 104.689 239.209L103.285 231.649Z" fill="#B2B6BB"/>
<path d="M87.8953 222.577L89.2993 238.156C89.4073 238.723 88.9753 239.263 88.4083 239.263C88.0303 239.263 87.6793 239.02 87.5443 238.642L83.4673 222.577H87.8953Z" fill="#DADDDF"/>
<path d="M86.4101 224.305L83.8721 223.819L83.4401 222.577H87.868L89.272 238.156C89.353 238.588 89.11 239.02 88.732 239.182L86.4101 224.305Z" fill="#B2B6BB"/>
<path d="M52.849 222.577L51.445 238.156C51.337 238.723 51.769 239.263 52.336 239.263C52.714 239.263 53.065 239.02 53.2 238.642L57.277 222.577H52.849Z" fill="#DADDDF"/>
<path d="M53.632 230.866L52.12 230.488L52.849 222.577H57.277L53.2 238.642C53.065 239.02 52.714 239.263 52.336 239.263C52.309 239.263 52.309 239.263 52.282 239.263L53.632 230.866Z" fill="#B2B6BB"/>
<path d="M36.514 222.577L35.11 238.156C35.002 238.723 35.434 239.263 36.001 239.263C36.379 239.263 36.73 239.02 36.865 238.642L40.942 222.577H36.514Z" fill="#DADDDF"/>
<path d="M38.2423 223.927L36.2983 223.576L36.5143 222.577H40.9423L36.8653 238.642C36.7303 239.02 36.3793 239.263 36.0013 239.263C35.9743 239.263 35.9743 239.263 35.9473 239.263L38.2423 223.927Z" fill="#B2B6BB"/>
<path d="M75.0158 223.144C75.3398 224.332 75.3938 224.764 75.3668 225.925L75.3938 233.755C75.3398 235.105 74.9618 236.455 74.2868 237.643L74.1248 237.913C73.7198 238.615 72.9908 239.047 72.1808 239.047H69.9398C68.9138 239.047 68.0228 238.345 67.7528 237.346C67.4558 236.185 67.4288 234.97 67.6448 233.809L69.5348 225.439C69.6698 224.737 69.8588 223.927 70.2098 223.171L75.0158 223.144Z" fill="#F14F5C"/>
<path d="M105.364 204.757L105.823 219.364C105.823 220.741 106.174 222.199 106.714 222.928L113.248 234.295L111.736 236.374L105.823 233.431L100.558 223.927C100.585 222.307 100.396 221.335 100.126 219.148L97.507 203.029L105.364 204.757Z" fill="#FC9D9D"/>
<path opacity="0.15" d="M105.796 224.386C105.202 223.495 104.419 221.416 104.257 220.444L103.555 215.233C103.501 214.828 103.204 214.531 102.799 214.477L99.2077 213.991L99.1537 213.208H105.634L105.823 219.418C105.85 220.417 106.039 222.01 106.714 222.982L113.248 234.349L112.33 235.888L105.796 224.386Z" fill="black"/>
<path d="M116.326 236.212L113.221 234.322C110.98 234.7 108.712 233.836 107.254 232.081L100.531 223.927C99.316 226.519 98.884 229.408 99.289 232.27L100.261 239.02H101.044L101.26 232.081C101.287 231.568 101.908 231.352 102.232 231.757L106.336 236.779C107.497 238.21 109.252 239.047 111.088 239.047H117.487C118 239.047 118.324 238.534 118.135 238.075C117.784 237.238 117.136 236.563 116.326 236.212Z" fill="#F14F5C"/>
<path d="M75.3127 219.607C74.9887 222.415 74.8267 225.25 74.8807 228.085L74.9347 231.46C74.8807 232.945 73.6657 234.133 72.1807 234.133H71.7217C70.0477 234.133 68.7517 232.648 68.9947 231.001L69.7777 227.005C70.1827 224.98 70.3177 222.901 70.2097 220.822L69.4537 207.187L76.5007 207.295L75.3127 219.607Z" fill="#FC9D9D"/>
<path d="M97.453 110.068L102.367 121.543L102.934 127.807C103.636 135.718 104.095 143.629 104.311 151.567L105.958 213.181H98.857L85.654 126.862C85.573 126.268 85.06 125.863 84.466 125.863C83.845 125.863 83.332 126.349 83.278 126.97L76.42 213.181L69.427 213.127L66.349 149.353C65.782 137.581 66.889 125.782 69.643 114.334L70.696 110.014L97.453 110.068Z" fill="#3F4249"/>
<path opacity="0.15" d="M75.9067 213.181C75.9067 213.181 75.0697 221.929 74.9887 223.09V223.117C74.8807 224.764 74.8537 226.411 74.8807 228.058L74.9347 231.433C74.8807 232.864 73.7467 234.025 72.3157 234.079C73.6117 233.08 73.5037 231.46 73.5307 230.245L73.7467 215.422C73.7467 214.936 73.4227 214.531 72.9367 214.423L69.8047 213.856L69.7777 213.154L75.9067 213.181Z" fill="black"/>
<path opacity="0.2" d="M105.931 213.181H103.096L98.587 125.863C92.62 125.863 90.325 121.678 90.271 118.303C90.217 115.522 90.784 112.768 90.784 110.068L70.642 110.014C70.642 110.014 70.642 110.014 70.642 109.987L90.784 110.041L97.345 110.068H97.426L102.34 121.543L102.907 127.807C103.609 135.718 104.068 143.629 104.284 151.567L105.931 213.181Z" fill="black"/>
<path d="M79.0658 112.498L90.6487 112.525C90.9727 85.903 91.9447 71.566 93.4027 65.599L91.7017 65.113L78.7417 65.005L76.4738 65.491C78.9848 79.099 79.1198 105.802 79.0658 112.498Z" fill="white"/>
<path opacity="0.2" d="M76.96 66.436C79.2819 80.341 79.1199 105.964 79.0659 112.498H81.4689C82.6029 95.002 81.1989 79.45 76.96 66.436Z" fill="black"/>
<path opacity="0.2" d="M70.7498 110.689C70.5608 111.661 70.0478 112.741 69.3998 113.875C68.2658 117.574 67.3208 121.327 66.6188 125.134L73.2068 124.81C77.2838 124.81 80.7128 121.678 81.0638 117.601C81.2798 115.036 81.3068 114.982 81.4418 112.471C81.4688 112.498 70.8038 110.473 70.7498 110.689Z" fill="black"/>
<path d="M97.7497 112.525H71.2627V114.928H97.7497V112.525Z" fill="black"/>
<path d="M84.574 40.921C87.0494 40.921 89.056 38.9144 89.056 36.439C89.056 33.9637 87.0494 31.957 84.574 31.957C82.0987 31.957 80.092 33.9637 80.092 36.439C80.092 38.9144 82.0987 40.921 84.574 40.921Z" fill="#21252B"/>
<path d="M80.2271 37.573C80.551 38.815 81.415 39.922 82.684 40.516C84.925 41.569 87.598 40.597 88.651 38.329C88.732 38.194 88.786 38.032 88.84 37.87C87.085 36.79 83.278 35.818 80.2271 37.573Z" fill="#F14F5C"/>
<path d="M88.462 57.0671C88.246 61.9001 87.382 64.5191 90.082 64.6541C94.375 64.8431 98.02 61.0901 98.236 56.2571C98.452 51.4241 95.131 47.3741 90.838 47.1851C89.677 51.3161 88.651 52.2611 88.462 57.0671Z" fill="#21252B"/>
<path d="M87.1462 57.7507C87.5226 53.4574 84.251 49.6636 79.8392 49.277C75.4272 48.8901 71.5457 52.0566 71.169 56.3499C70.7926 60.6429 74.0642 64.4367 78.476 64.8236C82.8881 65.2105 86.7699 62.0437 87.1462 57.7507Z" fill="#21252B"/>
<path d="M77.797 65.221L78.58 65.869C82.36 69.055 87.895 69.028 91.648 65.815L92.296 65.248L90.001 64.627C89.596 64.519 89.299 64.168 89.245 63.763L88.894 61.09L88.624 59.119L87.679 51.991L87.652 51.64L81.199 53.233L80.254 63.898C80.227 64.357 79.876 64.735 79.444 64.843L77.797 65.221Z" fill="#FC9D9D"/>
<path d="M84.79 60.604C81.874 60.577 79.498 58.309 79.336 55.42L78.661 44.08L91.162 44.161L90.325 55.474C90.136 58.39 87.706 60.631 84.79 60.604Z" fill="#FC9D9D"/>
<path d="M84.79 60.604C81.874 60.577 79.498 58.309 79.336 55.42L78.661 44.08L91.162 44.161L90.325 55.474C90.136 58.39 87.706 60.631 84.79 60.604Z" fill="#FC9D9D"/>
<path d="M82.414 51.9909C82.7718 51.9909 83.062 51.7007 83.062 51.3429C83.062 50.9852 82.7718 50.6949 82.414 50.6949C82.056 50.6949 81.766 50.9852 81.766 51.3429C81.766 51.7007 82.056 51.9909 82.414 51.9909Z" fill="#21252B"/>
<path d="M82.6841 51.343C82.7586 51.343 82.8191 51.2825 82.8191 51.208C82.8191 51.1335 82.7586 51.073 82.6841 51.073C82.6095 51.073 82.5491 51.1335 82.5491 51.208C82.5491 51.2825 82.6095 51.343 82.6841 51.343Z" fill="white"/>
<path d="M87.4631 51.9909C87.8208 51.9909 88.1111 51.7007 88.1111 51.3429C88.1111 50.9852 87.8208 50.6949 87.4631 50.6949C87.1053 50.6949 86.8151 50.9852 86.8151 51.3429C86.8151 51.7007 87.1053 51.9909 87.4631 51.9909Z" fill="#21252B"/>
<path d="M87.76 51.316C87.8345 51.316 87.895 51.2555 87.895 51.181C87.895 51.1065 87.8345 51.046 87.76 51.046C87.6855 51.046 87.625 51.1065 87.625 51.181C87.625 51.2555 87.6855 51.316 87.76 51.316Z" fill="white"/>
<g opacity="0.3">
<path opacity="0.3" d="M85.033 55.123H84.466C84.358 55.123 84.277 55.042 84.277 54.934C84.277 54.826 84.358 54.745 84.466 54.745H85.033C85.249 54.745 85.438 54.583 85.438 54.34C85.438 54.124 85.276 53.935 85.033 53.935C84.925 53.935 84.844 53.854 84.844 53.746C84.844 53.638 84.925 53.557 85.033 53.557C85.465 53.557 85.816 53.908 85.816 54.34C85.816 54.772 85.465 55.123 85.033 55.123Z" fill="black"/>
</g>
<path d="M74.422 50.749C75.394 50.074 75.043 48.805 75.043 48.805C74.881 48.265 74.746 47.671 74.746 47.05C74.692 45.619 75.367 44.647 75.799 44.188C76.015 43.945 76.15 43.621 76.204 43.27C76.798 37.141 85.816 35.737 90.271 39.436C92.998 41.704 93.619 44.215 93.376 46.591C93.376 46.591 93.214 47.644 94.186 48.157L92.998 48.643C92.539 50.398 91.702 51.208 91.243 52.423C90.271 51.775 90.514 48.994 90.514 48.994C87.841 48.697 87.49 46.321 87.49 46.321C85.033 51.478 78.796 50.344 78.796 50.344L78.742 51.667C78.742 51.667 76.231 51.154 75.718 50.236L74.719 50.938L74.422 50.749Z" fill="#21252B"/>
<path d="M90.4867 53.719C90.4867 53.719 92.5927 53.53 92.7007 51.397C92.8087 49.264 90.1897 49.318 90.1627 51.451L90.2707 53.773L90.4867 53.719Z" fill="#FC9D9D"/>
<path opacity="0.3" d="M90.919 50.965C91 50.695 91.162 50.533 91.324 50.452C91.513 50.371 91.702 50.398 91.945 50.506C92.026 50.533 92.053 50.641 92.026 50.722C91.999 50.776 91.972 50.803 91.945 50.803C91.918 50.83 91.864 50.83 91.837 50.803C91.675 50.722 91.567 50.695 91.459 50.749C91.378 50.803 91.297 50.884 91.216 51.073C91.162 51.235 91.135 51.478 91.135 51.64C91.135 51.721 91.054 51.802 90.973 51.802C90.892 51.802 90.811 51.721 90.811 51.613C90.811 51.424 90.838 51.154 90.919 50.965Z" fill="black"/>
<path d="M91.0407 53.3173C91.2197 53.3135 91.3604 53.1169 91.3553 52.8783C91.3502 52.6399 91.2008 52.4495 91.0221 52.4536C90.8431 52.4573 90.7021 52.6539 90.7075 52.8923C90.7127 53.131 90.8617 53.3211 91.0407 53.3173Z" fill="#F14F5C"/>
<path opacity="0.15" d="M90.9188 53.233C91.1078 53.233 91.2698 53.017 91.2428 52.774C91.2428 52.693 91.2158 52.612 91.1888 52.531C91.2698 52.612 91.3238 52.72 91.3238 52.882C91.3238 53.125 91.1888 53.314 90.9998 53.314C90.9188 53.314 90.8648 53.287 90.8108 53.233C90.8648 53.233 90.8918 53.233 90.9188 53.233Z" fill="black"/>
<path d="M79.147 53.719C79.147 53.719 77.0409 53.53 76.9329 51.397C76.8249 49.264 79.444 49.318 79.471 51.451L79.363 53.773L79.147 53.719Z" fill="#FC9D9D"/>
<path opacity="0.3" d="M78.7417 50.965C78.6337 50.695 78.4987 50.533 78.3097 50.452C78.1207 50.371 77.9047 50.398 77.6617 50.506C77.5807 50.533 77.5537 50.641 77.5807 50.722C77.6077 50.776 77.6347 50.803 77.6617 50.803C77.6887 50.83 77.7427 50.83 77.7697 50.803C77.9317 50.722 78.0667 50.695 78.1477 50.749C78.2557 50.803 78.3367 50.884 78.3907 51.073C78.4447 51.235 78.4717 51.478 78.4987 51.64C78.4987 51.721 78.5797 51.802 78.6607 51.802C78.7417 51.802 78.8227 51.721 78.8227 51.613C78.8767 51.424 78.8227 51.154 78.7417 50.965Z" fill="black"/>
<path d="M78.9307 52.8734C78.9361 52.635 78.7951 52.4384 78.6161 52.4344C78.4374 52.4306 78.2881 52.621 78.283 52.8594C78.2778 53.0981 78.4185 53.2943 78.5975 53.2984C78.7765 53.3022 78.9256 53.1121 78.9307 52.8734Z" fill="#F14F5C"/>
<path opacity="0.15" d="M78.715 53.233C78.526 53.233 78.3639 53.017 78.3909 52.774C78.3909 52.693 78.4179 52.612 78.445 52.531C78.3639 52.612 78.3099 52.72 78.3099 52.882C78.3099 53.125 78.445 53.314 78.634 53.314C78.715 53.314 78.769 53.287 78.823 53.233C78.742 53.233 78.742 53.233 78.715 53.233Z" fill="black"/>
<path d="M86.572 56.176C86.653 56.176 86.707 56.257 86.68 56.338C86.356 56.959 85.735 57.3911 85.006 57.3911C84.277 57.3911 83.656 56.959 83.332 56.338C83.305 56.257 83.332 56.176 83.44 56.176H86.572Z" fill="white"/>
<path d="M87.679 49.4259C86.869 49.5069 86.167 49.939 85.735 50.587C85.006 50.344 84.385 50.506 84.115 50.614C83.602 49.804 82.684 49.291 81.658 49.399C80.227 49.534 79.147 50.803 79.282 52.234C79.417 53.665 80.686 54.745 82.117 54.61C83.548 54.475 84.628 53.206 84.493 51.775C84.466 51.478 84.385 51.1809 84.277 50.9379C84.52 50.8569 85.006 50.7219 85.573 50.9109C85.357 51.3159 85.276 51.8019 85.303 52.288C85.438 53.719 86.707 54.799 88.138 54.664C89.569 54.529 90.649 53.26 90.514 51.829C90.406 50.344 89.11 49.2909 87.679 49.4259ZM82.117 54.259C80.875 54.367 79.741 53.449 79.633 52.18C79.525 50.938 80.443 49.8039 81.712 49.6959C82.954 49.5879 84.088 50.5059 84.196 51.775C84.304 53.044 83.359 54.151 82.117 54.259ZM88.138 54.286C86.896 54.394 85.762 53.476 85.654 52.207C85.546 50.965 86.464 49.8309 87.733 49.7229C88.975 49.6149 90.109 50.533 90.217 51.802C90.298 53.071 89.38 54.178 88.138 54.286Z" fill="white"/>
<path opacity="0.15" d="M82.522 60.577C83.278 60.901 84.007 61.009 84.682 61.009C84.952 61.009 85.195 60.982 85.411 60.955C85.843 61.117 86.41 61.279 86.95 61.279C87.625 61.279 88.273 61.252 88.84 61.063L88.57 59.092C88.165 59.47 87.679 59.794 87.166 60.037C86.761 60.226 85.87 60.523 84.817 60.55C84.79 60.55 84.763 60.55 84.736 60.55C84.709 60.55 84.682 60.55 84.655 60.55C84.034 60.55 83.332 60.442 82.657 60.145C82.549 60.091 82.441 60.145 82.387 60.253C82.387 60.415 82.441 60.523 82.522 60.577Z" fill="black"/>
<path d="M62.0828 74.455L67.8338 80.827L69.6698 96.433C70.2098 101.131 70.0478 105.91 69.1568 110.554C68.4548 114.226 67.5098 118.978 66.4838 123.973C66.4298 124.297 66.6728 124.594 66.9968 124.594H71.1548C75.5018 124.594 79.1468 121.273 79.5248 116.926C81.1718 97.594 80.0918 79.477 76.7438 65.41L67.5098 67.219C64.1348 68.056 62.2448 71.107 62.0828 74.455Z" fill="#F14F5C"/>
<path d="M93.0517 65.491C91.7017 70.972 89.7577 93.139 90.1357 117.655C90.1897 121.516 93.3488 124.621 97.2098 124.648H101.773C102.448 124.648 102.988 124.054 102.907 123.379L101.287 109.636C100.612 103.804 100.531 97.918 101.098 92.086L102.556 76.858L103.96 74.617C103.987 71.134 102.34 68.218 99.0187 67.165L93.0517 65.491Z" fill="#F14F5C"/>
<path d="M85.6537 92.9771L87.1387 90.3041C87.3007 90.0071 87.4087 89.6831 87.4087 89.3321L87.4897 87.5771C87.4897 87.4961 87.5707 87.4151 87.6517 87.4421H87.7597C88.4077 87.4961 88.9477 87.9821 89.0827 88.6301L89.1097 88.7111C89.2717 89.5481 89.3257 90.3851 89.3257 91.2491V91.5461L94.0237 92.3021C94.3477 92.3561 94.5637 92.6261 94.5367 92.9501V92.9771C94.5097 93.3551 94.1587 93.6251 93.7807 93.5441C93.5917 93.5171 93.4567 93.4901 93.4567 93.4901L93.7267 93.5441C94.1587 93.6251 94.4557 94.003 94.4017 94.435C94.3747 94.894 93.9697 95.218 93.5107 95.218H93.2947H93.5107C93.9697 95.245 94.2937 95.623 94.2667 96.082C94.2397 96.46 93.9427 96.757 93.5647 96.811L93.1867 96.838L93.4567 96.811C93.8347 96.784 94.1857 97.108 94.1587 97.486C94.1317 97.756 93.9427 97.972 93.6997 98.053C92.1607 98.458 90.5407 98.593 88.9477 98.431L85.9237 98.161L75.5557 99.781L75.5287 93.9221L85.6537 92.9771Z" fill="#FC9D9D"/>
<path d="M62.2717 72.997L65.3497 71.89C67.5637 75.589 68.9137 78.532 68.7787 82.825L69.4537 84.634L68.0227 94.3L78.5527 93.571L78.2017 99.43L61.4887 102.67C59.3017 103.102 57.3577 101.185 57.7357 98.998L62.2717 72.997Z" fill="#F14F5C"/>
<path opacity="0.15" d="M61.138 101.266C59.653 101.563 58.303 100.78 57.682 99.565C57.682 101.509 59.464 103.048 61.462 102.67L78.175 99.43L78.229 98.647L61.138 101.266Z" fill="black"/>
<path opacity="0.15" d="M68.455 91.3569L66.592 93.8139C66.403 94.0839 66.592 94.4619 66.943 94.4349L68.023 94.3269L68.455 91.3569Z" fill="black"/>
<path opacity="0.15" d="M93.9967 92.2749L92.8087 92.0859C92.8087 92.1399 92.8357 92.1669 92.8627 92.2209L92.9977 92.4639C93.1057 92.6529 93.0787 92.8959 92.9707 93.0579C92.8627 93.2199 92.8357 93.4359 92.9167 93.5979L93.0517 93.8949C93.1327 94.0839 93.1057 94.2729 92.9977 94.435L92.8897 94.597C92.7547 94.786 92.7547 95.056 92.8897 95.245L92.9707 95.353C93.1057 95.542 93.1057 95.812 92.9707 96.001L92.9167 96.109C92.7817 96.298 92.7817 96.541 92.8897 96.73L93.0247 96.946C93.1327 97.135 93.1327 97.351 93.0247 97.54L92.6737 98.215C93.0247 98.161 93.3757 98.08 93.7267 97.999C93.9967 97.945 94.1857 97.702 94.1857 97.432C94.2127 97.027 93.8887 96.703 93.4837 96.757H93.5917C93.9697 96.73 94.2667 96.406 94.2937 96.028C94.3207 95.596 93.9967 95.191 93.5377 95.164C93.9967 95.191 94.3747 94.8399 94.4287 94.3809C94.4557 93.9489 94.1587 93.5709 93.7537 93.4899C93.7807 93.4899 93.7807 93.4899 93.8077 93.4899C94.1857 93.5709 94.5367 93.3009 94.5637 92.9229V92.8959C94.5367 92.6259 94.3207 92.3289 93.9967 92.2749ZM93.4297 93.4629C93.4297 93.4629 93.4567 93.4629 93.4837 93.4629H93.4297Z" fill="black"/>
<path opacity="0.15" d="M85.924 98.134L85.735 98.107C85.006 98.026 84.25 98.026 83.521 98.107L78.256 98.647L78.202 99.349" fill="black"/>
<path opacity="0.2" d="M79.849 93.085L69.3459 93.8409L69.4 94.2459L79.876 93.49C79.984 93.49 80.065 93.382 80.065 93.274C80.065 93.166 79.957 93.085 79.849 93.085Z" fill="black"/>
<path opacity="0.2" d="M84.4657 125.863C84.1417 125.863 83.8717 125.971 83.6557 126.187C83.4397 126.376 83.3047 126.646 83.2777 126.97L76.3927 213.208L73.9087 213.181L78.1207 131.911C78.3097 128.509 81.0907 125.863 84.4657 125.863Z" fill="black"/>
<path opacity="0.2" d="M102.907 123.352L101.287 109.609C100.612 103.777 100.531 97.891 101.098 92.059L101.422 88.549L99.613 86.011C99.316 85.606 98.6679 85.741 98.5869 86.254L97.723 91.978C96.805 98.026 96.4809 104.128 96.6969 110.23L98.263 124.648H101.773C102.448 124.621 102.988 124.027 102.907 123.352Z" fill="black"/>
<path d="M102.934 70.2159L110.251 87.091L121.321 76.372L124.318 80.827L110.332 98.323C108.982 100.024 106.309 99.754 105.337 97.81L98.8027 84.85" fill="#F14F5C"/>
<path opacity="0.15" d="M123.724 81.529L110.602 97.918C109.333 99.7 107.578 99.781 106.147 98.782C107.146 98.755 108.118 98.458 108.874 97.567L123.616 79.99L123.724 81.529Z" fill="black"/>
<path opacity="0.15" d="M109.333 88.198L110.251 87.091L105.364 75.859L108.172 87.901C108.28 88.468 108.982 88.63 109.333 88.198Z" fill="black"/>
<path d="M292.798 149.083H277.705V180.943H292.798V149.083Z" fill="#DADDDF"/>
<path d="M286.831 149.083H293.284V152.161H292.798V180.943H287.803V152.161H286.831V149.083Z" fill="#B2B6BB"/>
<path d="M286.696 149.083H277.705V152.161H286.696V149.083Z" fill="#DADDDF"/>
<path d="M289.585 152.161H277.705V152.566H289.585V152.161Z" fill="#B2B6BB"/>
<path d="M298.657 125.215H296.065H236.017V127.807H296.065V180.943H236.017V183.535H296.065V239.263H298.657V125.215Z" fill="white"/>
<path d="M310.186 125.215H298.657V239.263H310.186V125.215Z" fill="#DADDDF"/>
<path d="M327.088 239.911H22.798C22.609 239.911 22.474 239.776 22.474 239.587C22.474 239.398 22.609 239.263 22.798 239.263H327.088C327.277 239.263 327.412 239.398 327.412 239.587C327.412 239.749 327.277 239.911 327.088 239.911Z" fill="#B2B6BB"/>
<path d="M278.056 239.452H120.646C118.513 239.452 116.812 237.724 116.812 235.618V78.208C116.812 76.075 118.54 74.374 120.646 74.374H278.056C280.189 74.374 281.89 76.102 281.89 78.208V235.618C281.89 237.751 280.189 239.452 278.056 239.452Z" fill="#F14F5C"/>
<path opacity="0.5" d="M278.056 239.452H120.646C118.513 239.452 116.812 237.724 116.812 235.618V78.208C116.812 76.075 118.54 74.374 120.646 74.374H278.056C280.189 74.374 281.89 76.102 281.89 78.208V235.618C281.89 237.751 280.189 239.452 278.056 239.452Z" fill="white"/>
<path d="M275.41 239.452H118C115.867 239.452 114.166 237.724 114.166 235.618V78.208C114.166 76.075 115.894 74.374 118 74.374H275.41C277.543 74.374 279.244 76.102 279.244 78.208V235.618C279.244 237.751 277.543 239.452 275.41 239.452Z" fill="#F14F5C"/>
<path opacity="0.7" d="M275.41 239.452H118C115.867 239.452 114.166 237.724 114.166 235.618V78.208C114.166 76.075 115.894 74.374 118 74.374H275.41C277.543 74.374 279.244 76.102 279.244 78.208V235.618C279.244 237.751 277.543 239.452 275.41 239.452Z" fill="white"/>
<path d="M199.243 37.006C199.243 29.797 204.697 23.857 211.717 23.074V22.993H213.256C221.005 22.993 227.269 29.257 227.269 37.006C227.269 44.755 221.005 51.019 213.256 51.019H211.717V50.938C204.697 50.155 199.243 44.215 199.243 37.006Z" fill="#B2B6BB"/>
<path d="M211.717 51.019C219.456 51.019 225.73 44.745 225.73 37.006C225.73 29.2667 219.456 22.993 211.717 22.993C203.978 22.993 197.704 29.2667 197.704 37.006C197.704 44.745 203.978 51.019 211.717 51.019Z" fill="#868A91"/>
<path d="M211.717 49.48C218.606 49.48 224.191 43.8953 224.191 37.006C224.191 30.1169 218.606 24.532 211.717 24.532C204.828 24.532 199.243 30.1169 199.243 37.006C199.243 43.8953 204.828 49.48 211.717 49.48Z" fill="white"/>
<path d="M211.717 49.48C218.606 49.48 224.191 43.8953 224.191 37.006C224.191 30.1169 218.606 24.532 211.717 24.532C204.828 24.532 199.243 30.1169 199.243 37.006C199.243 43.8953 204.828 49.48 211.717 49.48Z" fill="#868A91"/>
<path opacity="0.9" d="M211.717 49.48C218.606 49.48 224.191 43.8953 224.191 37.006C224.191 30.1169 218.606 24.532 211.717 24.532C204.828 24.532 199.243 30.1169 199.243 37.006C199.243 43.8953 204.828 49.48 211.717 49.48Z" fill="white"/>
<path d="M211.717 24.532C211.933 24.532 212.176 24.532 212.392 24.559C205.804 24.91 200.593 30.337 200.593 37.006C200.593 43.675 205.831 49.102 212.392 49.453C212.176 49.453 211.96 49.48 211.717 49.48C204.832 49.48 199.243 43.891 199.243 37.006C199.243 30.121 204.832 24.532 211.717 24.532Z" fill="#B2B6BB"/>
<path d="M211.609 37.978L215.74 29.743C215.902 29.419 215.767 29.041 215.443 28.879C215.119 28.717 214.741 28.852 214.579 29.176L211.015 36.25L206.263 33.928C205.939 33.766 205.561 33.901 205.399 34.225C205.237 34.549 205.372 34.927 205.696 35.089L211.609 37.978Z" fill="#F14F5C"/>
<path opacity="0.5" d="M201.025 43.432C199.891 41.542 199.243 39.355 199.243 37.006C199.243 30.121 204.832 24.532 211.717 24.532C212.068 24.532 212.392 24.559 212.743 24.586L201.025 43.432Z" fill="white"/>
<path opacity="0.5" d="M214.606 24.883C215.2 25.018 215.794 25.207 216.361 25.45L203.455 46.375C202.942 45.943 202.483 45.43 202.051 44.917L214.606 24.883Z" fill="white"/>
<path d="M190.252 149.056H137.143C136.009 149.056 135.118 148.138 135.118 147.031V93.922C135.118 92.788 136.036 91.897 137.143 91.897H190.252C191.386 91.897 192.277 92.815 192.277 93.922V147.031C192.304 148.165 191.386 149.056 190.252 149.056Z" fill="#F14F5C"/>
<path opacity="0.5" d="M190.252 149.056H137.143C136.009 149.056 135.118 148.138 135.118 147.031V93.922C135.118 92.788 136.036 91.897 137.143 91.897H190.252C191.386 91.897 192.277 92.815 192.277 93.922V147.031C192.304 148.165 191.386 149.056 190.252 149.056Z" fill="white"/>
<path d="M187.606 149.056H134.524C133.39 149.056 132.499 148.138 132.499 147.031V93.922C132.499 92.788 133.417 91.897 134.524 91.897H187.633C188.767 91.897 189.658 92.815 189.658 93.922V147.031C189.658 148.165 188.74 149.056 187.606 149.056Z" fill="white"/>
<path d="M173.566 130.993H148.564C147.673 130.993 146.971 130.264 146.971 129.4C146.971 128.509 147.7 127.807 148.564 127.807H173.566C174.457 127.807 175.159 128.536 175.159 129.4C175.186 130.291 174.457 130.993 173.566 130.993Z" fill="#61656D"/>
<path d="M180.073 137.23H142.057C141.598 137.23 141.22 136.852 141.22 136.393C141.22 135.934 141.598 135.556 142.057 135.556H180.073C180.532 135.556 180.91 135.934 180.91 136.393C180.937 136.852 180.559 137.23 180.073 137.23Z" fill="#B2B6BB"/>
<path d="M172.405 142.414H149.752C149.293 142.414 148.915 142.036 148.915 141.577C148.915 141.118 149.293 140.74 149.752 140.74H172.405C172.864 140.74 173.242 141.118 173.242 141.577C173.242 142.036 172.864 142.414 172.405 142.414Z" fill="#B2B6BB"/>
<path d="M163.225 98.5391H161.065V98.7551C156.043 99.7541 152.236 104.209 152.236 109.528C152.236 114.847 156.016 119.302 161.065 120.301V120.517H163.225C169.3 120.517 174.214 115.603 174.214 109.528C174.214 103.453 169.3 98.5391 163.225 98.5391Z" fill="#F14F5C"/>
<path opacity="0.2" d="M163.225 98.5391H161.065V98.7551C156.043 99.7541 152.236 104.209 152.236 109.528C152.236 114.847 156.016 119.302 161.065 120.301V120.517H163.225C169.3 120.517 174.214 115.603 174.214 109.528C174.214 103.453 169.3 98.5391 163.225 98.5391Z" fill="black"/>
<path d="M161.065 120.49C167.134 120.49 172.054 115.57 172.054 109.501C172.054 103.432 167.134 98.512 161.065 98.512C154.996 98.512 150.076 103.432 150.076 109.501C150.076 115.57 154.996 120.49 161.065 120.49Z" fill="#F14F5C"/>
<path d="M159.04 114.091L155.341 110.392C155.152 110.203 155.152 109.879 155.341 109.663L156.313 108.691C156.502 108.502 156.826 108.502 157.042 108.691L159.418 111.067L165.142 105.316C165.331 105.127 165.655 105.127 165.871 105.316L166.843 106.288C167.032 106.477 167.032 106.801 166.843 107.017L159.769 114.091C159.553 114.307 159.229 114.307 159.04 114.091Z" fill="white"/>
<path d="M261.532 149.056H208.423C207.289 149.056 206.398 148.138 206.398 147.031V93.922C206.398 92.788 207.316 91.897 208.423 91.897H261.532C262.666 91.897 263.557 92.815 263.557 93.922V147.031C263.584 148.165 262.666 149.056 261.532 149.056Z" fill="#F14F5C"/>
<path opacity="0.5" d="M261.532 149.056H208.423C207.289 149.056 206.398 148.138 206.398 147.031V93.922C206.398 92.788 207.316 91.897 208.423 91.897H261.532C262.666 91.897 263.557 92.815 263.557 93.922V147.031C263.584 148.165 262.666 149.056 261.532 149.056Z" fill="white"/>
<path d="M258.913 149.056H205.804C204.67 149.056 203.779 148.138 203.779 147.031V93.922C203.779 92.788 204.697 91.897 205.804 91.897H258.913C260.047 91.897 260.938 92.815 260.938 93.922V147.031C260.938 148.165 260.02 149.056 258.913 149.056Z" fill="white"/>
<path d="M244.846 130.993H219.844C218.953 130.993 218.251 130.264 218.251 129.4C218.251 128.509 218.98 127.807 219.844 127.807H244.846C245.737 127.807 246.439 128.536 246.439 129.4C246.466 130.291 245.737 130.993 244.846 130.993Z" fill="#61656D"/>
<path d="M251.353 137.23H213.337C212.878 137.23 212.5 136.852 212.5 136.393C212.5 135.934 212.878 135.556 213.337 135.556H251.353C251.812 135.556 252.19 135.934 252.19 136.393C252.217 136.852 251.839 137.23 251.353 137.23Z" fill="#B2B6BB"/>
<path d="M243.685 142.414H221.032C220.573 142.414 220.195 142.036 220.195 141.577C220.195 141.118 220.573 140.74 221.032 140.74H243.685C244.144 140.74 244.522 141.118 244.522 141.577C244.522 142.036 244.144 142.414 243.685 142.414Z" fill="#B2B6BB"/>
<path d="M234.505 98.5391H232.345V98.7551C227.323 99.7541 223.516 104.209 223.516 109.528C223.516 114.847 227.296 119.302 232.345 120.301V120.517H234.505C240.58 120.517 245.494 115.603 245.494 109.528C245.494 103.453 240.58 98.5391 234.505 98.5391Z" fill="#F14F5C"/>
<path opacity="0.2" d="M234.505 98.5391H232.345V98.7551C227.323 99.7541 223.516 104.209 223.516 109.528C223.516 114.847 227.296 119.302 232.345 120.301V120.517H234.505C240.58 120.517 245.494 115.603 245.494 109.528C245.494 103.453 240.58 98.5391 234.505 98.5391Z" fill="black"/>
<path d="M243.199 111.261C244.171 105.27 240.102 99.6253 234.113 98.653C228.122 97.6807 222.477 101.749 221.504 107.74C220.532 113.731 224.601 119.375 230.593 120.347C236.581 121.32 242.227 117.251 243.199 111.261Z" fill="#F14F5C"/>
<path d="M230.32 114.091L226.621 110.392C226.432 110.203 226.432 109.879 226.621 109.663L227.593 108.691C227.782 108.502 228.106 108.502 228.322 108.691L230.698 111.067L236.422 105.316C236.611 105.127 236.935 105.127 237.151 105.316L238.123 106.288C238.312 106.477 238.312 106.801 238.123 107.017L231.049 114.091C230.833 114.307 230.509 114.307 230.32 114.091Z" fill="white"/>
<path d="M190.252 224.062H137.143C136.009 224.062 135.118 223.144 135.118 222.037V168.928C135.118 167.794 136.036 166.903 137.143 166.903H190.252C191.386 166.903 192.277 167.821 192.277 168.928V222.037C192.304 223.144 191.386 224.062 190.252 224.062Z" fill="#F14F5C"/>
<path opacity="0.5" d="M190.252 224.062H137.143C136.009 224.062 135.118 223.144 135.118 222.037V168.928C135.118 167.794 136.036 166.903 137.143 166.903H190.252C191.386 166.903 192.277 167.821 192.277 168.928V222.037C192.304 223.144 191.386 224.062 190.252 224.062Z" fill="white"/>
<path d="M187.606 224.062H134.524C133.39 224.062 132.499 223.144 132.499 222.037V168.928C132.499 167.794 133.417 166.903 134.524 166.903H187.633C188.767 166.903 189.658 167.821 189.658 168.928V222.037C189.658 223.144 188.74 224.062 187.606 224.062Z" fill="white"/>
<path d="M173.566 205.999H148.564C147.673 205.999 146.971 205.27 146.971 204.406C146.971 203.515 147.7 202.813 148.564 202.813H173.566C174.457 202.813 175.159 203.542 175.159 204.406C175.186 205.297 174.457 205.999 173.566 205.999Z" fill="#61656D"/>
<path d="M180.073 212.236H142.057C141.598 212.236 141.22 211.858 141.22 211.399C141.22 210.94 141.598 210.562 142.057 210.562H180.073C180.532 210.562 180.91 210.94 180.91 211.399C180.937 211.858 180.559 212.236 180.073 212.236Z" fill="#B2B6BB"/>
<path d="M172.405 217.42H149.752C149.293 217.42 148.915 217.042 148.915 216.583C148.915 216.124 149.293 215.746 149.752 215.746H172.405C172.864 215.746 173.242 216.124 173.242 216.583C173.242 217.042 172.864 217.42 172.405 217.42Z" fill="#B2B6BB"/>
<path d="M163.225 173.545H161.065V173.761C156.043 174.76 152.236 179.215 152.236 184.534C152.236 189.853 156.016 194.308 161.065 195.307V195.523H163.225C169.3 195.523 174.214 190.609 174.214 184.534C174.214 178.459 169.3 173.545 163.225 173.545Z" fill="#F14F5C"/>
<path opacity="0.2" d="M163.225 173.545H161.065V173.761C156.043 174.76 152.236 179.215 152.236 184.534C152.236 189.853 156.016 194.308 161.065 195.307V195.523H163.225C169.3 195.523 174.214 190.609 174.214 184.534C174.214 178.459 169.3 173.545 163.225 173.545Z" fill="black"/>
<path d="M161.065 195.496C167.134 195.496 172.054 190.576 172.054 184.507C172.054 178.438 167.134 173.518 161.065 173.518C154.996 173.518 150.076 178.438 150.076 184.507C150.076 190.576 154.996 195.496 161.065 195.496Z" fill="#F14F5C"/>
<path d="M159.04 189.097L155.341 185.398C155.152 185.209 155.152 184.885 155.341 184.669L156.313 183.697C156.502 183.508 156.826 183.508 157.042 183.697L159.418 186.073L165.142 180.322C165.331 180.133 165.655 180.133 165.871 180.322L166.843 181.294C167.032 181.483 167.032 181.807 166.843 182.023L159.769 189.097C159.553 189.313 159.229 189.313 159.04 189.097Z" fill="white"/>
<path d="M261.532 224.062H208.423C207.289 224.062 206.398 223.144 206.398 222.037V168.928C206.398 167.794 207.316 166.903 208.423 166.903H261.532C262.666 166.903 263.557 167.821 263.557 168.928V222.037C263.584 223.144 262.666 224.062 261.532 224.062Z" fill="#F14F5C"/>
<path opacity="0.5" d="M261.532 224.062H208.423C207.289 224.062 206.398 223.144 206.398 222.037V168.928C206.398 167.794 207.316 166.903 208.423 166.903H261.532C262.666 166.903 263.557 167.821 263.557 168.928V222.037C263.584 223.144 262.666 224.062 261.532 224.062Z" fill="white"/>
<path d="M258.913 224.062H205.804C204.67 224.062 203.779 223.144 203.779 222.037V168.928C203.779 167.794 204.697 166.903 205.804 166.903H258.913C260.047 166.903 260.938 167.821 260.938 168.928V222.037C260.938 223.144 260.02 224.062 258.913 224.062Z" fill="white"/>
<path d="M244.846 205.999H219.844C218.953 205.999 218.251 205.27 218.251 204.406C218.251 203.515 218.98 202.813 219.844 202.813H244.846C245.737 202.813 246.439 203.542 246.439 204.406C246.466 205.297 245.737 205.999 244.846 205.999Z" fill="#61656D"/>
<path d="M251.353 212.236H213.337C212.878 212.236 212.5 211.858 212.5 211.399C212.5 210.94 212.878 210.562 213.337 210.562H251.353C251.812 210.562 252.19 210.94 252.19 211.399C252.217 211.858 251.839 212.236 251.353 212.236Z" fill="#B2B6BB"/>
<path d="M243.685 217.42H221.032C220.573 217.42 220.195 217.042 220.195 216.583C220.195 216.124 220.573 215.746 221.032 215.746H243.685C244.144 215.746 244.522 216.124 244.522 216.583C244.522 217.042 244.144 217.42 243.685 217.42Z" fill="#B2B6BB"/>
<path d="M234.505 173.545H232.345V173.761C227.323 174.76 223.516 179.215 223.516 184.534C223.516 189.853 227.296 194.308 232.345 195.307V195.523H234.505C240.58 195.523 245.494 190.609 245.494 184.534C245.494 178.459 240.58 173.545 234.505 173.545Z" fill="#F14F5C"/>
<path opacity="0.2" d="M234.505 173.545H232.345V173.761C227.323 174.76 223.516 179.215 223.516 184.534C223.516 189.853 227.296 194.308 232.345 195.307V195.523H234.505C240.58 195.523 245.494 190.609 245.494 184.534C245.494 178.459 240.58 173.545 234.505 173.545Z" fill="black"/>
<path d="M243.199 186.268C244.171 180.278 240.105 174.633 234.114 173.661C228.122 172.688 222.478 176.756 221.506 182.747C220.533 188.738 224.601 194.383 230.593 195.355C236.584 196.327 242.227 192.259 243.199 186.268Z" fill="#F14F5C"/>
<path d="M230.32 189.097L226.621 185.398C226.432 185.209 226.432 184.885 226.621 184.669L227.593 183.697C227.782 183.508 228.106 183.508 228.322 183.697L230.698 186.073L236.422 180.322C236.611 180.133 236.935 180.133 237.151 180.322L238.123 181.294C238.312 181.483 238.312 181.807 238.123 182.023L231.049 189.097C230.833 189.313 230.509 189.313 230.32 189.097Z" fill="white"/>
<path d="M123.022 73.348C123.022 73.915 123.481 74.374 124.048 74.374H126.1L126.532 78.694C126.559 79.018 126.856 79.288 127.18 79.288C127.531 79.288 127.801 79.018 127.828 78.667L128.098 74.536C128.098 74.482 128.152 74.428 128.233 74.428C128.287 74.428 128.341 74.482 128.368 74.536L128.638 78.667C128.665 79.018 128.962 79.288 129.313 79.288C129.664 79.288 129.988 78.991 129.988 78.64C130.042 77.29 130.204 74.455 130.204 74.455L130.015 78.559C129.988 78.964 130.312 79.288 130.717 79.288C131.068 79.288 131.338 79.045 131.392 78.694L132.013 74.482L131.554 77.614C131.5 77.938 131.77 78.262 132.094 78.262C132.337 78.262 132.553 78.1 132.634 77.884L133.552 75.13C133.687 74.455 133.444 73.753 132.931 73.321C130.852 71.512 127.882 71.161 125.452 72.484L123.184 73.186C123.103 73.159 123.022 73.267 123.022 73.348Z" fill="#FC9D9D"/>
<g opacity="0.15">
<path opacity="0.15" d="M130.01 74.4442L129.883 78.2488L130.261 78.2615L130.387 74.4566L130.01 74.4442Z" fill="black"/>
</g>
<g opacity="0.15">
<path opacity="0.15" d="M131.794 74.6581L131.539 77.7256L131.916 77.7569L132.171 74.6894L131.794 74.6581Z" fill="black"/>
</g>
<path opacity="0.2" d="M126.1 74.3741H124.318L125.398 73.348C125.614 73.132 125.992 73.267 126.019 73.591L126.1 74.3741Z" fill="black"/>
<path opacity="0.15" d="M68.7791 88.954L69.616 84.04C69.643 83.878 69.8861 83.878 69.9131 84.04L71.2631 93.7059L69.346 93.8409L68.7791 88.954Z" fill="black"/>
</svg>
